<svg xmlns="http://www.w3.org/2000/svg" width="117.466" height="24.789" viewBox="0 0 117.466 24.789">
  <defs>
    <style>
      .cls-1 {
        fill: #fff;
        font-size: 21px;
        font-family: YuGo-Bold, YuGothic;
        font-weight: 700;
        letter-spacing: 0.1em;
      }

      .cls-2 {
        fill: #f2f2f2;
      }
    </style>
  </defs>
  <g id="グループ_381" data-name="グループ 381" transform="translate(-13.534 -17)">
    <g id="グループ_341" data-name="グループ 341" transform="translate(73.848 15.89)">
      <text id="Errai" class="cls-1" transform="translate(0.152 19.11)"><tspan x="0" y="0">Errai</tspan></text>
    </g>
    <path id="パス_1318" data-name="パス 1318" class="cls-2" d="M569.914,442.5a39.623,39.623,0,0,1,3.482-9.351c1.368-2.267,3.016-3.274,4.51-1.925,1.115,1.007,2.065,3.221,2.945,5.535,1.8,4.741,3.464,10.168,5.59,13.444s4.927,3.887,6.732-.842c1.429-3.743,2.038-10.225,3.745-12.668,1.682-2.408,3.633.178,5.339,2.419a36.34,36.34,0,0,0,7.171,7.292c1.66,1.224,3.37,2.163,5.07,1.67s3.407-2.562,4.516-6.511" transform="translate(-556.38 -410.999)"/>
  </g>
</svg>
