<svg xmlns="http://www.w3.org/2000/svg" width="1200" height="630" viewBox="0 0 1200 630">
  <g id="グループ_442" data-name="グループ 442" transform="translate(-11306 4201)">
    <rect id="長方形_2062" data-name="長方形 2062" width="1200" height="630" transform="translate(11306 -4201)" fill="#222f40"/>
    <g id="グループ_406" data-name="グループ 406" transform="translate(-6054.957 -765)">
      <g id="グループ_404" data-name="グループ 404" transform="translate(17871.277 -3121.629)">
        <text id="Resilire" transform="translate(-0.32 91.629)" fill="#fff" font-size="104" font-family="YuGo-Bold, YuGothic" font-weight="700" letter-spacing="0.04em"><tspan x="0" y="0">Resilire</tspan></text>
      </g>
      <path id="パス_1349" data-name="パス 1349" d="M569.914,503.906c5.674-20.4,13.411-136.005,41.009-31.66,0,0,11.01,38.686,18.911,57.056,17.559,47.176,34.038-19.939,40.467-28.318,10.286-21.817,19.157-31.334,30.79-20.973,9.453,8.616,9.232,10.822,18.352,20.973,11.124,9.593,19.722,27.678,49.539-.992" transform="translate(17071.613 -3564.003)" fill="#fff"/>
    </g>
    <text id="全ての組織をサスティナブルに" transform="translate(11579 -3991)" fill="#fff" font-size="42" font-family="YuGo-Bold, YuGothic" font-weight="700"><tspan x="36.65" y="37">全ての組織をサスティナブルに</tspan></text>
  </g>
</svg>
