<svg xmlns="http://www.w3.org/2000/svg" xmlns:xlink="http://www.w3.org/1999/xlink" width="132.866" height="29.309" viewBox="0 0 132.866 29.309">
  <defs>
    <linearGradient id="linear-gradient" x1="0.639" y1="1.816" x2="-0.285" y2="0.756" gradientUnits="objectBoundingBox">
      <stop offset="0" stop-color="#ba7200"/>
      <stop offset="1" stop-color="#dfac01"/>
    </linearGradient>
  </defs>
  <g id="グループ_389" data-name="グループ 389" transform="translate(-85.211 -2687.971)">
    <path id="パス_1323" data-name="パス 1323" d="M9.77,0h123.1L123.1,29.309H0Z" transform="translate(85.211 2687.971)" fill="url(#linear-gradient)"/>
    <path id="パス_1938" data-name="パス 1938" d="M3.457,1.39V13.03H5.483V8.14H7.447c2.79,0,4.275-1.275,4.275-3.42s-1.29-3.33-4.155-3.33ZM5.483,2.905h1.98c1.545,0,2.22.675,2.22,1.83,0,1.185-.75,1.89-2.3,1.89h-1.9ZM19.1,1.195c-2.97,0-5,2.19-5,6.045s2,6.015,4.98,6.015,5-2.2,5-6.045C24.083,3.355,22.088,1.195,19.1,1.195Zm0,1.56c1.71,0,2.835,1.485,2.835,4.47,0,2.97-1.125,4.47-2.835,4.47s-2.85-1.5-2.85-4.47C16.253,4.24,17.392,2.755,19.1,2.755ZM29.167,1.39h-2.04V13.03h2.04Zm12.615,0h-1.86V6.28c0,1.56.06,2.835.15,4.26h-.21a35.5,35.5,0,0,0-1.545-3.99L35.9,1.39H32.857V13.03h1.86V7.39c0-1.44-.03-2.82-.1-4.2h.21c.525,1.305.99,2.385,1.665,3.84l2.82,6h2.475Zm11.7,0h-8.94V3.025h3.435V13.03h2.04V3.025h3.465Zm5.67,0c-2.31,0-3.615,1.665-3.615,5.91s1.23,5.94,3.585,5.94,3.63-1.725,3.63-5.97C62.752,3.04,61.463,1.39,59.153,1.39Zm0,1.485c1.2,0,1.665,1.035,1.665,4.41s-.48,4.47-1.695,4.47c-1.185,0-1.65-1.1-1.65-4.47S57.982,2.875,59.153,2.875Zm7.77,1.545a1.586,1.586,0,0,1,1.59-1.575,1.452,1.452,0,0,1,1.575,1.6c0,1.155-.6,1.8-2.1,1.8h-.795V7.78h.87c1.6,0,2.22.765,2.22,2.07a1.708,1.708,0,0,1-1.755,1.935c-.99,0-1.53-.465-1.785-1.62L64.9,10.7a3.351,3.351,0,0,0,3.645,2.535,3.356,3.356,0,0,0,3.66-3.4,2.785,2.785,0,0,0-2.415-2.88V6.85a2.488,2.488,0,0,0,2.19-2.58c0-1.665-1.35-2.88-3.435-2.88a3.3,3.3,0,0,0-3.465,2.475Z" transform="translate(114 2696)" fill="#fff"/>
  </g>
</svg>
