<svg xmlns="http://www.w3.org/2000/svg" xmlns:xlink="http://www.w3.org/1999/xlink" width="132.866" height="29.309" viewBox="0 0 132.866 29.309">
  <defs>
    <linearGradient id="linear-gradient" x1="0.639" y1="1.816" x2="-0.285" y2="0.756" gradientUnits="objectBoundingBox">
      <stop offset="0" stop-color="#ba7200"/>
      <stop offset="1" stop-color="#dfac01"/>
    </linearGradient>
  </defs>
  <g id="グループ_388" data-name="グループ 388" transform="translate(-519.48 -2116.037)">
    <path id="パス_1324" data-name="パス 1324" d="M9.77,0h123.1L123.1,29.309H0Z" transform="translate(519.48 2116.037)" fill="url(#linear-gradient)"/>
    <path id="パス_1937" data-name="パス 1937" d="M3.457,1.39V13.03H5.483V8.14H7.447c2.79,0,4.275-1.275,4.275-3.42s-1.29-3.33-4.155-3.33ZM5.483,2.905h1.98c1.545,0,2.22.675,2.22,1.83,0,1.185-.75,1.89-2.3,1.89h-1.9ZM19.1,1.195c-2.97,0-5,2.19-5,6.045s2,6.015,4.98,6.015,5-2.2,5-6.045C24.083,3.355,22.088,1.195,19.1,1.195Zm0,1.56c1.71,0,2.835,1.485,2.835,4.47,0,2.97-1.125,4.47-2.835,4.47s-2.85-1.5-2.85-4.47C16.253,4.24,17.392,2.755,19.1,2.755ZM29.167,1.39h-2.04V13.03h2.04Zm12.615,0h-1.86V6.28c0,1.56.06,2.835.15,4.26h-.21a35.5,35.5,0,0,0-1.545-3.99L35.9,1.39H32.857V13.03h1.86V7.39c0-1.44-.03-2.82-.1-4.2h.21c.525,1.305.99,2.385,1.665,3.84l2.82,6h2.475Zm11.7,0h-8.94V3.025h3.435V13.03h2.04V3.025h3.465Zm5.67,0c-2.31,0-3.615,1.665-3.615,5.91s1.23,5.94,3.585,5.94,3.63-1.725,3.63-5.97C62.752,3.04,61.463,1.39,59.153,1.39Zm0,1.485c1.2,0,1.665,1.035,1.665,4.41s-.48,4.47-1.695,4.47c-1.185,0-1.65-1.1-1.65-4.47S57.982,2.875,59.153,2.875Zm7.86,2.07c.09-1.365.675-2.07,1.62-2.07a1.428,1.428,0,0,1,1.5,1.59c0,.945-.33,1.545-1.83,2.985a14.485,14.485,0,0,0-3.27,4.245V13.03h7.1v-1.5H66.982a11.193,11.193,0,0,1,2.79-3.18c1.755-1.635,2.31-2.6,2.31-3.87,0-1.98-1.365-3.09-3.42-3.09a3.353,3.353,0,0,0-3.525,3.165Z" transform="translate(547 2124)" fill="#fff"/>
  </g>
</svg>
