<svg xmlns="http://www.w3.org/2000/svg" xmlns:xlink="http://www.w3.org/1999/xlink" width="138" height="138" viewBox="0 0 138 138">
  <defs>
    <filter id="長方形_2123" x="0" y="0" width="138" height="138" filterUnits="userSpaceOnUse">
      <feOffset dy="3" input="SourceAlpha"/>
      <feGaussianBlur stdDeviation="3" result="blur"/>
      <feFlood flood-opacity="0.161"/>
      <feComposite operator="in" in2="blur"/>
      <feComposite in="SourceGraphic"/>
    </filter>
  </defs>
  <g id="グループ_480" data-name="グループ 480" transform="translate(-694 -923)">
    <g transform="matrix(1, 0, 0, 1, 694, 923)" filter="url(#長方形_2123)">
      <rect id="長方形_2123-2" data-name="長方形 2123" width="120" height="120" rx="60" transform="translate(9 6)" fill="#2f3f59"/>
    </g>
    <g id="グループ_459" data-name="グループ 459" transform="translate(735.541 963.452)">
      <path id="パス_1655" data-name="パス 1655" d="M279,495.571a1.835,1.835,0,0,1,1.645-.221s-.234.5-1.276.491Z" transform="translate(-274.017 -467.622)" fill="#d2b600"/>
      <path id="パス_1730" data-name="パス 1730" d="M255.731,356.109l-7.82,3.026-11.431,4.418c-.431-.8-1.067-1.9-1.855-3.2-2.707-4.487-7.187-11.465-11.174-17.6-4.494-6.91-8.361-12.745-8.361-12.745l2.8-.812,22.868-6.632Z" transform="translate(-215.09 -308.42)" opacity="0.1"/>
      <path id="パス_1731" data-name="パス 1731" d="M257.731,349.109l-7.82,3.026-11.431,4.418c-.431-.8-1.067-1.9-1.855-3.2-2.707-4.487-7.187-11.465-11.174-17.6-4.494-6.91-8.361-12.745-8.361-12.745l2.8-.812,22.868-6.632Z" transform="translate(-216.934 -301.966)" fill="#fff"/>
      <path id="パス_1732" data-name="パス 1732" d="M290.841,349.109l-7.82,3.026a58.813,58.813,0,0,1-13.286,1.222c-2.707-4.487-7.187-11.465-11.174-17.6L253,322.2l22.868-6.632Z" transform="translate(-250.044 -301.966)" opacity="0.1"/>
      <path id="パス_1733" data-name="パス 1733" d="M283.751,307.764s-12.15,7.187-30.289,5.565L239,278.075l6.93-1.19,23.956-4.114,13.593,34.312Z" transform="translate(-237.136 -262.503)" fill="#d2b600"/>
      <path id="パス_1734" data-name="パス 1734" d="M365.476,307.082a57.506,57.506,0,0,1-9.5-.27,30.517,30.517,0,0,1-10.335-2.9,31.379,31.379,0,0,1-6.756-4.538c-5.037-4.531-8.155-11.013-10.955-22.492l23.956-4.114Z" transform="translate(-319.133 -262.503)" opacity="0.1"/>
      <path id="パス_1735" data-name="パス 1735" d="M355.164,183.688a66.247,66.247,0,0,1-18.07.674,30.548,30.548,0,0,1-10.335-2.9A31.382,31.382,0,0,1,320,176.926c-6.237-5.613-9.528-14.206-12.922-31.568a45.778,45.778,0,0,0,29.6-4.278S341.646,172.052,355.164,183.688Z" transform="translate(-299.908 -141.08)" fill="#fff"/>
      <path id="パス_1736" data-name="パス 1736" d="M489.921,568.871a30.548,30.548,0,0,1-10.335-2.9,31.377,31.377,0,0,1-6.756-4.538c5.308-.431,6.072-3.334,6.072-3.334C482.837,564.346,489.921,568.871,489.921,568.871Z" transform="translate(-452.736 -525.588)" opacity="0.1"/>
      <path id="パス_1737" data-name="パス 1737" d="M405.85,238.754a28.392,28.392,0,0,0,15.486-3.294l.513,1.647a39.776,39.776,0,0,1-16,3.572Z" transform="translate(-390.978 -228.102)" fill="#d2b600" opacity="0.3"/>
      <path id="パス_1738" data-name="パス 1738" d="M405.85,323.81a52.674,52.674,0,0,0,16.8-4.92l.3.685s-3.258,4.1-17.1,5.171Z" transform="translate(-390.978 -305.027)" opacity="0.3"/>
      <path id="パス_1739" data-name="パス 1739" d="M417.94,364.5a52.684,52.684,0,0,0,16.8-4.919l.3.685s-3.257,4.1-17.1,5.176Z" transform="translate(-402.125 -342.545)" opacity="0.3"/>
      <path id="パス_1740" data-name="パス 1740" d="M429,408.349a52.685,52.685,0,0,0,16.8-4.919l.3.684s-3.262,4.1-17.1,5.176Z" transform="translate(-412.323 -382.976)" opacity="0.3"/>
      <path id="パス_1741" data-name="パス 1741" d="M442.13,445.929a52.686,52.686,0,0,0,16.8-4.919l.3.685s-3.257,4.1-17.1,5.177Z" transform="translate(-424.429 -417.626)" opacity="0.3"/>
      <path id="パス_1742" data-name="パス 1742" d="M454.23,486.65a52.684,52.684,0,0,0,16.8-4.919l.3.685s-3.258,4.1-17.1,5.176Z" transform="translate(-435.586 -455.172)" opacity="0.1"/>
      <rect id="長方形_2112" data-name="長方形 2112" width="2.351" height="2.351" transform="translate(32.991 12.485) rotate(-18.8)" fill="#d2b600" opacity="0.3"/>
      <rect id="長方形_2113" data-name="長方形 2113" width="2.351" height="2.351" transform="translate(34.257 15.796) rotate(-18.8)" fill="#d2b600" opacity="0.3"/>
      <rect id="長方形_2114" data-name="長方形 2114" width="2.351" height="2.351" transform="translate(36.286 22.165) rotate(-18.8)" fill="#d2b600" opacity="0.3"/>
      <rect id="長方形_2115" data-name="長方形 2115" width="2.351" height="2.351" transform="translate(37.45 25.584) rotate(-18.8)" fill="#d2b600" opacity="0.3"/>
      <rect id="長方形_2116" data-name="長方形 2116" width="2.351" height="2.351" transform="translate(35.289 19.234) rotate(-18.8)" fill="#d2b600" opacity="0.3"/>
      <path id="パス_1773" data-name="パス 1773" d="M716.521,439.343l6.237-2.33a.593.593,0,0,1,.763.348h0a.593.593,0,0,1-.348.763l-6.237,2.33-1.336-.134Z" transform="translate(-676.578 -413.907)" fill="#5c5c8e"/>
      <path id="パス_1774" data-name="パス 1774" d="M723.314,438.257h0a.594.594,0,0,1-.348.764l-6.237,2.329-1-.1-.144.156,1.336.134,6.237-2.33a.593.593,0,0,0,.349-.763h0a.591.591,0,0,0-.242-.3.65.65,0,0,1,.055.107Z" transform="translate(-676.56 -414.989)" fill="#fff" opacity="0.1"/>
      <path id="パス_1775" data-name="パス 1775" d="M694.221,415.58l.416,1.112-1.1-.11-.24-.024.328-.348Z" transform="translate(-654.279 -390.144)" fill="#efc8c4"/>
      <path id="パス_1776" data-name="パス 1776" d="M715.946,475.42a.238.238,0,0,1,.064.07.1.1,0,0,1,0,.108.242.242,0,0,1-.061.043.2.2,0,0,0-.089.15l-.24-.024Z" transform="translate(-676.597 -449.354)" fill="#727a9c"/>
      <path id="パス_1777" data-name="パス 1777" d="M644.307,286.644l-1.052-.513a.127.127,0,0,1-.059-.17l.112-.229a.126.126,0,0,1,.17-.058l.709.345.74-1.517a.128.128,0,0,1,.17-.059l.229.112a.126.126,0,0,1,.058.17l-.907,1.861A.127.127,0,0,1,644.307,286.644Z" transform="translate(-609.809 -273.254)" fill="#3acc6c"/>
      <path id="パス_1778" data-name="パス 1778" d="M673.778,370.8l-1.052-.513a.127.127,0,0,1-.059-.17l.112-.229a.128.128,0,0,1,.171-.058l.708.345.739-1.519a.128.128,0,0,1,.17-.059l.228.112a.127.127,0,0,1,.059.17l-.907,1.861a.129.129,0,0,1-.171.059Z" transform="translate(-636.981 -350.843)" fill="#3acc6c"/>
      <path id="パス_1779" data-name="パス 1779" d="M660.543,329.3l-1.052-.513a.128.128,0,0,1-.059-.17l.112-.229a.126.126,0,0,1,.17-.058l.709.345.74-1.52a.127.127,0,0,1,.17-.059l.229.112a.129.129,0,0,1,.058.171l-.908,1.863a.127.127,0,0,1-.17.058Z" transform="translate(-624.778 -312.583)" fill="#3acc6c"/>
      <path id="パス_1780" data-name="パス 1780" d="M686.578,408.813l-1.052-.513a.127.127,0,0,1-.058-.17l.111-.229a.127.127,0,0,1,.17-.059l.709.345.74-1.517a.129.129,0,0,1,.171-.059l.228.112a.126.126,0,0,1,.059.17l-.907,1.861A.129.129,0,0,1,686.578,408.813Z" transform="translate(-648.783 -385.898)" fill="#3acc6c"/>
    </g>
  </g>
</svg>
