<svg xmlns="http://www.w3.org/2000/svg" xmlns:xlink="http://www.w3.org/1999/xlink" width="138" height="138" viewBox="0 0 138 138">
  <defs>
    <filter id="長方形_2125" x="0" y="0" width="138" height="138" filterUnits="userSpaceOnUse">
      <feOffset dy="3" input="SourceAlpha"/>
      <feGaussianBlur stdDeviation="3" result="blur"/>
      <feFlood flood-opacity="0.161"/>
      <feComposite operator="in" in2="blur"/>
      <feComposite in="SourceGraphic"/>
    </filter>
  </defs>
  <g id="グループ_481" data-name="グループ 481" transform="translate(-954 -923)">
    <g transform="matrix(1, 0, 0, 1, 954, 923)" filter="url(#長方形_2125)">
      <rect id="長方形_2125-2" data-name="長方形 2125" width="120" height="120" rx="60" transform="translate(9 6)" fill="#2f3f59"/>
    </g>
    <g id="グループ_477" data-name="グループ 477" transform="translate(-4 -4)">
      <ellipse id="Ellipse_13" data-name="Ellipse 13" cx="25.416" cy="25.416" rx="25.416" ry="25.416" transform="translate(1001.798 967.753)" fill="#d2b600"/>
      <path id="パス_1933" data-name="パス 1933" d="M433.58,293.748a1.524,1.524,0,0,0,2.156,0l6.543-6.543V303.34a1.524,1.524,0,1,0,3.049,0V287.2l6.543,6.543a1.524,1.524,0,1,0,2.155-2.155l-9.145-9.145a1.524,1.524,0,0,0-2.155,0l-9.146,9.145A1.524,1.524,0,0,0,433.58,293.748Z" transform="translate(583.411 699.736)" fill="#fff"/>
    </g>
  </g>
</svg>
