<svg xmlns="http://www.w3.org/2000/svg" xmlns:xlink="http://www.w3.org/1999/xlink" width="138" height="138" viewBox="0 0 138 138">
  <defs>
    <filter id="長方形_2124" x="0" y="0" width="138" height="138" filterUnits="userSpaceOnUse">
      <feOffset dy="3" input="SourceAlpha"/>
      <feGaussianBlur stdDeviation="3" result="blur"/>
      <feFlood flood-opacity="0.161"/>
      <feComposite operator="in" in2="blur"/>
      <feComposite in="SourceGraphic"/>
    </filter>
  </defs>
  <g id="グループ_478" data-name="グループ 478" transform="translate(-116 -925)">
    <rect id="長方形_2210" data-name="長方形 2210" width="8.597" height="0.547" transform="translate(222.674 1020.311)" fill="#acacac"/>
    <g transform="matrix(1, 0, 0, 1, 116, 925)" filter="url(#長方形_2124)">
      <rect id="長方形_2124-2" data-name="長方形 2124" width="120" height="120" rx="60" transform="translate(9 6)" fill="#2f3f59"/>
    </g>
    <rect id="長方形_2202" data-name="長方形 2202" width="71.721" height="3.64" transform="translate(169.592 967.52) rotate(30.649)" fill="#f2f2f2"/>
    <rect id="長方形_2203" data-name="長方形 2203" width="71.721" height="3.64" transform="translate(147.113 971.207) rotate(30.649)" fill="#f2f2f2"/>
    <ellipse id="楕円形_282" data-name="楕円形 282" cx="19.318" cy="19.318" rx="19.318" ry="19.318" transform="translate(164.228 972.483)" fill="#727272"/>
    <path id="パス_1906" data-name="パス 1906" d="M642.47,362.4a3.444,3.444,0,1,1,3.444-3.444A3.444,3.444,0,0,1,642.47,362.4Zm0-6.719a3.276,3.276,0,1,0,3.276,3.276A3.276,3.276,0,0,0,642.47,355.683Z" transform="translate(-458.913 632.736)" fill="#d2b600" opacity="0.3"/>
    <path id="パス_1907" data-name="パス 1907" d="M613.135,336.175a6.551,6.551,0,1,1,6.551-6.551A6.551,6.551,0,0,1,613.135,336.175Zm0-12.935a6.383,6.383,0,1,0,6.383,6.383A6.383,6.383,0,0,0,613.135,323.241Z" transform="translate(-429.58 662.101)" fill="#d2b600" opacity="0.3"/>
    <path id="パス_1908" data-name="パス 1908" d="M587.764,313.493A9.239,9.239,0,1,1,597,304.254,9.239,9.239,0,0,1,587.764,313.493Zm0-18.31a9.071,9.071,0,1,0,9.071,9.071A9.071,9.071,0,0,0,587.764,295.183Z" transform="translate(-404.211 687.501)" fill="#d2b600" opacity="0.3"/>
    <path id="パス_1909" data-name="パス 1909" d="M554.465,283.721a12.767,12.767,0,1,1,12.767-12.767A12.781,12.781,0,0,1,554.465,283.721Zm0-25.365a12.6,12.6,0,1,0,12.6,12.6A12.613,12.613,0,0,0,554.465,258.356Z" transform="translate(-370.914 720.843)" fill="#d2b600" opacity="0.3"/>
    <path id="パス_1910" data-name="パス 1910" d="M526.716,258.912a15.706,15.706,0,1,1,15.706-15.706A15.724,15.724,0,0,1,526.716,258.912Zm0-31.245a15.538,15.538,0,1,0,15.538,15.538A15.556,15.556,0,0,0,526.716,227.668Z" transform="translate(-343.168 748.635)" fill="#d2b600" opacity="0.3"/>
    <ellipse id="楕円形_283" data-name="楕円形 283" cx="1.596" cy="1.596" rx="1.596" ry="1.596" transform="translate(181.961 989.987)" fill="#d2b600" opacity="0.3"/>
    <ellipse id="楕円形_284" data-name="楕円形 284" cx="1.596" cy="1.596" rx="1.596" ry="1.596" transform="translate(186.636 995.235)" fill="#d2b600" opacity="0.3"/>
    <ellipse id="楕円形_285" data-name="楕円形 285" cx="1.596" cy="1.596" rx="1.596" ry="1.596" transform="translate(173.947 994.471)" fill="#d2b600" opacity="0.3"/>
    <ellipse id="楕円形_286" data-name="楕円形 286" cx="0.756" cy="0.756" rx="0.756" ry="0.756" transform="translate(182.802 990.82)" fill="#9b9b9b"/>
    <ellipse id="楕円形_287" data-name="楕円形 287" cx="0.756" cy="0.756" rx="0.756" ry="0.756" transform="translate(174.802 995.296)" fill="#9b9b9b"/>
    <ellipse id="楕円形_288" data-name="楕円形 288" cx="0.756" cy="0.756" rx="0.756" ry="0.756" transform="translate(187.468 996.153)" fill="#9b9b9b"/>
    <ellipse id="楕円形_289" data-name="楕円形 289" cx="0.665" cy="0.665" rx="0.665" ry="0.665" transform="translate(210.309 989.768)" fill="#d2b600"/>
    <path id="パス_1911" data-name="パス 1911" d="M568.363,164.533h-.168v-8.651h33.344v.168H568.363Z" transform="translate(-381.683 826.504)" fill="#9b9b9b"/>
    <path id="パス_1912" data-name="パス 1912" d="M1022.363,283.073a1.921,1.921,0,1,1,1.921-1.921A1.921,1.921,0,0,1,1022.363,283.073Zm0-3.694a1.773,1.773,0,1,0,1.773,1.773A1.773,1.773,0,0,0,1022.363,279.38Z" transform="translate(-811.316 709.288)" fill="#9b9b9b"/>
    <ellipse id="楕円形_290" data-name="楕円形 290" cx="0.756" cy="0.756" rx="0.756" ry="0.756" transform="translate(217.086 1005.867)" fill="#d2b600"/>
    <path id="パス_1913" data-name="パス 1913" d="M970.017,510.7a2.184,2.184,0,1,1,2.184-2.184A2.184,2.184,0,0,1,970.017,510.7Zm0-4.2a2.016,2.016,0,1,0,2.016,2.016A2.016,2.016,0,0,0,970.017,506.5Z" transform="translate(-752.07 498.17)" fill="#9b9b9b"/>
    <ellipse id="楕円形_291" data-name="楕円形 291" cx="0.665" cy="0.665" rx="0.665" ry="0.665" transform="translate(144.738 993.285)" fill="#d2b600"/>
    <path id="パス_1914" data-name="パス 1914" d="M336.077,320.426a2.184,2.184,0,1,1,2.184-2.184A2.184,2.184,0,0,1,336.077,320.426Zm0-4.2a2.016,2.016,0,1,0,2.016,2.016,2.016,2.016,0,0,0-2.016-2.016Z" transform="translate(-187.196 667.71)" fill="#9b9b9b"/>
    <path id="パス_1915" data-name="パス 1915" d="M294.551,202.134h-.168V193.65l-21.251-.335,0-.168,21.416.337Z" transform="translate(-120.846 793.344)" fill="#9b9b9b"/>
    <path id="パス_1916" data-name="パス 1916" d="M635.7,303.509H611.6v-8.651h.168v8.483H635.7Z" transform="translate(-421.32 702.743)" fill="#9b9b9b"/>
    <rect id="長方形_2205" data-name="長方形 2205" width="9.239" height="0.588" transform="translate(219.283 986.474)" fill="#acacac"/>
    <rect id="長方形_2206" data-name="長方形 2206" width="9.239" height="0.588" transform="translate(219.283 988.377)" fill="#acacac"/>
    <rect id="長方形_2207" data-name="長方形 2207" width="9.239" height="0.588" transform="translate(219.283 990.28)" fill="#acacac"/>
    <rect id="長方形_2208" data-name="長方形 2208" width="9.239" height="0.588" transform="translate(213.519 1011.116)" fill="#acacac"/>
    <rect id="長方形_2209" data-name="長方形 2209" width="9.239" height="0.588" transform="translate(213.519 1013.019)" fill="#acacac"/>
    <rect id="長方形_2211" data-name="長方形 2211" width="9.239" height="0.588" transform="translate(144.065 990.565)" fill="#acacac"/>
    <rect id="長方形_2212" data-name="長方形 2212" width="9.239" height="0.588" transform="translate(144.065 992.468)" fill="#acacac"/>
    <rect id="長方形_2213" data-name="長方形 2213" width="9.239" height="0.588" transform="translate(144.065 994.371)" fill="#acacac"/>
  </g>
</svg>
