<svg xmlns="http://www.w3.org/2000/svg" width="147.689" height="27.268" viewBox="0 0 147.689 27.268">
  <g id="グループ_486" data-name="グループ 486" transform="translate(-148.527 -21.206)">
    <path id="パス_1935" data-name="パス 1935" d="M2.232-18.576V.048H5.4V-8.28H8.04c.312,0,.576-.024.84-.024L12.648.048h3.48l-4.3-8.832a4.723,4.723,0,0,0,3.7-4.728c0-3.24-2.064-5.064-6.6-5.064ZM5.4-16.152H8.784c2.568,0,3.5,1.032,3.5,2.688,0,1.728-1.1,2.784-3.648,2.784H5.4ZM30.5-5.88V-6.5c0-4.464-2.52-6.912-5.88-6.912-3.552,0-5.976,2.664-5.976,6.96,0,4.32,2.3,6.84,6.24,6.84,2.928,0,4.728-1.3,5.544-3.816L27.7-4.224c-.456,1.728-1.416,2.5-2.784,2.5-2.184,0-3.288-1.656-3.312-4.152ZM21.648-7.872c.144-2.112,1.2-3.456,3.024-3.456,1.8,0,2.736,1.248,2.88,3.456Zm22.368-2.184c-.72-2.136-2.4-3.36-5.16-3.36-3.216,0-4.944,1.632-4.944,3.744,0,2.208,1.008,3.24,3.864,4.008l1.1.312c2.088.6,2.544.888,2.544,1.968,0,.96-.672,1.7-2.4,1.7a2.779,2.779,0,0,1-2.76-2.208L33.456-2.9C34.3-.6,36.168.384,38.952.384c3.576,0,5.328-1.7,5.328-4.056,0-2.136-1.08-3.216-4.08-4.008l-1.1-.288c-1.92-.5-2.352-.936-2.352-1.968,0-.792.768-1.416,2.064-1.416A2.357,2.357,0,0,1,41.16-9.24Zm7.248-3.072H48.24V.048h3.024Zm.12-5.448H48.12v3.1h3.264Zm7.728-.336H56.088V.048h3.024Zm7.848,5.784H63.936V.048H66.96Zm.12-5.448H63.816v3.1H67.08ZM78.7-13.416c-1.776,0-3.144.936-4.08,3.528v-3.24H71.784V.048H74.76v-7.3c.84-2.3,2.16-3.336,3.744-3.336ZM93.216-5.88V-6.5c0-4.464-2.52-6.912-5.88-6.912-3.552,0-5.976,2.664-5.976,6.96,0,4.32,2.3,6.84,6.24,6.84,2.928,0,4.728-1.3,5.544-3.816l-2.736-.792c-.456,1.728-1.416,2.5-2.784,2.5-2.184,0-3.288-1.656-3.312-4.152ZM84.36-7.872c.144-2.112,1.2-3.456,3.024-3.456,1.8,0,2.736,1.248,2.88,3.456Z" transform="translate(203 45)"/>
    <g id="グループ_485" data-name="グループ 485">
      <g id="グループ_484" data-name="グループ 484">
        <path id="パス_1349" data-name="パス 1349" d="M569.914,446.654c1.325-4.765,3.132-31.764,9.578-7.394,0,0,2.571,9.035,4.417,13.325,4.1,11.018,7.95-4.657,9.451-6.614,2.4-5.1,4.474-7.318,7.191-4.9,2.208,2.012,2.156,2.528,4.286,4.9,2.6,2.24,4.606,6.464,11.57-.232" transform="translate(-421.387 -408.003)"/>
      </g>
    </g>
  </g>
</svg>
