<svg xmlns="http://www.w3.org/2000/svg" width="180.543" height="32.321" viewBox="0 0 180.543 32.321">
  <g id="グループ_483" data-name="グループ 483" transform="translate(-41.141 -17.206)">
    <path id="パス_1934" data-name="パス 1934" d="M2.883-23.994V.062H6.975V-10.695h3.41c.4,0,.744-.031,1.085-.031L16.337.062h4.495L15.283-11.346a6.1,6.1,0,0,0,4.774-6.107c0-4.185-2.666-6.541-8.525-6.541Zm4.092,3.131h4.371c3.317,0,4.526,1.333,4.526,3.472,0,2.232-1.426,3.6-4.712,3.6H6.975ZM39.4-7.6V-8.4c0-5.766-3.255-8.928-7.6-8.928-4.588,0-7.719,3.441-7.719,8.99,0,5.58,2.976,8.835,8.06,8.835,3.782,0,6.107-1.674,7.161-4.929L35.774-5.456c-.589,2.232-1.829,3.224-3.6,3.224-2.821,0-4.247-2.139-4.278-5.363ZM27.962-10.168c.186-2.728,1.55-4.464,3.906-4.464,2.325,0,3.534,1.612,3.72,4.464Zm28.892-2.821c-.93-2.759-3.1-4.34-6.665-4.34-4.154,0-6.386,2.108-6.386,4.836,0,2.852,1.3,4.185,4.991,5.177l1.426.4c2.7.775,3.286,1.147,3.286,2.542,0,1.24-.868,2.2-3.1,2.2a3.589,3.589,0,0,1-3.565-2.852L43.214-3.751C44.3-.775,46.717.5,50.313.5c4.619,0,6.882-2.2,6.882-5.239,0-2.759-1.395-4.154-5.27-5.177L50.5-10.292c-2.48-.651-3.038-1.209-3.038-2.542,0-1.023.992-1.829,2.666-1.829,1.519,0,2.6.9,3.038,2.728Zm9.362-3.968H62.31V.062h3.906Zm.155-7.037H62.155v4h4.216Zm8.742-.434H71.207V.062h3.906Zm8.9,7.471H80.1V.062H84.01Zm.155-7.037H79.949v4h4.216Zm13.764,6.665c-2.294,0-4.061,1.209-5.27,4.557v-4.185H89V.062h3.844V-9.362c1.085-2.976,2.79-4.309,4.836-4.309ZM116.684-7.6V-8.4c0-5.766-3.255-8.928-7.6-8.928-4.588,0-7.719,3.441-7.719,8.99,0,5.58,2.976,8.835,8.06,8.835,3.782,0,6.107-1.674,7.161-4.929l-3.534-1.023c-.589,2.232-1.829,3.224-3.6,3.224-2.821,0-4.247-2.139-4.278-5.363Zm-11.439-2.573c.186-2.728,1.55-4.464,3.906-4.464,2.325,0,3.534,1.612,3.72,4.464Z" transform="translate(105 45)" fill="#fff"/>
    <path id="パス_1349" data-name="パス 1349" d="M569.914,449.887c1.571-5.648,3.712-37.649,11.352-8.764,0,0,3.048,10.709,5.235,15.794,4.86,13.059,9.422-5.519,11.2-7.839,2.847-6.039,5.3-8.674,8.523-5.806,2.617,2.385,2.556,3,5.08,5.806,3.08,2.655,5.459,7.662,13.714-.275" transform="translate(-528.773 -412.003)" fill="#fff"/>
  </g>
</svg>
