<svg xmlns="http://www.w3.org/2000/svg" width="212.219" height="32.321" viewBox="0 0 212.219 32.321">
  <g id="グループ_501" data-name="グループ 501" transform="translate(-34.141 -27.206)">
    <path id="パス_1978" data-name="パス 1978" d="M2.418-20.124V.052H5.85V-8.97H8.71c.338,0,.624-.026.91-.026L13.7.052h3.77L12.818-9.516a5.116,5.116,0,0,0,4-5.122c0-3.51-2.236-5.486-7.15-5.486ZM5.85-17.5H9.516c2.782,0,3.8,1.118,3.8,2.912,0,1.872-1.2,3.016-3.952,3.016H5.85ZM33.046-6.37v-.676c0-4.836-2.73-7.488-6.37-7.488-3.848,0-6.474,2.886-6.474,7.54,0,4.68,2.5,7.41,6.76,7.41,3.172,0,5.122-1.4,6.006-4.134L30-4.576c-.494,1.872-1.534,2.7-3.016,2.7-2.366,0-3.562-1.794-3.588-4.5ZM23.452-8.528c.156-2.288,1.3-3.744,3.276-3.744,1.95,0,2.964,1.352,3.12,3.744Zm24.232-2.366c-.78-2.314-2.6-3.64-5.59-3.64-3.484,0-5.356,1.768-5.356,4.056,0,2.392,1.092,3.51,4.186,4.342l1.2.338c2.262.65,2.756.962,2.756,2.132,0,1.04-.728,1.846-2.6,1.846a3.01,3.01,0,0,1-2.99-2.392L36.244-3.146C37.154-.65,39.182.416,42.2.416c3.874,0,5.772-1.846,5.772-4.394,0-2.314-1.17-3.484-4.42-4.342l-1.2-.312c-2.08-.546-2.548-1.014-2.548-2.132,0-.858.832-1.534,2.236-1.534A2.553,2.553,0,0,1,44.59-10.01Zm7.852-3.328H52.26V.052h3.276Zm.13-5.9H52.13v3.354h3.536ZM63-20.488H59.722V.052H63Zm7.462,6.266H67.184V.052H70.46Zm.13-5.9H67.054v3.354H70.59Zm11.544,5.59c-1.924,0-3.406,1.014-4.42,3.822v-3.51H74.646V.052H77.87v-7.9c.91-2.5,2.34-3.614,4.056-3.614ZM97.864-6.37v-.676c0-4.836-2.73-7.488-6.37-7.488-3.848,0-6.474,2.886-6.474,7.54,0,4.68,2.5,7.41,6.76,7.41,3.172,0,5.122-1.4,6.006-4.134l-2.964-.858c-.494,1.872-1.534,2.7-3.016,2.7-2.366,0-3.562-1.794-3.588-4.5ZM88.27-8.528c.156-2.288,1.3-3.744,3.276-3.744,1.95,0,2.964,1.352,3.12,3.744Z" transform="translate(98 55)" fill="#fff"/>
    <path id="パス_1349" data-name="パス 1349" d="M569.914,449.887c1.571-5.648,3.712-37.649,11.352-8.764,0,0,3.048,10.709,5.235,15.794,4.86,13.059,9.422-5.519,11.2-7.839,2.847-6.039,5.3-8.674,8.523-5.806,2.617,2.385,2.556,3,5.08,5.806,3.08,2.655,5.459,7.662,13.714-.275" transform="translate(-535.773 -402.003)" fill="#fff"/>
    <path id="パス_1977" data-name="パス 1977" d="M6.36-1.46A3.941,3.941,0,0,0,9.9.28,4.731,4.731,0,0,0,15-4.68,3.581,3.581,0,0,0,12.44-8.3a3.786,3.786,0,0,0,3.34-3.78,3.536,3.536,0,0,0-3.88-3.66c-2.68,0-4.52,1.22-5.32,4.26L2.48,3.9h2.5Zm2.6-9.96c.46-1.82,1.26-2.56,2.6-2.56a1.693,1.693,0,0,1,1.82,1.92,2.779,2.779,0,0,1-2.98,2.8H9.62L9.2-7.56h.82a2.367,2.367,0,0,1,2.42,2.68c0,1.94-1.16,3.4-2.94,3.4A2.84,2.84,0,0,1,7.34-2.52a2.286,2.286,0,0,1-.44-.82Zm23.62.32V-14h4.66c1.74,0,2.34.04,2.46.04.18,0,.2-.02.2-.22V-15.7c0-.22-.02-.24-.2-.24-.12,0-.72.04-2.46.04H33.3c-1.74,0-2.38-.04-2.5-.04-.2,0-.22.02-.22.24,0,.12.04,1.62.04,5.02a45.72,45.72,0,0,1-.32,6.06A11.851,11.851,0,0,1,28.74.12a5.364,5.364,0,0,1,1.2,1.08c.18.22.28.32.38.32s.18-.12.3-.4a15.818,15.818,0,0,0,1.56-5,46.7,46.7,0,0,0,.38-5.38h.06a15.645,15.645,0,0,0,2.02,6.18A12.211,12.211,0,0,1,31.28.02a3.009,3.009,0,0,1,.9,1.18c.12.26.18.36.3.36.1,0,.24-.08.46-.26a16.4,16.4,0,0,0,2.84-2.8,14.548,14.548,0,0,0,3.04,2.8.831.831,0,0,0,.42.2c.12,0,.18-.14.32-.48a6.3,6.3,0,0,1,.8-1.46,11.3,11.3,0,0,1-3.46-2.7,18.737,18.737,0,0,0,2.06-5.74,1.249,1.249,0,0,1,.36-.76.493.493,0,0,0,.16-.34c0-.12-.1-.28-.48-.7-.46-.48-.64-.58-.8-.58a.44.44,0,0,0-.26.08.7.7,0,0,1-.4.08Zm4.46,1.84a14.833,14.833,0,0,1-1.32,4.42,12.649,12.649,0,0,1-1.46-4.42Zm-14.1-.62a51.8,51.8,0,0,1-.26,6.14A13.049,13.049,0,0,1,21.52.24a4.155,4.155,0,0,1,1.18.96c.18.2.3.3.4.3s.18-.12.3-.4a15.5,15.5,0,0,0,1.12-4.26l.18-2h1.98V-.98c0,1.54-.04,2.22-.04,2.34,0,.18.02.2.24.2h1.54c.2,0,.22-.02.22-.2,0-.12-.04-.8-.04-2.34V-4.72c0-1.38.04-1.96.04-2.08,0-.22-.02-.24-.22-.24-.14,0-.54.04-1.5.04H24.78c.02-.68.04-1.42.04-2.2h2.72c1.48,0,1.94.04,2.06.04.22,0,.24-.02.24-.22v-1.46c0-.2-.02-.22-.24-.22-.1,0-.4.04-1.2.04v-3.36a4.811,4.811,0,0,1,.1-1.5.967.967,0,0,0,.12-.42c0-.1-.1-.18-.3-.2a19.632,19.632,0,0,0-1.96-.14,18.1,18.1,0,0,1,.14,2.58v3.04H24.82v-2.06a12.782,12.782,0,0,1,.1-2.34c.02-.18.14-.4.14-.56,0-.1-.14-.18-.32-.2-.68-.08-1.2-.12-1.94-.14a26.708,26.708,0,0,1,.14,3.22Z" transform="translate(206 52)" fill="#fff"/>
  </g>
</svg>
