<svg xmlns="http://www.w3.org/2000/svg" xmlns:xlink="http://www.w3.org/1999/xlink" width="278" height="325" viewBox="0 0 278 325">
  <defs>
    <filter id="長方形_2176" x="10" y="11" width="268" height="314" filterUnits="userSpaceOnUse">
      <feOffset dx="3" dy="3" input="SourceAlpha"/>
      <feGaussianBlur stdDeviation="3" result="blur"/>
      <feFlood flood-opacity="0.161"/>
      <feComposite operator="in" in2="blur"/>
      <feComposite in="SourceGraphic"/>
    </filter>
    <filter id="長方形_2125" x="72" y="61" width="138" height="138" filterUnits="userSpaceOnUse">
      <feOffset dy="3" input="SourceAlpha"/>
      <feGaussianBlur stdDeviation="3" result="blur-2"/>
      <feFlood flood-opacity="0.161"/>
      <feComposite operator="in" in2="blur-2"/>
      <feComposite in="SourceGraphic"/>
    </filter>
  </defs>
  <g id="グループ_471" data-name="グループ 471" transform="translate(-454 -5425)">
    <g id="グループ_466" data-name="グループ 466">
      <g transform="matrix(1, 0, 0, 1, 454, 5425)" filter="url(#長方形_2176)">
        <g id="長方形_2176-2" data-name="長方形 2176" transform="translate(16 17)" fill="#fff" stroke="#707070" stroke-width="0.2">
          <rect width="250" height="296" stroke="none"/>
          <rect x="0.1" y="0.1" width="249.8" height="295.8" fill="none"/>
        </g>
      </g>
      <g id="グループ_463" data-name="グループ 463" transform="translate(454 5425)">
        <ellipse id="楕円形_205" data-name="楕円形 205" cx="26" cy="27" rx="26" ry="27" transform="translate(0 0)" fill="#d2b600"/>
      </g>
      <text id="_2" data-name="2" transform="translate(480 5464)" fill="#fff" font-size="32" font-family="YuGo-Bold, YuGothic" font-weight="700" letter-spacing="0.12em"><tspan x="-9.168" y="0">2</tspan></text>
      <text id="持続可能な組織づくりの為の_ロードマップを提示" data-name="持続可能な組織づくりの為の
ロードマップを提示" transform="translate(595 5661)" font-size="16" font-family="YuGo-Bold, YuGothic" font-weight="700" letter-spacing="0.06em"><tspan x="-109.76" y="0">持続可能な組織づくりの為の</tspan><tspan x="-75.84" y="25">ロードマップを提示</tspan></text>
      <g transform="matrix(1, 0, 0, 1, 454, 5425)" filter="url(#長方形_2125)">
        <rect id="長方形_2125-2" data-name="長方形 2125" width="120" height="120" rx="60" transform="translate(81 67)" fill="#2f3f59"/>
      </g>
      <path id="パス_1823" data-name="パス 1823" d="M347.5,503.86" transform="translate(235.889 5045.718)" fill="none" stroke="#f2f2f2" stroke-miterlimit="10" stroke-width="2"/>
      <path id="パス_1824" data-name="パス 1824" d="M333.5,502.86" transform="translate(248.457 5046.597)" fill="none" stroke="#f2f2f2" stroke-miterlimit="10" stroke-width="2"/>
      <g id="グループ_465" data-name="グループ 465" transform="translate(4 9.002)">
        <ellipse id="楕円形_260" data-name="楕円形 260" cx="34.755" cy="1.718" rx="34.755" ry="1.718" transform="translate(557 5559.147)" fill="#c9c9c9"/>
        <path id="長方形_2158" data-name="長方形 2158" d="M3,0H50.311a3,3,0,0,1,3,3V36.818a0,0,0,0,1,0,0H0a0,0,0,0,1,0,0V3A3,3,0,0,1,3,0Z" transform="translate(565.632 5522.998)" fill="#f2f2f2"/>
        <g id="グループ_460" data-name="グループ 460" transform="translate(567.211 5528.412)">
          <rect id="長方形_2127" data-name="長方形 2127" width="4.85" height="0.951" transform="translate(3.934 10.26)" fill="#d2b600"/>
          <rect id="長方形_2128" data-name="長方形 2128" width="4.85" height="0.951" transform="translate(0 14.194)" fill="#d2b600"/>
          <rect id="長方形_2129" data-name="長方形 2129" width="2.441" height="0.951" transform="translate(9.006 21.323)" fill="#3f3d56"/>
          <rect id="長方形_2130" data-name="長方形 2130" width="2.441" height="0.951" transform="translate(17.406 21.323)" fill="#3f3d56"/>
          <rect id="長方形_2131" data-name="長方形 2131" width="2.441" height="0.951" transform="translate(21.813 21.323)" fill="#3f3d56"/>
          <rect id="長方形_2132" data-name="長方形 2132" width="2.441" height="0.951" transform="translate(19.594 28.551)" fill="#3f3d56"/>
          <rect id="長方形_2133" data-name="長方形 2133" width="2.441" height="0.951" transform="translate(28.406 28.551)" fill="#3f3d56"/>
          <rect id="長方形_2134" data-name="長方形 2134" width="2.441" height="0.951" transform="translate(26.219 21.323)" fill="#3f3d56"/>
          <rect id="長方形_2135" data-name="長方形 2135" width="2.441" height="0.951" transform="translate(30.625 21.323)" fill="#3f3d56"/>
          <path id="パス_1800" data-name="パス 1800" d="M524.168,207.366H495.194v-4.089h.063V207.3h28.911Z" transform="translate(-488.883 -191.178)" fill="#3f3d56"/>
          <path id="パス_1801" data-name="パス 1801" d="M637.334,273.921H618.589v-7.327h.063v7.263h18.682Z" transform="translate(-604.347 -250.426)" fill="#3f3d56"/>
          <rect id="長方形_2136" data-name="長方形 2136" width="0.063" height="4.085" transform="translate(10.194 16.172)" fill="#3f3d56"/>
          <rect id="長方形_2137" data-name="長方形 2137" width="0.063" height="4.085" transform="translate(18.595 16.172)" fill="#3f3d56"/>
          <rect id="長方形_2138" data-name="長方形 2138" width="0.063" height="4.085" transform="translate(23.001 16.172)" fill="#3f3d56"/>
          <rect id="長方形_2139" data-name="長方形 2139" width="0.063" height="4.085" transform="translate(27.408 16.172)" fill="#3f3d56"/>
          <rect id="長方形_2140" data-name="長方形 2140" width="0.063" height="4.085" transform="translate(31.814 16.172)" fill="#3f3d56"/>
          <rect id="長方形_2141" data-name="長方形 2141" width="0.063" height="4.085" transform="translate(20.782 23.463)" fill="#3f3d56"/>
          <rect id="長方形_2142" data-name="長方形 2142" width="0.063" height="4.085" transform="translate(29.595 23.463)" fill="#3f3d56"/>
          <rect id="長方形_2143" data-name="長方形 2143" width="4.85" height="0.951" transform="translate(3.934 18.291)" fill="#d2b600"/>
          <rect id="長方形_2144" data-name="長方形 2144" width="2.441" height="0.951" transform="translate(9.006 7.228)" fill="#3f3d56"/>
          <rect id="長方形_2145" data-name="長方形 2145" width="2.441" height="0.951" transform="translate(17.406 7.228)" fill="#3f3d56"/>
          <rect id="長方形_2146" data-name="長方形 2146" width="2.441" height="0.951" transform="translate(21.813 7.228)" fill="#3f3d56"/>
          <rect id="長方形_2147" data-name="長方形 2147" width="2.441" height="0.951" transform="translate(19.594)" fill="#3f3d56"/>
          <rect id="長方形_2148" data-name="長方形 2148" width="2.441" height="0.951" transform="translate(28.406)" fill="#3f3d56"/>
          <rect id="長方形_2149" data-name="長方形 2149" width="2.441" height="0.951" transform="translate(26.219 7.228)" fill="#3f3d56"/>
          <rect id="長方形_2150" data-name="長方形 2150" width="2.441" height="0.951" transform="translate(30.625 7.228)" fill="#3f3d56"/>
          <path id="パス_1802" data-name="パス 1802" d="M524.168,222.191H495.194v4.089h.063v-4.026h28.911Z" transform="translate(-488.883 -208.877)" fill="#3f3d56"/>
          <path id="パス_1803" data-name="パス 1803" d="M637.334,108.5H618.589v7.327h.063v-7.263h18.682Z" transform="translate(-604.347 -102.496)" fill="#3f3d56"/>
          <rect id="長方形_2151" data-name="長方形 2151" width="0.063" height="4.085" transform="translate(10.194 9.245)" fill="#3f3d56"/>
          <rect id="長方形_2152" data-name="長方形 2152" width="0.063" height="4.085" transform="translate(18.595 9.245)" fill="#3f3d56"/>
          <rect id="長方形_2153" data-name="長方形 2153" width="0.063" height="4.085" transform="translate(23.001 9.245)" fill="#3f3d56"/>
          <rect id="長方形_2154" data-name="長方形 2154" width="0.063" height="4.085" transform="translate(27.408 9.245)" fill="#3f3d56"/>
          <rect id="長方形_2155" data-name="長方形 2155" width="0.063" height="4.085" transform="translate(31.814 9.245)" fill="#3f3d56"/>
          <rect id="長方形_2156" data-name="長方形 2156" width="0.063" height="4.085" transform="translate(20.782 1.954)" fill="#3f3d56"/>
          <rect id="長方形_2157" data-name="長方形 2157" width="0.063" height="4.085" transform="translate(29.595 1.954)" fill="#3f3d56"/>
        </g>
        <path id="パス_1822" data-name="パス 1822" d="M236.311,286.031v.947H183v-.947a1.522,1.522,0,0,1,1.305-1.671h50.7A1.522,1.522,0,0,1,236.311,286.031Z" transform="translate(382.632 5238.638)" fill="#c9c9c9"/>
        <circle id="楕円形_261" data-name="楕円形 261" cx="0.491" cy="0.491" r="0.491" transform="translate(566.9 5523.857)" fill="#d2b600"/>
        <circle id="楕円形_262" data-name="楕円形 262" cx="0.491" cy="0.491" r="0.491" transform="translate(568.127 5523.857)" fill="#d2b600"/>
        <circle id="楕円形_263" data-name="楕円形 263" cx="0.491" cy="0.491" r="0.491" transform="translate(569.354 5523.857)" fill="#d2b600"/>
        <rect id="長方形_2160" data-name="長方形 2160" width="7.854" height="6.382" rx="1" transform="translate(605.159 5540.834)" fill="#d2b600" opacity="0.511"/>
        <rect id="長方形_2163" data-name="長方形 2163" width="7.854" height="6.382" rx="1" transform="translate(605.159 5530.034)" fill="#d2b600"/>
        <rect id="長方形_2172" data-name="長方形 2172" width="7.854" height="6.382" rx="1" transform="translate(604.819 5551.225)" fill="#d2b600" opacity="0.196"/>
        <path id="パス_1825" data-name="パス 1825" d="M481.7,349.6l-.414-.416a.219.219,0,0,0-.312,0l-2.6,2.576-1.1-1.108a.218.218,0,0,0-.309,0l-.418.413a.223.223,0,0,0,0,.313l1.668,1.681a.223.223,0,0,0,.313,0l3.17-3.147a.219.219,0,0,0,0-.313Z" transform="translate(132.707 5190.063)" fill="#3acc6c"/>
        <path id="パス_1826" data-name="パス 1826" d="M821.7,349.6l-.414-.416a.219.219,0,0,0-.312,0l-2.6,2.576-1.1-1.108a.218.218,0,0,0-.309,0l-.418.413a.223.223,0,0,0,0,.313l1.668,1.681a.223.223,0,0,0,.313,0l3.17-3.147a.219.219,0,0,0,0-.313Z" transform="translate(-207.02 5179.263)" fill="#3acc6c"/>
        <path id="パス_1828" data-name="パス 1828" d="M704.7,615.6l-.414-.417a.219.219,0,0,0-.312,0l-2.6,2.576-1.1-1.108a.218.218,0,0,0-.309,0l-.418.409a.223.223,0,0,0,0,.313l1.668,1.681a.223.223,0,0,0,.313,0l3.17-3.147A.219.219,0,0,0,704.7,615.6Z" transform="translate(-90.703 4934.781)" fill="#3acc6c"/>
      </g>
      <path id="パス_1858" data-name="パス 1858" d="M911.175,601.24a7.455,7.455,0,0,0-1,.586.814.814,0,0,0-.132.108,1,1,0,0,0-.081.107,2,2,0,0,0-.341.681" transform="translate(-268.898 4960.129)" fill="none" stroke="#000" stroke-miterlimit="10" stroke-width="1" opacity="0.1"/>
    </g>
  </g>
</svg>
