<svg xmlns="http://www.w3.org/2000/svg" xmlns:xlink="http://www.w3.org/1999/xlink" width="278" height="325" viewBox="0 0 278 325">
  <defs>
    <filter id="長方形_2173" x="10" y="11" width="268" height="314" filterUnits="userSpaceOnUse">
      <feOffset dx="3" dy="3" input="SourceAlpha"/>
      <feGaussianBlur stdDeviation="3" result="blur"/>
      <feFlood flood-opacity="0.161"/>
      <feComposite operator="in" in2="blur"/>
      <feComposite in="SourceGraphic"/>
    </filter>
    <filter id="長方形_2124" x="69" y="66" width="138" height="138" filterUnits="userSpaceOnUse">
      <feOffset dy="3" input="SourceAlpha"/>
      <feGaussianBlur stdDeviation="3" result="blur-2"/>
      <feFlood flood-opacity="0.161"/>
      <feComposite operator="in" in2="blur-2"/>
      <feComposite in="SourceGraphic"/>
    </filter>
    <linearGradient id="linear-gradient" x1="3.891" y1="1.236" x2="3.891" y2="0.236" gradientUnits="objectBoundingBox">
      <stop offset="0" stop-color="gray" stop-opacity="0.251"/>
      <stop offset="0.54" stop-color="gray" stop-opacity="0.122"/>
      <stop offset="1" stop-color="gray" stop-opacity="0.102"/>
    </linearGradient>
    <linearGradient id="linear-gradient-2" x1="0.5" y1="1" x2="0.5" y2="0" xlink:href="#linear-gradient"/>
  </defs>
  <g id="グループ_470" data-name="グループ 470" transform="translate(-86 -5425)">
    <g id="グループ_469" data-name="グループ 469">
      <g transform="matrix(1, 0, 0, 1, 86, 5425)" filter="url(#長方形_2173)">
        <g id="長方形_2173-2" data-name="長方形 2173" transform="translate(16 17)" fill="#fff" stroke="#707070" stroke-width="0.2">
          <rect width="250" height="296" stroke="none"/>
          <rect x="0.1" y="0.1" width="249.8" height="295.8" fill="none"/>
        </g>
      </g>
      <g transform="matrix(1, 0, 0, 1, 86, 5425)" filter="url(#長方形_2124)">
        <rect id="長方形_2124-2" data-name="長方形 2124" width="120" height="120" rx="60" transform="translate(78 72)" fill="#2f3f59"/>
      </g>
      <path id="パス_1793" data-name="パス 1793" d="M0,0H43.93V31.833H16l-3.018,5.423L9.81,31.833H0Z" transform="translate(192.821 5536.098)" fill="url(#linear-gradient)"/>
      <path id="パス_1794" data-name="パス 1794" d="M7.57,8.33H50.246V39.1h-27.7L19.982,44.63,17.1,39.1H7.57Z" transform="translate(185.807 5528.379)" fill="#f5f5f5"/>
      <rect id="長方形_2117" data-name="長方形 2117" width="31.794" height="1.36" transform="translate(230.57 5547.293) rotate(180)" fill="#d2b600" opacity="0.701"/>
      <rect id="長方形_2118" data-name="長方形 2118" width="31.794" height="1.36" transform="translate(230.57 5550.269) rotate(180)" fill="#d2b600" opacity="0.695"/>
      <rect id="長方形_2119" data-name="長方形 2119" width="31.794" height="1.36" transform="translate(230.57 5553.244) rotate(180)" fill="#d2b600" opacity="0.695"/>
      <rect id="長方形_2120" data-name="長方形 2120" width="31.794" height="1.36" transform="translate(230.57 5556.219) rotate(180)" fill="#d2b600" opacity="0.695"/>
      <path id="パス_1795" data-name="パス 1795" d="M336.416,150H293v31.771l28.015-.015,2.64,5.427,3.065-5.412h9.7Z" transform="translate(-78.69 5397.099)" fill="url(#linear-gradient-2)"/>
      <path id="パス_1796" data-name="パス 1796" d="M341.2,156.7H298.52v30.774h27.7L328.785,193l2.882-5.526h9.53Z" transform="translate(-83.806 5390.89)" fill="#fff"/>
      <circle id="楕円形_253" data-name="楕円形 253" cx="3.103" cy="3.103" r="3.103" transform="translate(225.214 5559.875)" fill="url(#linear-gradient-2)"/>
      <circle id="楕円形_254" data-name="楕円形 254" cx="3.103" cy="3.103" r="3.103" transform="translate(232.95 5559.875)" fill="url(#linear-gradient-2)"/>
      <circle id="楕円形_255" data-name="楕円形 255" cx="3.103" cy="3.103" r="3.103" transform="translate(240.686 5559.875)" fill="url(#linear-gradient-2)"/>
      <circle id="楕円形_256" data-name="楕円形 256" cx="2.805" cy="2.805" r="2.805" transform="translate(225.511 5560.172)" fill="#d2b600"/>
      <circle id="楕円形_257" data-name="楕円形 257" cx="2.805" cy="2.805" r="2.805" transform="translate(233.248 5560.172)" fill="#d2b600" opacity="0.6"/>
      <circle id="楕円形_258" data-name="楕円形 258" cx="2.805" cy="2.805" r="2.805" transform="translate(240.984 5560.172)" fill="#d2b600" opacity="0.3"/>
      <text id="導入直後に_課題のヒアリング_" data-name="導入直後に
課題のヒアリング
" transform="translate(227 5662)" font-size="16" font-family="YuGo-Bold, YuGothic" font-weight="700" letter-spacing="0.06em"><tspan x="-41.92" y="0">導入直後に</tspan><tspan x="-67.36" y="23">課題のヒアリング</tspan><tspan x="0" y="46"></tspan></text>
      <g id="グループ_462" data-name="グループ 462" transform="translate(86 5425)">
        <ellipse id="楕円形_205" data-name="楕円形 205" cx="26" cy="27" rx="26" ry="27" transform="translate(0 0)" fill="#d2b600"/>
      </g>
      <text id="_1" data-name="1" transform="translate(112 5464)" fill="#fff" font-size="32" font-family="YuGo-Bold, YuGothic" font-weight="700" letter-spacing="0.12em"><tspan x="-9.168" y="0">1</tspan></text>
    </g>
  </g>
</svg>
