<svg xmlns="http://www.w3.org/2000/svg" xmlns:xlink="http://www.w3.org/1999/xlink" width="219" height="255" viewBox="0 0 219 255">
  <defs>
    <filter id="長方形_2176" x="7" y="7" width="212" height="248" filterUnits="userSpaceOnUse">
      <feOffset dx="3" dy="3" input="SourceAlpha"/>
      <feGaussianBlur stdDeviation="3" result="blur"/>
      <feFlood flood-opacity="0.161"/>
      <feComposite operator="in" in2="blur"/>
      <feComposite in="SourceGraphic"/>
    </filter>
    <filter id="長方形_2125" x="54" y="46" width="111" height="111" filterUnits="userSpaceOnUse">
      <feOffset dy="3" input="SourceAlpha"/>
      <feGaussianBlur stdDeviation="3" result="blur-2"/>
      <feFlood flood-opacity="0.161"/>
      <feComposite operator="in" in2="blur-2"/>
      <feComposite in="SourceGraphic"/>
    </filter>
  </defs>
  <g id="グループ_492" data-name="グループ 492" transform="translate(-921 -6132)">
    <g transform="matrix(1, 0, 0, 1, 921, 6132)" filter="url(#長方形_2176)">
      <g id="長方形_2176-2" data-name="長方形 2176" transform="translate(13 13)" fill="#fff" stroke="#707070" stroke-width="0.2">
        <rect width="194" height="230" stroke="none"/>
        <rect x="0.1" y="0.1" width="193.8" height="229.8" fill="none"/>
      </g>
    </g>
    <g transform="matrix(1, 0, 0, 1, 921, 6132)" filter="url(#長方形_2125)">
      <rect id="長方形_2125-2" data-name="長方形 2125" width="93" height="93" rx="46.5" transform="translate(63 52)" fill="#2f3f59"/>
    </g>
    <g id="グループ_463" data-name="グループ 463" transform="translate(921.237 6132)">
      <ellipse id="楕円形_205" data-name="楕円形 205" cx="20.5" cy="21" rx="20.5" ry="21" transform="translate(-0.237)" fill="#d2b600"/>
    </g>
    <path id="パス_1946" data-name="パス 1946" d="M3.4-16.852H-.077L-5.533-5.7v1.936h6.4V.044H3.4V-3.762h2.09V-5.83H3.4ZM.869-5.83H-3.245l2.068-4.444c.682-1.474,1.32-2.948,1.87-4.4H1C.935-12.98.869-11.308.869-9.526Z" transform="translate(940 6161)" fill="#fff"/>
    <path id="パス_1942" data-name="パス 1942" d="M-61.765-2.387h-3.773c-.869,0-1.507-.022-2.024-.055A10.429,10.429,0,0,0-67.507-1.3c.011.121.055.165.154.165.528-.011,1.111-.044,1.8-.044h3.784v.44c0,.165.033.176.209.187a7.107,7.107,0,0,0,.968,0c.154-.011.2-.044.2-.154-.011-.308-.044-1.188-.044-1.991V-5.324c0-.583.022-1.155.022-1.738.011-.143-.044-.187-.22-.187-.583.022-1.166.044-1.738.044h-3.267a15.736,15.736,0,0,1-1.837-.077c0,.363.022.88.055,1.177,0,.132.044.187.165.187a15.139,15.139,0,0,1,1.65-.066h3.839Zm5.489-4.466A11.644,11.644,0,0,1-54.032-5.06c.055.055.1.088.143.088s.077-.033.132-.088c.154-.165.517-.605.682-.825a.237.237,0,0,0,.066-.143c0-.044-.033-.088-.1-.154a11.47,11.47,0,0,0-2.1-1.562.293.293,0,0,0-.143-.055.206.206,0,0,0-.154.088C-55.715-7.491-56.034-7.15-56.276-6.853Zm.242,5.489a7.622,7.622,0,0,0,.88,1.221.285.285,0,0,0,.187.121.3.3,0,0,0,.2-.11,3.8,3.8,0,0,1,.737-.506A23.651,23.651,0,0,0-50.71-2.794a17.98,17.98,0,0,0,2.53-2.332c.121-.143.176-.231.176-.33a.538.538,0,0,0-.055-.209,4.91,4.91,0,0,1-.308-1.287A16.526,16.526,0,0,1-51.381-3.96a16.3,16.3,0,0,1-3.168,2.046A6.627,6.627,0,0,1-56.034-1.364ZM-38.1-6.215V-7.26a3.029,3.029,0,0,1,.088-.968.589.589,0,0,0,.044-.2c0-.088-.044-.143-.2-.176a10.224,10.224,0,0,0-1.287-.187,7.312,7.312,0,0,1,.1,1.507L-39.369-6.2h-2.365v-.8a2.756,2.756,0,0,1,.077-1.056.747.747,0,0,0,.066-.231c0-.077-.044-.132-.165-.154A10.679,10.679,0,0,0-43.1-8.624a7.645,7.645,0,0,1,.132,1.617v.8h-.33c-.847,0-1.562-.022-2.024-.055a9.87,9.87,0,0,0,.077,1.067c.011.143.044.209.132.209.341-.022,1.221-.055,1.815-.055h.33v.418c0,.693-.022,1.232-.055,1.8-.011.121.055.143.2.154a6.787,6.787,0,0,0,.946,0c.121-.011.2-.033.187-.154-.033-.583-.033-1.177-.033-1.826v-.4h2.343a5.323,5.323,0,0,1-.649,2.805A4.776,4.776,0,0,1-43-.286a2.539,2.539,0,0,1,.913.66c.088.088.143.121.209.121a.923.923,0,0,0,.308-.1,5.182,5.182,0,0,0,2.6-2.046,6.542,6.542,0,0,0,.847-3.388h.451c.539,0,1.21.011,1.584.011.154.011.176-.033.187-.176a5.729,5.729,0,0,0,0-.869c-.011-.121-.022-.187-.154-.176-.506.022-1.122.033-1.661.033Zm9.856.22a3.044,3.044,0,0,1,.1-1.221.7.7,0,0,0,.088-.275c0-.088-.055-.154-.2-.187a10.5,10.5,0,0,0-1.375-.231A8.783,8.783,0,0,1-29.524-6v3.443c0,.561.011.693-.066.836a.338.338,0,0,0-.044.165.439.439,0,0,0,.1.231,3.176,3.176,0,0,0,.66.671.469.469,0,0,0,.231.088.349.349,0,0,0,.22-.088,3.653,3.653,0,0,1,.319-.231A18.267,18.267,0,0,0-26.147-2.2a13.9,13.9,0,0,0,1.628-1.441c.121-.121.165-.2.165-.275A.548.548,0,0,0-24.42-4.1a3.171,3.171,0,0,1-.341-1.111,10.556,10.556,0,0,1-1.925,1.87,11.183,11.183,0,0,1-1.562,1.023Zm-3.839-1.221a2.959,2.959,0,0,1,.11.924,7.167,7.167,0,0,1-.462,3.113A5.461,5.461,0,0,1-34.265-.99a3.9,3.9,0,0,1,.935.462.374.374,0,0,0,.209.088.5.5,0,0,0,.286-.143,5.667,5.667,0,0,0,1.562-2.068,8.233,8.233,0,0,0,.594-3.234,1.587,1.587,0,0,1,.132-.748c.066-.154.044-.286-.143-.341A8.893,8.893,0,0,0-32.087-7.216Zm14.509-.055c.187-.286.253-.4.341-.55a.919.919,0,0,1,.231-.231.3.3,0,0,0,.132-.22A.193.193,0,0,0-17-8.448a6.927,6.927,0,0,0-1.287-.539,4.058,4.058,0,0,1-.594,1.353A12.272,12.272,0,0,1-21.989-4.18a4.583,4.583,0,0,1,.924.506.252.252,0,0,0,.176.077.394.394,0,0,0,.22-.1,13.283,13.283,0,0,0,2.354-2.475l2.728-.055a10.6,10.6,0,0,1-1.287,2.178,11.029,11.029,0,0,0-1.419-.88.286.286,0,0,0-.11-.044.208.208,0,0,0-.143.077c-.253.231-.484.517-.726.781A9.2,9.2,0,0,1-17.688-3.08,13.339,13.339,0,0,1-21.736-.1a3.125,3.125,0,0,1,1.045.561.33.33,0,0,0,.209.1.6.6,0,0,0,.275-.1A13.405,13.405,0,0,0-16.7-2.288a12.191,12.191,0,0,1,1.067,1.067.191.191,0,0,0,.121.066.229.229,0,0,0,.132-.055A6.761,6.761,0,0,0-14.7-1.9a.213.213,0,0,0,.066-.143A.217.217,0,0,0-14.7-2.2a9.779,9.779,0,0,0-1.188-1.111,17.169,17.169,0,0,0,1.617-2.662,1.38,1.38,0,0,1,.33-.418.282.282,0,0,0,.121-.209.269.269,0,0,0-.088-.2,3.564,3.564,0,0,0-.748-.671.379.379,0,0,0-.2-.088.322.322,0,0,0-.187.077,1.076,1.076,0,0,1-.6.165Zm7.5.418A11.644,11.644,0,0,1-7.832-5.06c.055.055.1.088.143.088s.077-.033.132-.088c.154-.165.517-.605.682-.825a.237.237,0,0,0,.066-.143c0-.044-.033-.088-.1-.154a11.47,11.47,0,0,0-2.1-1.562A.293.293,0,0,0-9.152-7.8a.206.206,0,0,0-.154.088C-9.515-7.491-9.834-7.15-10.076-6.853Zm.242,5.489a7.622,7.622,0,0,0,.88,1.221.285.285,0,0,0,.187.121.3.3,0,0,0,.2-.11,3.8,3.8,0,0,1,.737-.506A23.651,23.651,0,0,0-4.51-2.794,17.98,17.98,0,0,0-1.98-5.126c.121-.143.176-.231.176-.33a.538.538,0,0,0-.055-.209,4.91,4.91,0,0,1-.308-1.287A16.526,16.526,0,0,1-5.181-3.96,16.3,16.3,0,0,1-8.349-1.914,6.627,6.627,0,0,1-9.834-1.364ZM5.247-7.227a2.865,2.865,0,0,1,.077-1.034.579.579,0,0,0,.088-.253c0-.088-.055-.154-.209-.187a8.119,8.119,0,0,0-1.375-.176,8.393,8.393,0,0,1,.11,1.628v5.412c0,.7-.011,1.353-.044,2.167,0,.132.055.165.209.165a7.269,7.269,0,0,0,.979,0c.154,0,.209-.033.2-.165-.022-.792-.044-1.441-.044-2.156V-4.257A12.183,12.183,0,0,1,8.129-2.849a.169.169,0,0,0,.121.055c.055,0,.1-.044.143-.121a6.465,6.465,0,0,0,.473-.957c.055-.143,0-.22-.121-.286a15.516,15.516,0,0,0-3.5-1.5Zm14.454-.7a5.458,5.458,0,0,1,1.111,1.276A.115.115,0,0,0,21-6.622l.462-.341a.111.111,0,0,0,.033-.176,5.063,5.063,0,0,0-1.045-1.177c-.066-.055-.11-.066-.165-.022Zm1.012-.726a5.2,5.2,0,0,1,1.1,1.265A.113.113,0,0,0,22-7.359l.44-.341a.127.127,0,0,0,.033-.2,4.594,4.594,0,0,0-1.045-1.133c-.066-.055-.1-.066-.165-.022ZM15.3-6.149c-.429.066-.836.121-1.3.165-.484.044-.968.077-1.452.077a10.05,10.05,0,0,0,.341,1.133.241.241,0,0,0,.352.143,3.232,3.232,0,0,1,.605-.176c.3-.055.649-.121,1.078-.187A23.2,23.2,0,0,1,12.914-.682a.2.2,0,0,0-.044.121.226.226,0,0,0,.088.165,5,5,0,0,0,.759.484A.18.18,0,0,0,14-.011a30.379,30.379,0,0,0,2.211-5.17,7.286,7.286,0,0,1,.924-.077c.484,0,.627.242.627,1.012a8.5,8.5,0,0,1-.429,2.739c-.176.451-.341.583-.7.583a2.927,2.927,0,0,1-1.265-.286,3.143,3.143,0,0,1,.209,1.023.294.294,0,0,0,.2.308,2.915,2.915,0,0,0,1.144.165A1.575,1.575,0,0,0,18.4-.748,9.372,9.372,0,0,0,19-4.191c0-1.408-.55-2.123-1.573-2.123a8.406,8.406,0,0,0-.88.044c.143-.462.253-.869.4-1.32a1.392,1.392,0,0,1,.22-.418.229.229,0,0,0,.077-.165.232.232,0,0,0-.176-.22,8.051,8.051,0,0,0-1.32-.363,7.487,7.487,0,0,1-.11,1.221C15.554-7.161,15.477-6.776,15.3-6.149Zm3.8-.088a7.446,7.446,0,0,1,1.8,2.849c.033.132.143.143.253.088a4.489,4.489,0,0,0,.825-.55.157.157,0,0,0,.044-.22A7.362,7.362,0,0,0,20.2-6.743c-.077-.077-.132-.1-.209-.055A9.328,9.328,0,0,0,19.1-6.237Zm10.142-.979c.847,0,1.122.022,1.188.022.11,0,.121-.011.121-.121v-.693c0-.11-.011-.121-.121-.121-.066,0-.341.022-1.188.022h-.264v-.2a1.218,1.218,0,0,1,.055-.451.469.469,0,0,0,.066-.2c0-.055-.066-.11-.176-.121a9.47,9.47,0,0,0-1.045-.077,3.828,3.828,0,0,1,.077.88v.165H27.72c-.847,0-1.122-.022-1.188-.022a.244.244,0,0,0-.1.011,1.434,1.434,0,0,1,.22-.165.172.172,0,0,0,.121-.154c0-.077-.055-.121-.143-.2A5.144,5.144,0,0,0,25.85-9.2a3.29,3.29,0,0,1-.319.517,7.356,7.356,0,0,1-1.815,1.65,2.226,2.226,0,0,1,.407.715c.066.165.11.253.187.253a.478.478,0,0,0,.242-.132,9.729,9.729,0,0,0,1.771-1.793l.1-.121a.273.273,0,0,0-.011.1v.693c0,.11.011.121.121.121.055,0,.3-.011.946-.022a8.628,8.628,0,0,1-.451,1.21C26.917-6,26.8-6,26.664-6L26.6-6.061a5.275,5.275,0,0,0-.77-.539,4.938,4.938,0,0,1-.286.594,7.722,7.722,0,0,1-1.848,2.112,2.713,2.713,0,0,1,.319.792c.044.154.077.22.132.22s.121-.044.231-.143c.165-.143.33-.3.484-.451-.011.418-.022.891-.022,1.243V-.616c0,.88-.022,1.3-.022,1.353,0,.11.011.121.121.121h.869c.11,0,.121-.011.121-.121,0-.055-.022-.473-.022-1.353V-4.664c.165-.231.319-.451.451-.671l.121-.187c.044.143.077.3.132.451.033.11.066.165.143.165a.313.313,0,0,0,.154-.066,1.052,1.052,0,0,1,.418-.11c.759-.088,1.441-.187,2.156-.308l.088.242c.044.11.066.132.209.066l.363-.154c-.077.143-.154.286-.242.429a2.234,2.234,0,0,1,.484.55c.088.132.132.2.187.2s.1-.077.176-.209a.386.386,0,0,1,.055-.088,10.275,10.275,0,0,0,.715,2.288A6.516,6.516,0,0,1,30.1-.363V-.484c0-.352-.022-.946-.022-1.452V-3.179c0-.836.022-1.265.022-1.331,0-.11-.011-.121-.121-.121-.077,0-.3.022-1,.022H27.929c-.7,0-.924-.022-1-.022-.11,0-.121.011-.121.121,0,.066.022.44.022,1.243V-.55c0,.814-.022,1.155-.022,1.221,0,.11.011.121.121.121h.759c.11,0,.121-.011.121-.121,0-.066-.022-.44-.022-1.243v-.594h1.342V-.55c0,.231-.055.308-.253.308a4.9,4.9,0,0,1-.55-.033,2.551,2.551,0,0,1,.209.638c.044.3.044.3.385.3a1.268,1.268,0,0,0,.913-.242.739.739,0,0,0,.209-.33,4.33,4.33,0,0,1,.286.44c.088.165.143.242.209.242s.121-.055.209-.143A8.714,8.714,0,0,0,32.087-1,9.11,9.11,0,0,0,33.407.605c.1.088.165.132.22.132s.11-.066.165-.22a3.371,3.371,0,0,1,.429-.869,7.092,7.092,0,0,1-1.562-1.716,11.363,11.363,0,0,0,.814-4.07c.286,0,.407.011.451.011.11,0,.121-.011.121-.121V-7.04c0-.11-.011-.121-.121-.121-.066,0-.308.022-1.122.022h-.869c.088-.319.176-.627.253-.946a1.558,1.558,0,0,1,.165-.517.417.417,0,0,0,.11-.22c0-.066-.077-.121-.2-.154a6.7,6.7,0,0,0-.979-.2,5.95,5.95,0,0,1-.132,1.012,10.5,10.5,0,0,1-.792,2.5,10.1,10.1,0,0,0-.627-1.243C29.678-7,29.656-7,29.546-6.963l-.517.176c-.121.044-.154.088-.088.2.066.132.143.264.209.407-.385.044-.748.088-1.078.11a9.912,9.912,0,0,0,.44-1.144Zm3.267,1.067a10.738,10.738,0,0,1-.462,2.871,11.283,11.283,0,0,1-.627-2.387c.066-.154.132-.319.187-.484ZM27.786-1.936v-.55h1.342v.55Zm1.342-1.848v.528H27.786v-.528Zm10.527.319,2.079-.055a9.31,9.31,0,0,0,.385,1.32c.561,1.485,1.287,2.134,2.09,2.134.616,0,1.023-.352,1.254-1.485.066-.341.066-.341-.231-.517A2.3,2.3,0,0,1,44.7-2.5c-.11.858-.22,1.243-.528,1.243-.286,0-.682-.352-1.023-1.254a8.34,8.34,0,0,1-.341-1.045l.77-.022c.968-.033,1.32-.033,1.43-.033s.132-.011.132-.121l-.033-.693c0-.121-.011-.132-.121-.132s-.462.044-1.43.066l-.924.033a12.787,12.787,0,0,1-.154-1.3c.451-.077.891-.176,1.309-.275a2.7,2.7,0,0,1,.55-.088c.11,0,.176-.066.176-.121,0-.077-.033-.121-.121-.209a4.007,4.007,0,0,0-.792-.638,3.5,3.5,0,0,1-.8.319,19.278,19.278,0,0,1-3.278.528,8.473,8.473,0,0,0-1-.275,14.933,14.933,0,0,1,.066,1.7V-1.87h-.066a4.4,4.4,0,0,1-.814.077,7.259,7.259,0,0,0,.176.946c.022.1.055.154.121.154a.278.278,0,0,0,.165-.066,1.563,1.563,0,0,1,.363-.1C39.3-.99,40.3-1.21,41.162-1.43c.341-.088.341-.077.363-.407a3.589,3.589,0,0,1,.088-.627c-.539.143-1.265.3-1.958.418Zm0-.9v-1c.583-.044,1.177-.121,1.771-.209q.05.611.132,1.155ZM37.6-7.172h6.171c1.034,0,1.4.022,1.463.022.11,0,.121-.011.121-.121v-.792c0-.1-.011-.11-.121-.11-.066,0-.429.022-1.463.022H41.437v-.242a1.116,1.116,0,0,1,.077-.473.514.514,0,0,0,.066-.209c0-.055-.066-.1-.176-.11-.374-.033-.759-.055-1.166-.066a4.519,4.519,0,0,1,.066.891v.209H38.038c-1.045,0-1.408-.022-1.474-.022-.11,0-.121.011-.121.11,0,.066.022.726.022,2.189a20.927,20.927,0,0,1-.176,3.245,6.068,6.068,0,0,1-.847,2.453,3.039,3.039,0,0,1,.737.638c.1.121.165.176.22.176s.1-.066.176-.209a8.306,8.306,0,0,0,.836-2.618A23.322,23.322,0,0,0,37.6-5.7ZM41.7.561c.946,0,1.265.022,1.331.022.11,0,.121-.011.121-.121v-.8c0-.11-.011-.121-.121-.121-.066,0-.385.022-1.331.022H39.567c-.946,0-1.265-.022-1.331-.022-.11,0-.121.011-.121.121v.8c0,.11.011.121.121.121.066,0,.385-.022,1.331-.022Zm8.118-8.008c.132-.341.253-.715.374-1.045a.61.61,0,0,1,.154-.242c.077-.066.1-.1.1-.176s-.055-.121-.154-.143c-.33-.066-.737-.132-1.133-.176a4.783,4.783,0,0,1-.088.627,11.136,11.136,0,0,1-.341,1.155c-.638,0-.869-.022-.935-.022-.11,0-.121.011-.121.121,0,.077.022.605.022,2.519v1.9c0,2.673-.022,3.19-.022,3.256,0,.121.011.132.121.132h.836c.121,0,.132-.011.132-.132V-.506h1.573V.022c0,.11.011.121.121.121H51.3c.11,0,.121-.011.121-.121,0-.066-.022-.55-.022-3.113V-5.368a3.715,3.715,0,0,1,.385.341c.121.132.176.2.231.2s.121-.066.231-.2A10.479,10.479,0,0,0,53.185-6.4H55.8a32.827,32.827,0,0,1-.275,5.181c-.11.583-.3.946-.693.946a7.628,7.628,0,0,1-1.408-.11,4,4,0,0,1,.319.847c.077.352.077.352.4.374.286.022.594.011.836.011C56.012.825,56.463.3,56.639-.825A36.291,36.291,0,0,0,56.958-6.4c0-.308,0-.605.022-.913,0-.11-.022-.132-.132-.132-.066,0-.319.022-1.111.022H53.68c.088-.2.176-.4.253-.605a1.437,1.437,0,0,1,.3-.561c.1-.1.11-.132.11-.22s-.088-.132-.231-.176a7.92,7.92,0,0,0-1.089-.264,5.573,5.573,0,0,1-.209.935A8.032,8.032,0,0,1,51.4-5.83c0-1.078.022-1.463.022-1.518,0-.11-.011-.121-.121-.121-.077,0-.33.022-1.111.022ZM48.763-1.5V-3.531h1.573V-1.5Zm1.573-4.972v1.947H48.763V-6.468Zm2.255,1.925c-.132.088-.143.11-.077.2A9.657,9.657,0,0,1,53.8-2.222c.022.066.044.1.077.1s.055-.022.11-.066l.682-.473c.132-.088.143-.121.088-.231A9.23,9.23,0,0,0,53.4-4.928c-.044-.044-.066-.066-.088-.066a.275.275,0,0,0-.121.055Zm7.843-3.839a8.875,8.875,0,0,1-.2,1.639,21,21,0,0,0-.374,3.608A10.312,10.312,0,0,0,60.368.143c.022.077.066.132.143.121a5.46,5.46,0,0,0,.9-.176c.1-.022.143-.066.143-.143s-.022-.176-.022-.308A1.249,1.249,0,0,1,61.567-.7a10.753,10.753,0,0,1,.627-1.661.3.3,0,0,0,.055-.176.438.438,0,0,0-.077-.165,2.856,2.856,0,0,1-.385-.693c-.319.77-.517,1.133-.748,1.639a10.607,10.607,0,0,1-.066-1.287A17.824,17.824,0,0,1,61.435-6.6a2.6,2.6,0,0,1,.264-.781c.143-.22.165-.253.165-.33,0-.1-.066-.165-.253-.264A4.868,4.868,0,0,0,60.434-8.382Zm2.53,5.676a2.424,2.424,0,0,0,.385,1.43c.473.649,1.232.913,2.86.913A14.769,14.769,0,0,0,68-.484c.187-.022.187-.033.187-.165a8.149,8.149,0,0,0-.066-.946c-.022-.143-.044-.154-.154-.143a15.768,15.768,0,0,1-2.1.143c-1.2,0-1.727-.275-1.793-1.034,0-.121-.022-.176-.11-.165Zm.352-3.124a13.448,13.448,0,0,1,2.5-.253c.561,0,1.133.022,1.793.066.1.011.132-.033.143-.132.022-.308.022-.605.022-.935,0-.11-.022-.132-.253-.143-.462-.044-.968-.066-1.628-.066a17.563,17.563,0,0,0-2.387.2c-.11.022-.143.055-.154.187C63.327-6.721,63.327-6.446,63.316-5.83ZM-77.539,10.037c-.759,0-1.65,0-2.4-.077a10.132,10.132,0,0,0,.132,1.177c.022.132.055.2.2.2.594-.055,1.408-.077,2.046-.077l4.631-.022a24.655,24.655,0,0,1-2.541,2.6A17.185,17.185,0,0,0-77.033,12.6a.331.331,0,0,0-.154-.077.232.232,0,0,0-.121.055c-.2.176-.572.528-.792.737a16.489,16.489,0,0,1,3.531,3.421q.066.1.132.1a.293.293,0,0,0,.143-.055,8.085,8.085,0,0,0,.715-.649.265.265,0,0,0,.1-.176.249.249,0,0,0-.077-.165,11.721,11.721,0,0,0-.968-1.1,39.326,39.326,0,0,0,2.959-2.948,3.272,3.272,0,0,1,.528-.418.273.273,0,0,0,.143-.231.467.467,0,0,0-.088-.242,5.073,5.073,0,0,0-.792-.88.271.271,0,0,0-.187-.088.328.328,0,0,0-.154.055,2.023,2.023,0,0,1-.913.1ZM-63.162,13.2c.594-.506,1.177-1.056,1.738-1.628a1.174,1.174,0,0,1,.352-.253q.165-.066.165-.2a.351.351,0,0,0-.066-.187,4.3,4.3,0,0,0-.55-.649.247.247,0,0,0-.187-.088.37.37,0,0,0-.165.044,1.778,1.778,0,0,1-.781.121l-3.19.033a10.712,10.712,0,0,1-1.529-.088,9.627,9.627,0,0,0,.121,1.078c.022.143.066.209.187.209.451-.033.858-.055,1.452-.077l2.541-.055a15.273,15.273,0,0,1-2.134,1.782,20.867,20.867,0,0,1-3.542,1.98,2.567,2.567,0,0,1,.88.671.3.3,0,0,0,.22.121.446.446,0,0,0,.187-.055,19.031,19.031,0,0,0,3.025-1.837v1.419c0,.913-.055,1.65-.055,1.958,0,.11.077.154.209.154a6.788,6.788,0,0,0,.946,0c.132,0,.209-.044.209-.143,0-.275-.033-1-.033-1.98Zm-2.31-4.3a11.32,11.32,0,0,1,2.453,1.089.2.2,0,0,0,.121.044c.055,0,.1-.033.143-.11a9.256,9.256,0,0,0,.451-.814A.178.178,0,0,0-62.26,9c0-.044-.044-.077-.121-.121a14.986,14.986,0,0,0-2.332-.957c-.11-.033-.165,0-.231.1C-65.054,8.189-65.252,8.552-65.472,8.9Zm2.871,4.939a12.213,12.213,0,0,1,2.475,1.518.331.331,0,0,0,.154.077.188.188,0,0,0,.132-.088,6.284,6.284,0,0,0,.539-.792.262.262,0,0,0,.044-.132c0-.055-.033-.088-.1-.132a11.711,11.711,0,0,0-2.4-1.342c-.11-.044-.143-.055-.22.044C-62.117,13.161-62.359,13.491-62.6,13.843Zm6.05-1.518a9.645,9.645,0,0,1,2.222,1.2.213.213,0,0,0,.132.066c.044,0,.088-.044.143-.11a4.479,4.479,0,0,0,.484-.836.326.326,0,0,0,.044-.121c0-.066-.044-.11-.121-.165a7.634,7.634,0,0,0-2.112-1.078c-.1-.022-.154.033-.209.11C-56.1,11.566-56.276,11.885-56.551,12.325ZM-55.22,9.74a10.638,10.638,0,0,1,2.134,1.353.283.283,0,0,0,.165.077.122.122,0,0,0,.11-.066,4.708,4.708,0,0,0,.561-.825.266.266,0,0,0,.044-.143.174.174,0,0,0-.088-.143,7.478,7.478,0,0,0-2.068-1.221c-.132-.066-.2-.044-.275.088C-54.824,9.146-55.033,9.454-55.22,9.74Zm-.462,6.27a6.947,6.947,0,0,0,.814,1.122.283.283,0,0,0,.22.132.244.244,0,0,0,.176-.088,3.614,3.614,0,0,1,.638-.374,25.538,25.538,0,0,0,3.289-2.068,20.494,20.494,0,0,0,2.794-2.541.342.342,0,0,0,.121-.253.538.538,0,0,0-.055-.209A5.493,5.493,0,0,1-48,10.5a20.017,20.017,0,0,1-3.168,3.069,18.426,18.426,0,0,1-3.014,1.9A5.086,5.086,0,0,1-55.682,16.01Zm5.5-7.084A5.458,5.458,0,0,1-49.071,10.2a.115.115,0,0,0,.187.033l.462-.341a.111.111,0,0,0,.033-.176,5.063,5.063,0,0,0-1.045-1.177c-.066-.055-.11-.066-.165-.022ZM-49.17,8.2a5.2,5.2,0,0,1,1.1,1.265.113.113,0,0,0,.187.033l.44-.341a.127.127,0,0,0,.033-.2,4.594,4.594,0,0,0-1.045-1.133c-.066-.055-.1-.066-.165-.022Zm8.393,3.619a16.391,16.391,0,0,0-1.914-1.155.313.313,0,0,0-.132-.044.153.153,0,0,0-.11.055c-.143.154-.407.495-.726.9a12.068,12.068,0,0,1,2.145,1.309,13.438,13.438,0,0,1-4.147,3.608,3.2,3.2,0,0,1,.99.605.309.309,0,0,0,.209.077.5.5,0,0,0,.253-.088,14.438,14.438,0,0,0,3.762-3.432,11.246,11.246,0,0,1,1.441,1.452c.055.066.1.1.154.1a.17.17,0,0,0,.132-.077c.231-.253.451-.495.671-.781a.293.293,0,0,0,.055-.143.238.238,0,0,0-.066-.154,12.784,12.784,0,0,0-1.617-1.5,21.6,21.6,0,0,0,1.254-2.178,2.4,2.4,0,0,1,.495-.737.324.324,0,0,0,.121-.242.23.23,0,0,0-.11-.187A5.375,5.375,0,0,0-39.3,8.519a5.117,5.117,0,0,1-.418,1.353A13.026,13.026,0,0,1-40.777,11.819Zm7.271-1.672a11.644,11.644,0,0,1,2.244,1.793c.055.055.1.088.143.088s.077-.033.132-.088c.154-.165.517-.605.682-.825a.237.237,0,0,0,.066-.143c0-.044-.033-.088-.1-.154a11.47,11.47,0,0,0-2.1-1.562.293.293,0,0,0-.143-.055.206.206,0,0,0-.154.088C-32.945,9.509-33.264,9.85-33.506,10.147Zm.242,5.489a7.622,7.622,0,0,0,.88,1.221.285.285,0,0,0,.187.121.3.3,0,0,0,.2-.11,3.8,3.8,0,0,1,.737-.506,23.651,23.651,0,0,0,3.322-2.156,17.98,17.98,0,0,0,2.53-2.332c.121-.143.176-.231.176-.33a.538.538,0,0,0-.055-.209,4.91,4.91,0,0,1-.308-1.287,16.526,16.526,0,0,1-3.014,2.992,16.3,16.3,0,0,1-3.168,2.046A6.627,6.627,0,0,1-33.264,15.636Zm15.081-5.863a2.865,2.865,0,0,1,.077-1.034.579.579,0,0,0,.088-.253c0-.088-.055-.154-.209-.187A8.119,8.119,0,0,0-19.6,8.123a8.394,8.394,0,0,1,.11,1.628v5.412c0,.7-.011,1.353-.044,2.167,0,.132.055.165.209.165a7.269,7.269,0,0,0,.979,0c.154,0,.209-.033.2-.165-.022-.792-.044-1.441-.044-2.156V12.743A12.183,12.183,0,0,1-15.3,14.151a.169.169,0,0,0,.121.055c.055,0,.1-.044.143-.121a6.465,6.465,0,0,0,.473-.957c.055-.143,0-.22-.121-.286a15.516,15.516,0,0,0-3.5-1.5ZM-7.128,14.14c.561.011,1.133.011,1.683-.033.11,0,.143-.044.154-.176a7.413,7.413,0,0,0,.055-.825c0-.1-.033-.143-.176-.121-.528.033-.979.044-1.562.033.066-.44.176-1.188.242-1.573a10.845,10.845,0,0,0,1.463-.055c.132-.011.176-.044.176-.165a5.135,5.135,0,0,0,.022-.825c0-.077-.033-.132-.11-.132a6.27,6.27,0,0,1-1.353.066c.055-.407.121-.781.176-1.034a1.078,1.078,0,0,1,.2-.473.322.322,0,0,0,.088-.209c0-.1-.088-.2-.242-.253a6.539,6.539,0,0,0-1.32-.308,5.173,5.173,0,0,1,.011.924c-.022.33-.055.627-.143,1.265a8.942,8.942,0,0,1-1.991-.418c0,.4.022.759.033,1.023,0,.1.044.154.176.187a7.692,7.692,0,0,0,1.584.308c-.044.451-.132,1.166-.187,1.573a6.878,6.878,0,0,1-1.782-.429,6.357,6.357,0,0,0,.022,1.023c.011.132.044.187.121.209a8.666,8.666,0,0,0,1.5.33c-.044.495-.077.8-.077,1.034,0,1.606.825,2.486,2.772,2.486,1.892,0,3.168-1.012,3.168-2.574a2.867,2.867,0,0,0-.935-2.068.252.252,0,0,0-.231-.044,3.509,3.509,0,0,1-1.122.066,2.648,2.648,0,0,1,.99,2c0,.99-.715,1.485-2,1.485-1.023,0-1.463-.4-1.463-1.408A6.777,6.777,0,0,1-7.128,14.14ZM7.986,10.785V9.74a3.029,3.029,0,0,1,.088-.968.589.589,0,0,0,.044-.2c0-.088-.044-.143-.2-.176a10.224,10.224,0,0,0-1.287-.187,7.313,7.313,0,0,1,.1,1.507L6.721,10.8H4.356v-.8a2.756,2.756,0,0,1,.077-1.056A.747.747,0,0,0,4.5,8.706c0-.077-.044-.132-.165-.154a10.679,10.679,0,0,0-1.342-.176,7.645,7.645,0,0,1,.132,1.617v.8h-.33c-.847,0-1.562-.022-2.024-.055a9.87,9.87,0,0,0,.077,1.067c.011.143.044.209.132.209.341-.022,1.221-.055,1.815-.055h.33v.418c0,.693-.022,1.232-.055,1.8-.011.121.055.143.2.154a6.787,6.787,0,0,0,.946,0c.121-.011.2-.033.187-.154-.033-.583-.033-1.177-.033-1.826v-.4H6.71a5.323,5.323,0,0,1-.649,2.805,4.776,4.776,0,0,1-2.97,1.947,2.539,2.539,0,0,1,.913.66c.088.088.143.121.209.121a.923.923,0,0,0,.308-.1,5.182,5.182,0,0,0,2.6-2.046,6.542,6.542,0,0,0,.847-3.388h.451c.539,0,1.21.011,1.584.011.154.011.176-.033.187-.176a5.729,5.729,0,0,0,0-.869c-.011-.121-.022-.187-.154-.176-.506.022-1.122.033-1.661.033Zm8.558-.154H14.8c-.561,0-1.232-.011-2.068-.077,0,.363.033.858.044,1.056,0,.132.044.22.143.22.517-.044,1.276-.077,1.9-.077h1.727v3.8c0,.286-.077.407-.253.484a5.477,5.477,0,0,1-1.5.132,2.572,2.572,0,0,1,.737.99c.066.165.132.231.264.231a3.415,3.415,0,0,0,1.408-.363,1.145,1.145,0,0,0,.649-1.133c0-.858-.022-1.331-.022-1.914l-.011-2.222h1.3c.748,0,1.584.033,2.266.055.11.011.143-.066.154-.209a7.444,7.444,0,0,0,.011-.858c0-.121-.044-.187-.143-.176-.539.022-1.287.066-2.244.066H17.809v-.583a2.558,2.558,0,0,1,.11-1.1c.11-.209.088-.319-.132-.363-.275-.055-.847-.121-1.364-.165a8.48,8.48,0,0,1,.121,1.694Zm-2.607,2a2.437,2.437,0,0,1-.3.891,7.346,7.346,0,0,1-1.331,1.815,3.209,3.209,0,0,1,.935.462c.165.11.253.077.385-.066A8.473,8.473,0,0,0,14.85,13.9a1.033,1.033,0,0,1,.275-.374c.2-.154.132-.264-.044-.385A5.124,5.124,0,0,0,13.937,12.633Zm5,.7a10.667,10.667,0,0,1,1.672,2.31c.077.143.132.121.253.044a6.114,6.114,0,0,0,.737-.55c.121-.1.154-.176.055-.341a8.482,8.482,0,0,0-1.573-2.013.191.191,0,0,0-.308-.044C19.525,12.93,19.239,13.117,18.942,13.337Zm1.826-5.676A1.16,1.16,0,0,0,19.58,8.838a1.188,1.188,0,1,0,1.188-1.177Zm0,.528a.649.649,0,1,1-.649.649A.63.63,0,0,1,20.768,8.189Zm9.7,5.412c.814,0,1.628.011,2.453.022.154.011.2-.033.2-.165a8.108,8.108,0,0,0,0-1.034c0-.132-.033-.165-.2-.154-.847.011-1.694.033-2.53.033H26.851a14.132,14.132,0,0,1-2.376-.132A11.938,11.938,0,0,0,24.64,13.5c.033.165.121.231.253.231A8.8,8.8,0,0,1,26.51,13.6Zm9.647-3.828a2.865,2.865,0,0,1,.077-1.034.579.579,0,0,0,.088-.253c0-.088-.055-.154-.209-.187A8.119,8.119,0,0,0,38.7,8.123a8.393,8.393,0,0,1,.11,1.628v5.412c0,.7-.011,1.353-.044,2.167,0,.132.055.165.209.165a7.269,7.269,0,0,0,.979,0c.154,0,.209-.033.2-.165-.022-.792-.044-1.441-.044-2.156V12.743A12.183,12.183,0,0,1,43,14.151a.169.169,0,0,0,.121.055c.055,0,.1-.044.143-.121a6.465,6.465,0,0,0,.473-.957c.055-.143,0-.22-.121-.286a15.516,15.516,0,0,0-3.5-1.5Zm9.46-1.452a7.313,7.313,0,0,1,.11,2.013c-.055,1.32-.154,2.9-.154,4.752,0,1.683.66,2.244,2.068,2.244a6.284,6.284,0,0,0,4.169-1.65c.176-.154.22-.242.22-.341a.723.723,0,0,0-.088-.264,3.824,3.824,0,0,1-.253-1.045,5.8,5.8,0,0,1-3.85,2.024c-.88,0-1.012-.253-1.012-1.364,0-1.441.055-2.563.165-4.257a6.593,6.593,0,0,1,.154-1.342,1.067,1.067,0,0,0,.11-.363c0-.11-.077-.165-.264-.209A11.377,11.377,0,0,0,49.577,8.321ZM63.349,14.58c-.517-.044-.781-.044-1.056-.044-1.331,0-2.2.671-2.2,1.562,0,.913.814,1.54,2.244,1.54,1.507,0,2.222-.484,2.233-1.672a8.728,8.728,0,0,1,2.189,1.254.169.169,0,0,0,.121.055.162.162,0,0,0,.143-.088,3.309,3.309,0,0,0,.484-.814c.033-.132.033-.165-.077-.264a9.808,9.808,0,0,0-2.915-1.331c-.033-.506-.055-1.045-.077-1.551a19.923,19.923,0,0,0,2.156-.264c.121-.011.165-.044.165-.154,0-.33-.022-.693-.033-.9-.011-.1-.044-.121-.176-.088-.792.121-1.32.231-2.156.286,0-.4-.011-.8-.011-1.243a22.5,22.5,0,0,0,2.541-.286c.088-.011.121-.033.121-.176a5.877,5.877,0,0,0-.055-.8c-.011-.132-.055-.165-.187-.132a18.51,18.51,0,0,1-2.409.33c.011-.33.011-.484.022-.7a1.414,1.414,0,0,1,.165-.528.224.224,0,0,0-.121-.33,6.374,6.374,0,0,0-1.386-.2,3.164,3.164,0,0,1,.132.737c.011.374.022.66.022,1.067a25.149,25.149,0,0,1-2.882-.11c.022.451.044.715.077.99.011.11.066.154.187.154a18.1,18.1,0,0,0,2.629.055c.011.418.011.847.022,1.265a15.477,15.477,0,0,1-2.475-.088,6.565,6.565,0,0,0,.066.935c.011.143.055.187.176.187a19.478,19.478,0,0,0,2.266.044C63.3,13.645,63.327,14.1,63.349,14.58Zm.022,1.045a1.056,1.056,0,0,1-.121.616,1.359,1.359,0,0,1-1,.33c-.759,0-1.089-.209-1.089-.495,0-.352.385-.583,1.188-.583A4.744,4.744,0,0,1,63.371,15.625ZM75.427,9.8c-1.32.077-2.739.165-3.41.22a7.255,7.255,0,0,1-1.342.044,7.709,7.709,0,0,0,.275,1.111c.033.11.077.154.187.154s.275-.1.517-.132c.869-.121,2.42-.253,3.806-.33,0,.363.011.737.011,1.122a1.348,1.348,0,0,0-.836-.22,1.6,1.6,0,0,0-1.661,1.65A1.524,1.524,0,0,0,74.5,15.1a1.27,1.27,0,0,0,1.034-.44,3.674,3.674,0,0,1-2.255,2.42,2.451,2.451,0,0,1,.836.44.623.623,0,0,0,.33.165,1.048,1.048,0,0,0,.429-.209,4.107,4.107,0,0,0,1.958-3.553,3.427,3.427,0,0,0-.165-1.089c-.011-.671-.011-1.375-.011-2.046,1.144-.011,2.211-.011,3.355.022.132.011.187-.022.187-.143.011-.275.011-.561,0-.836-.011-.143-.033-.165-.165-.165-1.056,0-2.189.011-3.377.055.011-.418.011-.561.022-.7a1.15,1.15,0,0,1,.088-.319.464.464,0,0,0,.1-.253c0-.1-.121-.176-.308-.209a11.176,11.176,0,0,0-1.287-.154,3.5,3.5,0,0,1,.132.8C75.416,9.179,75.416,9.454,75.427,9.8Zm-.7,2.827a.659.659,0,0,1,.726.7.707.707,0,0,1-.748.759.682.682,0,0,1-.7-.748A.7.7,0,0,1,74.723,12.622Z" transform="translate(1031 6317)"/>
    <path id="パス_1823" data-name="パス 1823" d="M347.5,503.86" transform="translate(674.189 5724.857)" fill="none" stroke="#f2f2f2" stroke-miterlimit="10" stroke-width="2"/>
    <path id="パス_1824" data-name="パス 1824" d="M333.5,502.86" transform="translate(687.077 5725.763)" fill="none" stroke="#f2f2f2" stroke-miterlimit="10" stroke-width="2"/>
    <path id="パス_1858" data-name="パス 1858" d="M910.827,601.24a5.79,5.79,0,0,0-.776.455.64.64,0,0,0-.1.084.773.773,0,0,0-.063.083,1.554,1.554,0,0,0-.265.528" transform="translate(156.58 5636.631)" fill="none" stroke="#000" stroke-miterlimit="10" stroke-width="1" opacity="0.1"/>
    <path id="パス_1860" data-name="パス 1860" d="M264.927,254.4c-.094,0-.189,0-.283,0a11.935,11.935,0,1,0,10.5,6.256l-9.882,7.426Z" transform="translate(763.021 5961.435)" fill="none"/>
    <line id="線_591" data-name="線 591" x1="10.825" y2="9.021" transform="translate(1035.115 6207.304)" fill="none" stroke="#fff" stroke-miterlimit="10" stroke-width="0.5"/>
    <line id="線_590" data-name="線 590" y1="9.021" x2="11.727" transform="translate(1041.43 6215.423)" fill="none" stroke="#9a9a9a" stroke-miterlimit="10" stroke-width="0.5"/>
    <rect id="長方形_2180" data-name="長方形 2180" width="11.418" height="2.602" transform="translate(1050.525 6214.175)" fill="#fff"/>
    <rect id="長方形_2181" data-name="長方形 2181" width="11.418" height="2.602" transform="translate(1042.511 6205.769)" fill="#fff"/>
    <path id="パス_1861" data-name="パス 1861" d="M243.685,226.591a13.877,13.877,0,1,1-12.2-7.27c.11,0,.22,0,.329,0l-.147-5.928-.183,0A19.8,19.8,0,1,0,248.459,223Z" transform="translate(794.239 6000.142)" fill="#d2b600"/>
    <path id="パス_1862" data-name="パス 1862" d="M361.908,226.605l4.773-3.587a19.789,19.789,0,0,0-16.8-9.606l.147,5.928A13.873,13.873,0,0,1,361.908,226.605Z" transform="translate(676.017 6000.128)" fill="#fcea67"/>
    <line id="線_595" data-name="線 595" x2="9.021" y2="8.119" transform="translate(1041.43 6244.29)" fill="none" stroke="#9a9a9a" stroke-miterlimit="10" stroke-width="0.5"/>
    <rect id="長方形_2201" data-name="長方形 2201" width="11.418" height="2.602" transform="translate(1047.819 6252.063)" fill="#fff"/>
    <line id="線_596" data-name="線 596" x2="11.645" transform="translate(1001.59 6204.589)" fill="none" stroke="#c9c9c9" stroke-width="1"/>
    <line id="線_597" data-name="線 597" x2="11.645" transform="translate(1001.59 6206.918)" fill="none" stroke="#c9c9c9" stroke-width="1"/>
    <line id="線_598" data-name="線 598" x2="11.645" transform="translate(1001.59 6209.248)" fill="none" stroke="#c9c9c9" stroke-width="1"/>
    <circle id="楕円形_280" data-name="楕円形 280" cx="0.5" cy="0.5" r="0.5" transform="translate(1002 6201)" fill="#fff"/>
    <ellipse id="楕円形_281" data-name="楕円形 281" cx="1" cy="0.5" rx="1" ry="0.5" transform="translate(1007 6201)" fill="#fff"/>
  </g>
</svg>
