<svg xmlns="http://www.w3.org/2000/svg" xmlns:xlink="http://www.w3.org/1999/xlink" width="218" height="255" viewBox="0 0 218 255">
  <defs>
    <filter id="長方形_2177" x="6" y="7" width="212" height="248" filterUnits="userSpaceOnUse">
      <feOffset dx="3" dy="3" input="SourceAlpha"/>
      <feGaussianBlur stdDeviation="3" result="blur"/>
      <feFlood flood-opacity="0.161"/>
      <feComposite operator="in" in2="blur"/>
      <feComposite in="SourceGraphic"/>
    </filter>
    <filter id="長方形_2123" x="58" y="50" width="111" height="111" filterUnits="userSpaceOnUse">
      <feOffset dy="3" input="SourceAlpha"/>
      <feGaussianBlur stdDeviation="3" result="blur-2"/>
      <feFlood flood-opacity="0.161"/>
      <feComposite operator="in" in2="blur-2"/>
      <feComposite in="SourceGraphic"/>
    </filter>
  </defs>
  <g id="グループ_491" data-name="グループ 491" transform="translate(-652 -6132)">
    <g transform="matrix(1, 0, 0, 1, 652, 6132)" filter="url(#長方形_2177)">
      <g id="長方形_2177-2" data-name="長方形 2177" transform="translate(12 13)" fill="#fff" stroke="#707070" stroke-width="0.2">
        <rect width="194" height="230" stroke="none"/>
        <rect x="0.1" y="0.1" width="193.8" height="229.8" fill="none"/>
      </g>
    </g>
    <g id="グループ_464" data-name="グループ 464" transform="translate(651.616 6132)">
      <ellipse id="楕円形_205" data-name="楕円形 205" cx="20" cy="21" rx="20" ry="21" transform="translate(0.384)" fill="#d2b600"/>
    </g>
    <path id="パス_1945" data-name="パス 1945" d="M-2.862-14.3c.25-1.8,1.325-2.625,2.65-2.625A2.421,2.421,0,0,1,2.412-14.25c0,1.925-1,3-3.5,3H-2.412V-8.7h1.45c2.675,0,3.7,1.275,3.7,3.45,0,2.025-1.125,3.225-2.925,3.225-1.65,0-2.55-.775-2.975-2.7l-3.075.9C-5.387-.875-3.312.4-.162.4c3.65,0,6.1-2.3,6.1-5.675a4.642,4.642,0,0,0-4.025-4.8v-.175a4.147,4.147,0,0,0,3.65-4.3c0-2.775-2.25-4.8-5.725-4.8-2.9,0-5.05,1.425-5.775,4.125Z" transform="translate(672 6163)" fill="#fff"/>
    <g id="グループ_467" data-name="グループ 467" transform="translate(719.118 6187.863)">
      <g transform="matrix(1, 0, 0, 1, -67.12, -55.86)" filter="url(#長方形_2123)">
        <rect id="長方形_2123-2" data-name="長方形 2123" width="93" height="93" rx="46.5" transform="translate(67 56)" fill="#2f3f59"/>
      </g>
      <g id="グループ_459" data-name="グループ 459" transform="translate(23.368 23.192)">
        <path id="パス_1655" data-name="パス 1655" d="M279,495.518a1.549,1.549,0,0,1,1.388-.187s-.2.42-1.077.414Z" transform="translate(-274.795 -471.93)" fill="#d2b600"/>
        <path id="パス_1730" data-name="パス 1730" d="M249.39,350.876l-6.6,2.554-9.648,3.729c-.364-.676-.9-1.6-1.565-2.7-2.285-3.787-6.065-9.676-9.43-14.852-3.793-5.832-7.056-10.756-7.056-10.756l2.363-.685,19.3-5.6Z" transform="translate(-215.09 -310.628)" opacity="0.1"/>
        <path id="パス_1731" data-name="パス 1731" d="M251.39,343.876l-6.6,2.554-9.648,3.729c-.364-.676-.9-1.6-1.565-2.7-2.285-3.787-6.065-9.676-9.43-14.852-3.793-5.832-7.056-10.756-7.056-10.756l2.363-.685,19.3-5.6Z" transform="translate(-216.958 -304.089)" fill="#fff"/>
        <path id="パス_1732" data-name="パス 1732" d="M284.937,343.876l-6.6,2.554a49.638,49.638,0,0,1-11.213,1.031c-2.285-3.787-6.065-9.676-9.43-14.852L253,321.168l19.3-5.6Z" transform="translate(-250.506 -304.089)" opacity="0.1"/>
        <path id="パス_1733" data-name="パス 1733" d="M276.769,302.3s-10.254,6.065-25.563,4.7L239,277.247l5.849-1,20.219-3.472,11.472,28.959Z" transform="translate(-237.427 -264.105)" fill="#d2b600"/>
        <path id="パス_1734" data-name="パス 1734" d="M359.618,301.729a48.541,48.541,0,0,1-8.018-.228,25.757,25.757,0,0,1-8.722-2.446,26.483,26.483,0,0,1-5.7-3.83c-4.251-3.824-6.883-9.295-9.245-18.982l20.219-3.472Z" transform="translate(-320.505 -264.105)" opacity="0.1"/>
        <path id="パス_1735" data-name="パス 1735" d="M347.662,177.041a55.911,55.911,0,0,1-15.251.569,25.782,25.782,0,0,1-8.722-2.446,26.485,26.485,0,0,1-5.7-3.83c-5.264-4.738-8.041-11.99-10.906-26.643a38.636,38.636,0,0,0,24.985-3.61S336.253,167.22,347.662,177.041Z" transform="translate(-301.027 -141.08)" fill="#fff"/>
        <path id="パス_1736" data-name="パス 1736" d="M487.255,567.19a25.781,25.781,0,0,1-8.722-2.446,26.48,26.48,0,0,1-5.7-3.83c4.48-.364,5.124-2.814,5.124-2.814C481.276,563.372,487.255,567.19,487.255,567.19Z" transform="translate(-455.871 -530.66)" opacity="0.1"/>
        <path id="パス_1737" data-name="パス 1737" d="M405.85,238.24a23.962,23.962,0,0,0,13.07-2.78l.433,1.39a33.57,33.57,0,0,1-13.5,3.014Z" transform="translate(-393.298 -229.25)" fill="#d2b600" opacity="0.3"/>
        <path id="パス_1738" data-name="パス 1738" d="M405.85,323.043a44.456,44.456,0,0,0,14.183-4.153l.253.578s-2.75,3.46-14.436,4.365Z" transform="translate(-393.298 -307.19)" opacity="0.3"/>
        <path id="パス_1739" data-name="パス 1739" d="M417.94,363.732a44.464,44.464,0,0,0,14.183-4.152l.253.578s-2.749,3.464-14.436,4.368Z" transform="translate(-404.593 -345.203)" opacity="0.3"/>
        <path id="パス_1740" data-name="パス 1740" d="M429,407.582a44.465,44.465,0,0,0,14.183-4.152l.253.578s-2.753,3.462-14.436,4.368Z" transform="translate(-414.925 -386.167)" opacity="0.3"/>
        <path id="パス_1741" data-name="パス 1741" d="M442.13,445.162a44.465,44.465,0,0,0,14.183-4.152l.253.578s-2.749,3.462-14.436,4.369Z" transform="translate(-427.191 -421.275)" opacity="0.3"/>
        <path id="パス_1742" data-name="パス 1742" d="M454.23,485.882a44.464,44.464,0,0,0,14.183-4.152l.253.578s-2.75,3.462-14.436,4.368Z" transform="translate(-438.495 -459.315)" opacity="0.1"/>
        <rect id="長方形_2112" data-name="長方形 2112" width="1.984" height="1.984" transform="translate(27.844 10.537) rotate(-18.8)" fill="#d2b600" opacity="0.3"/>
        <rect id="長方形_2113" data-name="長方形 2113" width="1.984" height="1.984" transform="translate(28.912 13.331) rotate(-18.8)" fill="#d2b600" opacity="0.3"/>
        <rect id="長方形_2114" data-name="長方形 2114" width="1.984" height="1.984" transform="translate(30.625 18.707) rotate(-18.8)" fill="#d2b600" opacity="0.3"/>
        <rect id="長方形_2115" data-name="長方形 2115" width="1.984" height="1.984" transform="translate(31.608 21.592) rotate(-18.8)" fill="#d2b600" opacity="0.3"/>
        <rect id="長方形_2116" data-name="長方形 2116" width="1.984" height="1.984" transform="translate(29.783 16.233) rotate(-18.8)" fill="#d2b600" opacity="0.3"/>
        <path id="パス_1773" data-name="パス 1773" d="M716.378,438.974l5.264-1.966a.5.5,0,0,1,.644.293h0a.5.5,0,0,1-.294.644l-5.264,1.967L715.6,439.8Z" transform="translate(-682.667 -417.506)" fill="#5c5c8e"/>
        <path id="パス_1774" data-name="パス 1774" d="M722.107,438.24h0a.5.5,0,0,1-.294.645l-5.264,1.966-.847-.085-.122.132,1.128.113,5.264-1.967a.5.5,0,0,0,.294-.644h0a.5.5,0,0,0-.2-.25.545.545,0,0,1,.046.09Z" transform="translate(-682.648 -418.603)" fill="#fff" opacity="0.1"/>
        <path id="パス_1775" data-name="パス 1775" d="M694.078,415.58l.351.938-.926-.093-.2-.02.277-.293Z" transform="translate(-660.367 -394.112)" fill="#efc8c4"/>
        <path id="パス_1776" data-name="パス 1776" d="M715.9,475.42a.2.2,0,0,1,.054.059.085.085,0,0,1,0,.091.2.2,0,0,1-.051.036.168.168,0,0,0-.075.127l-.2-.02Z" transform="translate(-682.685 -453.42)" fill="#727a9c"/>
        <path id="パス_1777" data-name="パス 1777" d="M644.132,286.3l-.888-.433a.107.107,0,0,1-.049-.143l.094-.193a.107.107,0,0,1,.143-.049l.6.291.624-1.28a.108.108,0,0,1,.143-.05l.193.095a.107.107,0,0,1,.049.143l-.766,1.571A.107.107,0,0,1,644.132,286.3Z" transform="translate(-615.016 -274.997)" fill="#3acc6c"/>
        <path id="パス_1778" data-name="パス 1778" d="M673.6,370.45l-.888-.433a.107.107,0,0,1-.049-.143l.094-.193a.108.108,0,0,1,.144-.049l.6.292.624-1.282a.108.108,0,0,1,.143-.05l.193.095a.107.107,0,0,1,.05.143l-.766,1.571a.109.109,0,0,1-.144.049Z" transform="translate(-642.547 -353.61)" fill="#3acc6c"/>
        <path id="パス_1779" data-name="パス 1779" d="M660.368,328.955l-.888-.433a.108.108,0,0,1-.05-.143l.095-.193a.107.107,0,0,1,.143-.049l.6.292.625-1.282a.107.107,0,0,1,.143-.049l.193.094a.109.109,0,0,1,.049.144l-.767,1.572a.107.107,0,0,1-.143.049Z" transform="translate(-630.183 -314.845)" fill="#3acc6c"/>
        <path id="パス_1780" data-name="パス 1780" d="M686.4,408.468l-.888-.433a.107.107,0,0,1-.049-.143l.094-.193a.107.107,0,0,1,.144-.049l.6.292.624-1.28a.109.109,0,0,1,.144-.05l.193.095a.107.107,0,0,1,.049.143l-.765,1.571A.109.109,0,0,1,686.4,408.468Z" transform="translate(-654.505 -389.128)" fill="#3acc6c"/>
      </g>
    </g>
    <path id="パス_1941" data-name="パス 1941" d="M-29.664-9.288V.024h1.584V-4.14h1.32c.156,0,.288-.012.42-.012L-24.456.024h1.74l-2.148-4.416a2.361,2.361,0,0,0,1.848-2.364c0-1.62-1.032-2.532-3.3-2.532Zm1.584,1.212h1.692c1.284,0,1.752.516,1.752,1.344,0,.864-.552,1.392-1.824,1.392h-1.62ZM-15.288-2.94v-.312c0-2.232-1.26-3.456-2.94-3.456-1.776,0-2.988,1.332-2.988,3.48S-20.064.192-18.1.192a2.611,2.611,0,0,0,2.772-1.908l-1.368-.4c-.228.864-.708,1.248-1.392,1.248-1.092,0-1.644-.828-1.656-2.076Zm-4.428-1c.072-1.056.6-1.728,1.512-1.728s1.368.624,1.44,1.728ZM-8.292-5.028a2.441,2.441,0,0,0-2.58-1.68c-1.608,0-2.472.816-2.472,1.872,0,1.1.5,1.62,1.932,2l.552.156c1.044.3,1.272.444,1.272.984,0,.48-.336.852-1.2.852a1.389,1.389,0,0,1-1.38-1.1l-1.4.492A2.571,2.571,0,0,0-10.824.192C-9.036.192-8.16-.66-8.16-1.836c0-1.068-.54-1.608-2.04-2l-.552-.144c-.96-.252-1.176-.468-1.176-.984,0-.4.384-.708,1.032-.708A1.178,1.178,0,0,1-9.72-4.62Zm3.864-1.536H-5.94V.024h1.512Zm.06-2.724H-6V-7.74h1.632Zm4.1-.168H-1.776V.024H-.264ZM3.9-6.564H2.388V.024H3.9Zm.06-2.724H2.328V-7.74H3.96Zm6.048,2.58c-.888,0-1.572.468-2.04,1.764v-1.62H6.552V.024H8.04V-3.624c.42-1.152,1.08-1.668,1.872-1.668Zm7.5,3.768v-.312c0-2.232-1.26-3.456-2.94-3.456-1.776,0-2.988,1.332-2.988,3.48S12.732.192,14.7.192a2.611,2.611,0,0,0,2.772-1.908l-1.368-.4c-.228.864-.708,1.248-1.392,1.248-1.092,0-1.644-.828-1.656-2.076Zm-4.428-1c.072-1.056.6-1.728,1.512-1.728s1.368.624,1.44,1.728ZM25.6-7.356a2.726,2.726,0,0,1,2.688,2.784c0,2.268-1.6,3.108-3.624,3.588a2.545,2.545,0,0,1,.84.756c.156.24.264.288.516.216,2.436-.732,3.7-2.136,3.7-4.368,0-2.388-1.692-4.164-4.572-4.164a5.251,5.251,0,0,0-3.9,1.536,4.421,4.421,0,0,0-1.356,3.12c0,1.956,1.068,3.084,2.124,3.084a2.279,2.279,0,0,0,2.04-1.38,15.026,15.026,0,0,0,1.5-5.172Zm-1.44.072a13.711,13.711,0,0,1-1.272,4.3c-.324.576-.588.732-.9.732-.372,0-.816-.612-.816-1.716a3.455,3.455,0,0,1,.936-2.22A3.614,3.614,0,0,1,24.156-7.284ZM-54.372,15.124a3.167,3.167,0,0,0-.636,1.716c0,1.56,1.356,2.424,4.128,2.424a19.046,19.046,0,0,0,3.516-.288c.144-.024.216-.072.2-.18a10.034,10.034,0,0,0-.192-1.176c-.024-.108-.084-.144-.252-.108a15.267,15.267,0,0,1-3.252.348c-2.064,0-2.844-.372-2.844-1.128a1.972,1.972,0,0,1,.312-.912c.06-.1.048-.156-.06-.216C-53.76,15.436-54.06,15.28-54.372,15.124Zm.264-4.536c-.024.432-.048.78-.048,1.068,0,.144.048.192.156.216a14.358,14.358,0,0,0,2.208.2,7.327,7.327,0,0,0,.876-.036c-.42.252-.948.588-1.572,1a2.867,2.867,0,0,1,.84.384.5.5,0,0,0,.252.072.511.511,0,0,0,.3-.108,6.991,6.991,0,0,1,2.94-1.188c.144-.012.2-.084.2-.252a7,7,0,0,0-.108-1.02c-.012-.1-.06-.144-.18-.132-.768.06-1.62.108-2.5.108A15.138,15.138,0,0,1-54.108,10.588Zm6-.576A5.954,5.954,0,0,1-46.9,11.4a.125.125,0,0,0,.2.036l.5-.372a.121.121,0,0,0,.036-.192,5.523,5.523,0,0,0-1.14-1.284c-.072-.06-.12-.072-.18-.024ZM-47,9.22a5.677,5.677,0,0,1,1.2,1.38.123.123,0,0,0,.2.036l.48-.372a.139.139,0,0,0,.036-.216,5.011,5.011,0,0,0-1.14-1.236c-.072-.06-.108-.072-.18-.024Zm9.636,4.572V15.34H-38.1c-1.092,0-1.488-.024-1.56-.024-.132,0-.144.012-.144.132,0,.084.024.42.024,1.368v.948c0,1.668-.024,1.98-.024,2.064,0,.108.012.12.144.12h.984c.12,0,.132-.012.132-.12V19.36H-34.8v.408c0,.108.012.12.132.12h1.02c.12,0,.132-.012.132-.12,0-.072-.024-.384-.024-2.04v-1.08c0-.792.024-1.128.024-1.2,0-.12-.012-.132-.132-.132-.084,0-.456.024-1.56.024h-.864V13.792H-34.5c1.176,0,1.584.024,1.656.024.108,0,.12-.012.12-.132v-.948c0-.108-.012-.12-.12-.12-.072,0-.48.024-1.656.024h-1.572v-1.8a16.58,16.58,0,0,0,1.956-.492,2.4,2.4,0,0,1,.648-.132c.12-.012.168-.084.168-.156a.339.339,0,0,0-.108-.24,6.938,6.938,0,0,0-.792-.768,3.628,3.628,0,0,1-.78.336,25.245,25.245,0,0,1-5.292.852,2.947,2.947,0,0,1,.336.792c.1.324.108.336.492.3.7-.072,1.392-.156,2.076-.264V12.64h-1.4c-1.188,0-1.6-.024-1.668-.024-.12,0-.132.012-.132.12v.948c0,.12.012.132.132.132.072,0,.48-.024,1.668-.024Zm-1.176,2.628H-34.8v1.86h-3.744ZM-43.5,19.072a6.817,6.817,0,0,0,.924.66.5.5,0,0,0,.216.084c.084,0,.132-.06.156-.156A1.994,1.994,0,0,1-42,19.2c.4-.792.8-1.716,1.164-2.64a1,1,0,0,0,.084-.288c0-.1-.072-.156-.264-.3a5.31,5.31,0,0,1-.648-.612,29.176,29.176,0,0,1-1.2,2.76A5.673,5.673,0,0,1-43.5,19.072Zm.444-9.228c-.06.072-.084.108-.084.144s.024.048.084.084a9.752,9.752,0,0,1,1.692,1.356c.048.036.072.06.108.06s.06-.024.108-.1l.54-.756c.048-.072.072-.108.072-.144a.145.145,0,0,0-.072-.108,9.234,9.234,0,0,0-1.668-1.236c-.1-.06-.132-.06-.228.048Zm-.432,3.048a.264.264,0,0,0-.072.144c0,.024.024.048.084.084a9.253,9.253,0,0,1,1.692,1.308q.072.072.108.072c.036,0,.06-.024.1-.084l.54-.768c.048-.072.072-.108.072-.144s-.024-.048-.072-.1a8.949,8.949,0,0,0-1.7-1.224c-.108-.06-.144-.06-.24.06Zm22.8-1.308c0-1.248.024-1.9.024-1.968,0-.132-.012-.144-.132-.144-.084,0-.492.024-1.656.024h-5.64c-1.152,0-1.572-.024-1.644-.024-.132,0-.144.012-.144.144,0,.072.024.72.024,1.968v1.968c0,2.892-.36,4.32-1.236,5.448a3.147,3.147,0,0,1,.852.612c.132.132.192.192.252.192s.12-.072.216-.24a7.545,7.545,0,0,0,1.044-3.324h2.736v1.428c0,1.164-.024,1.692-.024,1.776,0,.12.012.132.132.132h1.032c.12,0,.132-.012.132-.132,0-.072-.024-.612-.024-1.776V16.24h2.82v1.992c0,.276-.108.4-.384.4-.4,0-.624-.012-1.116-.048a3.089,3.089,0,0,1,.336.912c.084.36.072.348.444.348,1,0,1.356-.108,1.584-.312a1.148,1.148,0,0,0,.4-.972c0-.492-.024-1.1-.024-1.656Zm-4.056,3.54V13.432h2.82v1.692Zm2.82-4.476v1.668h-2.82V10.648Zm-6.72,4.476c.024-.468.036-.984.036-1.56v-.132h2.616v1.692Zm.036-2.808V10.648h2.616v1.668Zm14.088-.144c-.024,3.648-.924,5.3-3.684,6.66a2.616,2.616,0,0,1,.72.732c.108.18.156.264.24.264.06,0,.132-.048.288-.132A6.709,6.709,0,0,0-13.44,14.86h3.264a14.592,14.592,0,0,1-.372,3.048.67.67,0,0,1-.708.6,11.67,11.67,0,0,1-1.476-.108,2.657,2.657,0,0,1,.264.924c.048.384.048.408.384.432.4.024.732.024.948.024,1.2,0,1.668-.348,1.932-1.488a22.044,22.044,0,0,0,.4-3.564c.012-.3.024-.624.048-.936,0-.132-.024-.168-.144-.168-.072,0-.408.024-1.416.024h-2.94c.048-.456.084-.948.1-1.476h4.152c1.08,0,1.44.024,1.512.024.108,0,.12-.012.12-.144V11.08c0-.132-.012-.144-.12-.144-.072,0-.432.024-1.512.024h-3.156v-.816a1.712,1.712,0,0,1,.072-.7.734.734,0,0,0,.072-.252c0-.072-.072-.12-.192-.132-.408-.036-.876-.06-1.308-.06a5.981,5.981,0,0,1,.084,1.176v.78h-2.94c-1.068,0-1.428-.024-1.512-.024-.12,0-.132.012-.132.144v.972c0,.132.012.144.132.144.084,0,.444-.024,1.512-.024ZM-.18,15.22a18.89,18.89,0,0,1-1.08,2.928,1.032,1.032,0,0,1-.192.012c-.372.036-.744.048-1.26.048A10.839,10.839,0,0,0-2.448,19.4c.036.12.1.192.192.192A.374.374,0,0,0-2.04,19.5,1.194,1.194,0,0,1-1.6,19.4C.348,19.2,1.92,19,3.7,18.7c.18.324.348.648.516.972.024.06.048.1.084.1a.333.333,0,0,0,.156-.072l.744-.444c.144-.1.144-.108.084-.228a15.543,15.543,0,0,0-2.124-3.1c-.084-.084-.12-.1-.24-.024l-.648.384c-.144.084-.156.12-.072.228.3.372.6.768.876,1.176-.972.144-1.92.252-2.976.348a29.084,29.084,0,0,0,1.056-2.82H3.564c1.176,0,1.6.024,1.668.024.108,0,.12-.012.12-.144v-.936c0-.12-.012-.132-.12-.132-.072,0-.492.024-1.668.024h-1.8V12.3H3.072c1.152,0,1.548.024,1.62.024.12,0,.132-.012.132-.132v-.924c0-.12-.012-.132-.132-.132-.072,0-.468.024-1.62.024H1.764V10.6a3.548,3.548,0,0,1,.084-1.1.641.641,0,0,0,.06-.24c0-.072-.072-.132-.192-.144C1.32,9.076.9,9.052.444,9.04a11.608,11.608,0,0,1,.084,1.6v.528H-.3c-1.152,0-1.548-.024-1.608-.024-.12,0-.132.012-.132.132V12.2c0,.12.012.132.132.132.06,0,.456-.024,1.608-.024H.528v1.752H-.852c-1.176,0-1.6-.024-1.668-.024-.12,0-.132.012-.132.132V15.1c0,.132.012.144.132.144.072,0,.492-.024,1.668-.024Zm-5.28,3.9a7.039,7.039,0,0,0,.984.66.453.453,0,0,0,.216.06c.072,0,.12-.06.144-.156a3.175,3.175,0,0,1,.18-.468A26.187,26.187,0,0,0-2.916,16.5a1.284,1.284,0,0,0,.06-.276c0-.108-.06-.168-.252-.3a6.3,6.3,0,0,1-.7-.6,19.112,19.112,0,0,1-1.1,2.892A4.126,4.126,0,0,1-5.46,19.12Zm.012-6.228c-.048.06-.072.1-.072.132s.024.06.072.1A8.995,8.995,0,0,1-3.72,14.452c.048.036.072.06.108.06s.072-.036.132-.12l.54-.732a.2.2,0,0,0,.06-.132.127.127,0,0,0-.06-.108,10.483,10.483,0,0,0-1.74-1.236c-.108-.06-.156-.048-.24.06Zm.528-3.024c-.108.132-.108.156,0,.216a8.712,8.712,0,0,1,1.728,1.392c.108.084.132.072.216-.048l.54-.732c.108-.144.1-.18.012-.252A10.464,10.464,0,0,0-4.152,9.172c-.1-.06-.132-.06-.228.06ZM14.016,15.34c1.02-.42,1.8-.684,2.58-.96a3.837,3.837,0,0,1,.732-.18c.12-.024.18-.072.18-.168a.474.474,0,0,0-.1-.264,7.392,7.392,0,0,0-.84-1.056,3.609,3.609,0,0,1-.912.648c-.612.312-1.3.624-1.764.84a1.325,1.325,0,0,0-1.464-1.3,2.388,2.388,0,0,0-1.2.372l-.012-.024a12.383,12.383,0,0,0,.9-1.332c.876-.1,1.908-.228,2.808-.36.168-.024.216-.072.2-.192a4.046,4.046,0,0,0-.12-.864c-.024-.108-.06-.144-.192-.12a19.3,19.3,0,0,1-2.184.372c.144-.324.2-.48.276-.648a.935.935,0,0,1,.2-.288.232.232,0,0,0,.084-.18.215.215,0,0,0-.144-.2A7.577,7.577,0,0,0,11.688,9.1a2.921,2.921,0,0,1-.084.732,9.247,9.247,0,0,1-.36,1.032,26.469,26.469,0,0,1-2.76.012c.036.36.084.8.12,1,.024.132.06.192.168.192.708,0,1.356-.012,1.92-.036A12.262,12.262,0,0,1,8.184,15c-.06.048-.084.084-.084.132a.2.2,0,0,0,.048.108,5.708,5.708,0,0,0,.684.792.239.239,0,0,0,.132.084c.048,0,.084-.036.144-.108a16.171,16.171,0,0,1,1.2-1.308,2.9,2.9,0,0,1,1.656-.864c.54-.024.684.216.72.828-1.812.936-2.532,1.776-2.532,2.928,0,1.392,1.044,1.98,3.012,1.98a21.344,21.344,0,0,0,2.976-.156c.1,0,.144-.084.132-.228a5.37,5.37,0,0,0-.108-.984c-.012-.108-.06-.144-.168-.132a20.508,20.508,0,0,1-2.988.24c-1.26,0-1.668-.324-1.668-.828,0-.576.384-1.044,1.452-1.6-.012.432-.012,1.032-.012,1.464,0,.12.048.192.156.192a6.491,6.491,0,0,0,.852-.06c.156-.024.228-.084.228-.216Zm7.932-.216a3.167,3.167,0,0,0-.636,1.716c0,1.56,1.356,2.424,4.128,2.424a19.046,19.046,0,0,0,3.516-.288c.144-.024.216-.072.2-.18a10.034,10.034,0,0,0-.192-1.176c-.024-.108-.084-.144-.252-.108a15.267,15.267,0,0,1-3.252.348c-2.064,0-2.844-.372-2.844-1.128a1.972,1.972,0,0,1,.312-.912c.06-.1.048-.156-.06-.216C22.56,15.436,22.26,15.28,21.948,15.124Zm.264-4.536c-.024.432-.048.78-.048,1.068,0,.144.048.192.156.216a14.359,14.359,0,0,0,2.208.2,7.327,7.327,0,0,0,.876-.036c-.42.252-.948.588-1.572,1a2.867,2.867,0,0,1,.84.384.5.5,0,0,0,.252.072.511.511,0,0,0,.3-.108,6.991,6.991,0,0,1,2.94-1.188c.144-.012.2-.084.2-.252a7,7,0,0,0-.108-1.02c-.012-.1-.06-.144-.18-.132-.768.06-1.62.108-2.5.108A15.138,15.138,0,0,1,22.212,10.588Zm6-.576A5.954,5.954,0,0,1,29.424,11.4a.125.125,0,0,0,.2.036l.5-.372a.121.121,0,0,0,.036-.192,5.523,5.523,0,0,0-1.14-1.284c-.072-.06-.12-.072-.18-.024Zm1.1-.792a5.677,5.677,0,0,1,1.2,1.38.123.123,0,0,0,.2.036l.48-.372a.139.139,0,0,0,.036-.216A5.011,5.011,0,0,0,30.1,8.812c-.072-.06-.108-.072-.18-.024Zm10.008,5.9v3.048a2.765,2.765,0,0,1-1.2-1.152c.06-.192.108-.4.168-.6a.92.92,0,0,1,.12-.312.3.3,0,0,0,.1-.2c0-.1-.072-.132-.228-.18-.336-.1-.6-.156-.984-.24a4.044,4.044,0,0,1-.1.684,4.714,4.714,0,0,1-1.74,2.9,2.374,2.374,0,0,1,.624.552c.12.144.192.216.276.216.06,0,.132-.06.24-.168a5.829,5.829,0,0,0,1.14-1.632c.936,1.32,2.388,1.692,4.632,1.728h.816c.348,0,.4-.012.444-.408a2.936,2.936,0,0,1,.216-.768c-.552.036-1.056.048-1.608.048a12.246,12.246,0,0,1-1.74-.12V17.26h1.068c.84,0,1.14.024,1.224.024.12,0,.132-.012.132-.132v-.78c0-.12-.012-.132-.132-.132-.084,0-.384.024-1.224.024H40.5v-1.14h1.3c1.152,0,1.548.024,1.62.024.132,0,.144-.012.144-.12v-.816c0-.132-.012-.144-.144-.144-.072,0-.468.024-1.62.024H38.268c-1.14,0-1.548-.024-1.62-.024-.12,0-.132.012-.132.144v.816c0,.108.012.12.132.12.072,0,.48-.024,1.62-.024Zm-.6-5.772c-1.056,0-1.4-.024-1.476-.024-.12,0-.132.012-.132.144,0,.072.024.372.024,1.092v1.668c0,.708-.024,1.008-.024,1.092,0,.12.012.132.132.132.072,0,.42-.024,1.476-.024h2.34c1.044,0,1.392.024,1.464.024.12,0,.132-.012.132-.132,0-.072-.024-.384-.024-1.092V10.564c0-.72.024-1.02.024-1.092,0-.132-.012-.144-.132-.144-.072,0-.42.024-1.464.024Zm2.736,3.18H38.3v-.708H41.46Zm0-2.256v.7H38.3v-.7Zm-6.192,5.148.624-.276c.348-.156.36-.132.36-.528.012-.276.024-.54.048-.78-.348.168-.7.3-1.032.432v-1.86c.708,0,.948.024,1.02.024.12,0,.132-.012.132-.132v-.876c0-.12-.012-.132-.132-.132-.072,0-.312.024-1.02.024v-.66a3.682,3.682,0,0,1,.072-1.212.627.627,0,0,0,.084-.252c0-.072-.084-.12-.192-.132-.42-.048-.78-.072-1.224-.084a11.667,11.667,0,0,1,.084,1.7v.636h-.156c-.816,0-1.056-.024-1.128-.024-.12,0-.132.012-.132.132V12.3c0,.12.012.132.132.132.072,0,.312-.024,1.128-.024h.156v2.244l-.384.108a7.425,7.425,0,0,1-1.092.228,9.1,9.1,0,0,0,.2,1.152q.036.144.144.144a.319.319,0,0,0,.192-.072,1.34,1.34,0,0,1,.42-.2c.168-.048.336-.108.516-.168v2.364c0,.348-.072.456-.372.456a6.938,6.938,0,0,1-.876-.036,3.821,3.821,0,0,1,.288.864c.1.372.1.372.468.36a2.133,2.133,0,0,0,1.32-.264c.288-.2.384-.528.384-1.188,0-.6-.036-1.248-.036-2.4Zm19.128-2.7c1.092,0,1.464.024,1.536.024.12,0,.132-.012.132-.12V11.9c0-.12-.012-.132-.132-.132-.072,0-.444.024-1.536.024H50.5a1.168,1.168,0,0,1,.336-.372c.084-.048.156-.108.156-.168,0-.084-.06-.132-.144-.156-.36-.084-.732-.156-1.164-.216a4.805,4.805,0,0,1-.432.816l-.06.1H47.424c-1.092,0-1.464-.024-1.536-.024-.132,0-.144.012-.144.132v.732c0,.108.012.12.144.12.072,0,.444-.024,1.536-.024h1.044l-.324.36c-.2.2-.432.444-.636.624-.084.072-.1.156.072.2l.684.216c.192.06.216.06.3-.024.072-.06.156-.132.24-.216.384.072.768.156,1.128.24a19.236,19.236,0,0,1-3.96.444,2.4,2.4,0,0,1,.4.708c.1.264.132.276.432.252a18.62,18.62,0,0,0,3.312-.468,8.006,8.006,0,0,1,.084.96H47.244c-1.068,0-1.44-.024-1.512-.024-.132,0-.144.012-.144.132v.78c0,.12.012.132.144.132.072,0,.444-.024,1.512-.024h2.064a11.645,11.645,0,0,1-4.044,1.728,2.933,2.933,0,0,1,.5.732c.108.2.156.276.264.276a1.284,1.284,0,0,0,.276-.06,10.467,10.467,0,0,0,3.912-2.2c-.012,1.236-.06,2.052-.06,2.292,0,.12.012.132.132.132h.984c.12,0,.132-.012.132-.132,0-.24-.036-1.1-.048-2.316a9.362,9.362,0,0,0,4.032,2.208c.36.1.384.108.528-.24a2.962,2.962,0,0,1,.5-.8,11.055,11.055,0,0,1-4.2-1.62h2.268c1.068,0,1.44.024,1.512.024.132,0,.144-.012.144-.132v-.78c0-.12-.012-.132-.144-.132-.072,0-.444.024-1.512.024H51.384a2.242,2.242,0,0,1,.048-.468,2,2,0,0,0,.072-.312c0-.06-.06-.12-.18-.132-.372-.036-.708-.072-1.092-.084a6.758,6.758,0,0,0,1.284-.468c1.116.336,2.2.744,3.276,1.176.12.048.156.048.252-.1l.48-.636a.286.286,0,0,0,.072-.132c0-.036-.036-.06-.1-.084-1.008-.348-1.956-.636-2.892-.888a5.222,5.222,0,0,0,1.116-1.176Zm-1.992,0a4.438,4.438,0,0,1-1.068.864c-.624-.132-1.26-.264-1.908-.372a5.888,5.888,0,0,0,.4-.492ZM47.2,10.732H54.54v.624c0,.108.012.12.132.12h.972c.12,0,.132-.012.132-.12,0-.072-.024-.168-.024-.912v-.228c0-.156.024-.264.024-.336,0-.12-.012-.132-.132-.132-.084,0-.492.024-1.62.024h-2.6a1.279,1.279,0,0,1,.048-.444.613.613,0,0,0,.072-.24c0-.06-.072-.108-.18-.12-.42-.036-.852-.06-1.284-.06a4.059,4.059,0,0,1,.084.864H47.724c-1.14,0-1.548-.024-1.62-.024-.132,0-.144.012-.144.132,0,.072.024.18.024.372v.192c0,.744-.024.828-.024.912,0,.108.012.12.144.12h.96c.12,0,.132-.012.132-.12Z" transform="translate(764 6317)"/>
  </g>
</svg>
