<svg xmlns="http://www.w3.org/2000/svg" xmlns:xlink="http://www.w3.org/1999/xlink" width="218" height="255" viewBox="0 0 218 255">
  <defs>
    <filter id="長方形_2176" x="6" y="7" width="212" height="248" filterUnits="userSpaceOnUse">
      <feOffset dx="3" dy="3" input="SourceAlpha"/>
      <feGaussianBlur stdDeviation="3" result="blur"/>
      <feFlood flood-opacity="0.161"/>
      <feComposite operator="in" in2="blur"/>
      <feComposite in="SourceGraphic"/>
    </filter>
    <filter id="長方形_2125" x="53" y="46" width="111" height="111" filterUnits="userSpaceOnUse">
      <feOffset dy="3" input="SourceAlpha"/>
      <feGaussianBlur stdDeviation="3" result="blur-2"/>
      <feFlood flood-opacity="0.161"/>
      <feComposite operator="in" in2="blur-2"/>
      <feComposite in="SourceGraphic"/>
    </filter>
  </defs>
  <g id="グループ_466" data-name="グループ 466" transform="translate(-0.476)">
    <g transform="matrix(1, 0, 0, 1, 0.48, 0)" filter="url(#長方形_2176)">
      <g id="長方形_2176-2" data-name="長方形 2176" transform="translate(12 13)" fill="#fff" stroke="#707070" stroke-width="0.2">
        <rect width="194" height="230" stroke="none"/>
        <rect x="0.1" y="0.1" width="193.8" height="229.8" fill="none"/>
      </g>
    </g>
    <g id="グループ_463" data-name="グループ 463">
      <ellipse id="楕円形_205" data-name="楕円形 205" cx="20" cy="21" rx="20" ry="21" transform="translate(0.476)" fill="#d2b600"/>
    </g>
    <path id="パス_1944" data-name="パス 1944" d="M-2.712-13.425c.15-2.275,1.125-3.45,2.7-3.45a2.381,2.381,0,0,1,2.5,2.65c0,1.575-.55,2.575-3.05,4.975a24.143,24.143,0,0,0-5.45,7.075V.05H5.812v-2.5H-2.762C-1.987-4-.737-5.4,1.887-7.75c2.925-2.725,3.85-4.325,3.85-6.45,0-3.3-2.275-5.15-5.7-5.15a5.588,5.588,0,0,0-5.875,5.275Z" transform="translate(20.476 31)" fill="#fff"/>
    <path id="パス_1940" data-name="パス 1940" d="M-79.2-3.468c.264-.1.528-.2.78-.312.336-.144.336-.144.336-.528a5.153,5.153,0,0,1,.06-.78A10,10,0,0,1-79.2-4.62V-6.576c.7,0,.936.024,1.008.024.108,0,.12-.012.12-.132V-7.56c0-.132-.012-.144-.12-.144-.072,0-.312.024-1.008.024v-.648a3.832,3.832,0,0,1,.072-1.224.563.563,0,0,0,.072-.252c0-.06-.072-.108-.192-.12-.408-.048-.78-.072-1.236-.084a9.964,9.964,0,0,1,.1,1.7v.624h-.156c-.816,0-1.068-.024-1.14-.024-.108,0-.12.012-.12.144v.876c0,.12.012.132.12.132.072,0,.324-.024,1.14-.024h.156v2.328l-.384.108a7.425,7.425,0,0,1-1.092.228,10.168,10.168,0,0,0,.192,1.14c.024.12.084.156.156.156a.319.319,0,0,0,.192-.072,1.391,1.391,0,0,1,.42-.192c.168-.048.336-.108.516-.168V-.78c0,.348-.084.456-.372.456a6.559,6.559,0,0,1-.852-.036,4.2,4.2,0,0,1,.3.864c.084.36.084.36.468.36A2.07,2.07,0,0,0-79.548.6c.276-.2.384-.528.384-1.2,0-.6-.036-1.248-.036-2.388Zm6.528-1.872c1.152,0,1.56.024,1.632.024.108,0,.12-.012.12-.144V-6.3c0-.12-.012-.132-.12-.132-.072,0-.48.024-1.632.024H-74.04V-7.6h.888c1.08,0,1.452.024,1.524.024.12,0,.132-.012.132-.132v-.852c0-.132-.012-.144-.132-.144-.072,0-.444.024-1.524.024h-.888a2.651,2.651,0,0,1,.06-.9.559.559,0,0,0,.072-.24c0-.06-.072-.108-.192-.12-.408-.036-.78-.072-1.248-.084a8.236,8.236,0,0,1,.084,1.344h-.6c-1.092,0-1.452-.024-1.524-.024-.132,0-.144.012-.144.144V-7.7c0,.12.012.132.144.132.072,0,.432-.024,1.524-.024h.6v1.188h-1.008c-1.152,0-1.56-.024-1.632-.024-.12,0-.132.012-.132.132v.84c0,.132.012.144.132.144.072,0,.48-.024,1.632-.024Zm-.96,2.232v2.4a.326.326,0,0,1-.336.372,11.552,11.552,0,0,1-1.284-.036,2.783,2.783,0,0,1,.36.912c.1.372.084.372.456.36A3.007,3.007,0,0,0-72.828.636a1.124,1.124,0,0,0,.408-1.02c0-.408-.024-.924-.024-1.476V-3.108c.96.012,1.32.024,1.392.024.108,0,.12-.012.12-.132v-.876c0-.12-.012-.132-.12-.132-.072,0-.432.024-1.392.024a1.274,1.274,0,0,1,.06-.552.354.354,0,0,0,.06-.18c0-.06-.072-.108-.2-.132a9.473,9.473,0,0,0-1.176-.1,4.706,4.706,0,0,1,.072.96h-2.484c-1.14,0-1.536-.024-1.608-.024-.132,0-.144.036-.144.156v.852c0,.12.012.132.144.132.072,0,.468-.024,1.608-.024Zm-3.468.852c-.132.084-.144.132-.06.228A6.894,6.894,0,0,1-76.056-.5c.036.06.06.084.1.084a.371.371,0,0,0,.144-.072l.7-.492c.144-.1.144-.132.072-.24a8.6,8.6,0,0,0-1.164-1.44.127.127,0,0,0-.108-.06.256.256,0,0,0-.144.06Zm9.828-1.668V-.732c0,1.1-.024,1.5-.024,1.572,0,.12.012.132.132.132h.912c.12,0,.132-.012.132-.132,0-.06-.024-.468-.024-1.572v-3.3c.192-.012.384-.036.588-.06l.12.528c.012.144.036.144.2.084l.588-.216A.268.268,0,0,0-64.5-3.78c-.012.372-.024.468-.024.528,0,.12.012.132.144.132h.864c.12,0,.132-.012.132-.132V-4.344h3.9v1.092c0,.12,0,.132.132.132h.876c.12,0,.132-.012.132-.132,0-.072-.024-.216-.024-1.092v-.42c0-.252.024-.408.024-.48,0-.12-.012-.132-.132-.132-.084,0-.468.024-1.572.024h-2.784c-1.092,0-1.476-.024-1.548-.024-.132,0-.144.072-.144.192,0,.06.024.228.024.552v.72a13.325,13.325,0,0,0-.756-2.172c-.048-.108-.1-.108-.18-.072l-.552.228c-.144.06-.168.1-.12.2a7.722,7.722,0,0,1,.288.732q-.63.054-1.224.072c.564-.744,1.212-1.668,1.836-2.664a1.567,1.567,0,0,1,.372-.468c.1-.06.132-.108.132-.192s-.036-.108-.144-.168a8.346,8.346,0,0,0-1-.444,5.356,5.356,0,0,1-.336.756c-.252.444-.5.876-.768,1.308l-.5-.588A16.114,16.114,0,0,0-66.42-9.036a.653.653,0,0,1,.228-.288.185.185,0,0,0,.108-.156c0-.072-.048-.132-.156-.192a8.561,8.561,0,0,0-1-.432,3.317,3.317,0,0,1-.216.636,12.62,12.62,0,0,1-.708,1.32l-.3-.312c-.084-.1-.12-.084-.216.036l-.444.588c-.048.072-.084.108-.084.156a.162.162,0,0,0,.06.108A13.468,13.468,0,0,1-67.6-5.808q-.324.468-.684.936a7.351,7.351,0,0,1-.864-.048c.036.384.084.708.144,1.02.024.12.06.192.144.192a.339.339,0,0,0,.18-.048,1.239,1.239,0,0,1,.456-.1Zm6.984-2.148c1.044,0,1.4.024,1.476.024.12,0,.132-.012.132-.132v-.732c0-.12-.012-.132-.132-.132-.072,0-.432.024-1.476.024h-.744V-7.8h1.08c1.1,0,1.488.024,1.56.024.12,0,.132-.012.132-.132v-.756c0-.108-.012-.12-.132-.12-.072,0-.456.024-1.56.024h-1.08v-.2a1.751,1.751,0,0,1,.06-.672.415.415,0,0,0,.084-.24c0-.048-.072-.108-.192-.12-.42-.048-.768-.072-1.212-.084a5.882,5.882,0,0,1,.084,1.236v.084h-.708c-1.116,0-1.488-.024-1.56-.024-.12,0-.132.012-.132.12v.756c0,.12.012.132.132.132.072,0,.444-.024,1.56-.024h.708v.78h-.444c-1.056,0-1.4-.024-1.476-.024-.108,0-.12.012-.12.132v.732c0,.12.012.132.12.132.072,0,.42-.024,1.476-.024Zm.144,3.648a2.617,2.617,0,0,1,.06-.9A.659.659,0,0,0-60-3.6c0-.072-.072-.12-.2-.132-.384-.048-.72-.072-1.116-.084A8.339,8.339,0,0,1-61.26-2.6V-.24c0,.5.12.72.336.852A1.93,1.93,0,0,0-59.9.78c.852,0,1.176-.108,1.428-.324s.36-.552.408-1.44c.012-.312.024-.324-.3-.42a3.324,3.324,0,0,1-.7-.312c-.012.876-.048,1.14-.144,1.272a.57.57,0,0,1-.468.168.688.688,0,0,1-.384-.072c-.072-.048-.084-.132-.084-.312ZM-65.4-.036a2.4,2.4,0,0,1,.588.66c.12.18.168.264.264.264a.825.825,0,0,0,.276-.1,3.6,3.6,0,0,0,2.328-3.48,3.8,3.8,0,0,1,.084-.624.6.6,0,0,0,.06-.252c0-.084-.072-.12-.216-.144-.324-.048-.672-.084-1.044-.132a9.363,9.363,0,0,1,.012,1C-63.108-1.548-63.552-.612-65.4-.036Zm-3.756-.2a4.1,4.1,0,0,1,.66.312.745.745,0,0,0,.276.144c.072,0,.1-.1.156-.288a14.156,14.156,0,0,0,.4-2.16,1.555,1.555,0,0,1,.1-.444.271.271,0,0,0,.06-.18c0-.048-.06-.1-.2-.144a8.148,8.148,0,0,0-.924-.192,5.361,5.361,0,0,1-.024.768A7.034,7.034,0,0,1-69.156-.24Zm3.4-2.82c-.144.036-.156.072-.12.192A12.264,12.264,0,0,1-65.532-1c.012.132.036.144.2.084l.6-.2c.168-.06.156-.1.144-.216a13.282,13.282,0,0,0-.42-1.8c-.036-.12-.06-.12-.2-.084Zm17.532-5.16V-.876c0,.36-.156.444-.588.444S-49.824-.456-50.268-.5A2.859,2.859,0,0,1-49.92.42c.072.384.072.384.456.384A4.213,4.213,0,0,0-47.3.492a1.228,1.228,0,0,0,.42-1.116c0-.492-.036-1.068-.036-2.34V-8.22c.84.012,1.176.024,1.248.024.12,0,.132-.012.132-.132v-.984c0-.12-.012-.132-.132-.132-.072,0-.444.024-1.5.024h-7.392c-1.056,0-1.428-.024-1.5-.024-.12,0-.132.012-.132.132v.984c0,.12.012.132.132.132.072,0,.444-.024,1.5-.024Zm-5.484,6.8c.12,0,.132-.012.132-.132v-.8h2.388v.516c0,.12.012.132.144.132h.948c.12,0,.132-.012.132-.132,0-.072-.024-.408-.024-2.16V-5.34c0-.888.024-1.248.024-1.32,0-.12-.012-.132-.132-.132-.084,0-.4.024-1.344.024h-1.872c-.936,0-1.26-.024-1.344-.024-.12,0-.132.012-.132.132,0,.084.024.444.024,1.6V-3.8c0,1.836-.024,2.172-.024,2.256,0,.12.012.132.132.132Zm.132-4.248h2.388v2.2H-53.58Zm14.964,1.452c0-1.008.024-1.536.024-1.608,0-.12-.012-.132-.132-.132-.072,0-.372.024-1.26.024h-1.5c-.888,0-1.188-.024-1.272-.024-.12,0-.132.012-.132.132,0,.084.024.528.024,1.5v3.6c0,.972-.024,1.392-.024,1.476,0,.108.012.12.132.12h.912c.12,0,.132-.012.132-.12,0-.072-.024-.528-.024-1.476V-1.5h1.992v.9c0,.264-.108.36-.4.36a4.733,4.733,0,0,1-.72-.048,2.443,2.443,0,0,1,.24.708c.072.36.072.36.444.36.9-.012,1.128-.1,1.32-.264a1.186,1.186,0,0,0,.264-.948c0-.372-.024-1.02-.024-1.632Zm-1.128-.744v.8h-1.992v-.8Zm-1.992,2.532v-.8h1.992v.8Zm5.292.66A25.2,25.2,0,0,0-33.828-2.9a1.825,1.825,0,0,1,.54-.216c.108-.012.192-.072.192-.144s-.036-.12-.12-.228a6.373,6.373,0,0,0-.744-.78,2.964,2.964,0,0,1-.648.5,11.334,11.334,0,0,1-1.836.876v-.576c0-.468.012-.54.06-.636a.462.462,0,0,0,.072-.216c0-.084-.072-.12-.2-.144-.4-.048-.816-.072-1.2-.084a6.317,6.317,0,0,1,.072,1.164V-.36a.867.867,0,0,0,.42.876,4.936,4.936,0,0,0,1.9.216A3.965,3.965,0,0,0-33.336.36c.336-.24.48-.588.564-1.332.036-.312.036-.324-.264-.4A3.5,3.5,0,0,1-33.9-1.7c-.024.648-.024.924-.2,1.116a2.194,2.194,0,0,1-1.164.216,3.106,3.106,0,0,1-.96-.084c-.18-.084-.216-.18-.216-.408Zm-.012-7.128a1.589,1.589,0,0,1,.06-.66.418.418,0,0,0,.072-.2c0-.072-.072-.12-.2-.132-.4-.048-.816-.072-1.2-.084A6.459,6.459,0,0,1-37.656-8.8v2.844c0,.444.132.672.408.78a5.191,5.191,0,0,0,1.836.2,3.938,3.938,0,0,0,2-.312c.336-.228.468-.564.552-1.284.012-.324.012-.324-.276-.408a3.747,3.747,0,0,1-.84-.348c-.024.66-.024.9-.168,1.044s-.564.216-1.2.216a3.431,3.431,0,0,1-.912-.072c-.168-.06-.2-.144-.2-.36V-7.2a18.693,18.693,0,0,0,2.544-1.032,2.282,2.282,0,0,1,.552-.216c.1-.024.168-.072.168-.144a.284.284,0,0,0-.108-.2,6.124,6.124,0,0,0-.732-.768,2.7,2.7,0,0,1-.66.492,14.388,14.388,0,0,1-1.764.768ZM-40-8.8c-.132.06-.156.1-.084.2.168.252.324.5.48.768-.6.072-1.236.12-1.884.168.24-.456.5-1.02.7-1.44a.957.957,0,0,1,.216-.348.3.3,0,0,0,.132-.216c0-.084-.06-.132-.192-.18a7.45,7.45,0,0,0-1.14-.216,4.736,4.736,0,0,1-.216.816A14.821,14.821,0,0,1-42.7-7.572c-.312.012-.672.012-.984.012.036.348.1.72.156,1.044.036.144.084.192.156.192a.445.445,0,0,0,.18-.048,1.5,1.5,0,0,1,.48-.108c1.212-.108,2.46-.24,3.588-.408l.216.528c.06.132.1.144.228.06l.684-.372c.132-.072.144-.12.084-.24a15.263,15.263,0,0,0-1.26-2.148c-.072-.1-.12-.132-.252-.06Zm15.588,6.12a6.184,6.184,0,0,0-.948-.072c-1.356,0-2.22.708-2.22,1.752s.888,1.7,2.208,1.7c1.368,0,2.232-.552,2.232-1.752A8.925,8.925,0,0,1-21.672-.036c.048.048.084.072.12.072s.072-.024.108-.084a7.383,7.383,0,0,0,.552-.972c.06-.12.048-.168-.072-.252a9.409,9.409,0,0,0-2.16-1.116,15.672,15.672,0,0,1-.132-2.04,1.247,1.247,0,0,1,.048-.492,1.5,1.5,0,0,0,.072-.252.184.184,0,0,0-.168-.192,6.487,6.487,0,0,0-1.308-.228,4.214,4.214,0,0,1,.1.852C-24.5-4.176-24.48-3.444-24.408-2.676Zm.024,1.14a1.382,1.382,0,0,1,.012.24c0,.5-.4.852-1.044.852-.684,0-1.02-.192-1.02-.576,0-.456.468-.7,1.068-.7A3.058,3.058,0,0,1-24.384-1.536ZM-26.34-7.692c.108-.36.2-.732.288-1.02a1.319,1.319,0,0,1,.192-.444.3.3,0,0,0,.108-.228c0-.084-.072-.156-.192-.18a11.1,11.1,0,0,0-1.4-.252,4.644,4.644,0,0,1-.072.972c-.084.432-.168.84-.312,1.344-.552.048-.912.06-1.38.06-.348,0-.624-.012-1.116-.048a6.27,6.27,0,0,0,.12,1.02c.024.156.048.192.168.192.3.012.4.012.66.012.372,0,.744,0,1.2-.024A24.209,24.209,0,0,1-30.156-2.1a.23.23,0,0,0-.06.144c0,.048.024.084.084.132a5.7,5.7,0,0,0,.828.612.333.333,0,0,0,.144.06c.048,0,.084-.036.132-.12a33.158,33.158,0,0,0,2.34-5.148c.744-.108,1.332-.192,1.98-.324.1-.012.144-.036.144-.144a6.511,6.511,0,0,0-.108-.972c-.024-.132-.072-.132-.18-.1A12.9,12.9,0,0,1-26.34-7.692Zm2.664,1.14a10.371,10.371,0,0,1,2.484,1.308.167.167,0,0,0,.108.048c.036,0,.072-.024.108-.084a7.3,7.3,0,0,0,.5-.888.286.286,0,0,0,.048-.144c0-.048-.036-.084-.108-.132a9.362,9.362,0,0,0-2.352-1.128.167.167,0,0,0-.252.084C-23.292-7.272-23.472-6.912-23.676-6.552ZM-8.76.612c1.152,0,1.536.024,1.608.024.132,0,.144-.012.144-.132V-.432c0-.132-.012-.144-.144-.144-.06,0-.3.024-.9.024V-7.236c0-1.356.024-2.052.024-2.124,0-.132-.012-.144-.144-.144-.072,0-.4.024-1.368.024h-1.9c-.96,0-1.3-.024-1.368-.024-.12,0-.132.012-.132.144,0,.072.024.756.024,2.124V-.552c-.7,0-.948-.024-1.008-.024-.132,0-.144.012-.144.144V.5c0,.12.012.132.144.132.072,0,.468-.024,1.62-.024ZM-11.688-.552V-2.5h2.412V-.552Zm0-3.1V-5.424h2.412v1.776Zm2.412-4.668v1.74h-2.412v-1.74Zm-5.388,2.3c-.168.06-.18.1-.132.2.12.24.24.48.336.732l-1.38.1c.552-.72,1.2-1.632,1.812-2.592a1.428,1.428,0,0,1,.4-.492c.1-.048.132-.1.132-.18s-.036-.12-.144-.18a7.788,7.788,0,0,0-1.008-.516,6.18,6.18,0,0,1-.36.828c-.276.48-.564.96-.864,1.428-.18-.228-.384-.444-.576-.66a17.34,17.34,0,0,0,1.068-1.692.732.732,0,0,1,.228-.288c.06-.048.108-.1.108-.156s-.036-.12-.156-.192a7.584,7.584,0,0,0-1.044-.444,3.668,3.668,0,0,1-.276.744,12.251,12.251,0,0,1-.66,1.248l-.36-.36q-.072-.072-.108-.072c-.036,0-.072.036-.12.108l-.4.624c-.048.072-.084.12-.084.156s.024.06.072.108a15.679,15.679,0,0,1,1.656,1.812q-.288.432-.612.828H-17.3a8.9,8.9,0,0,1-.96-.024c.06.384.108.72.168,1.008.024.12.06.2.132.2a.453.453,0,0,0,.192-.06,1.209,1.209,0,0,1,.432-.1c.36-.024.732-.048,1.128-.084V-.756c0,1.1-.024,1.5-.024,1.572,0,.12.012.132.132.132h.936c.12,0,.132-.012.132-.132,0-.06-.024-.468-.024-1.572V-4.068c.312-.036.624-.072.924-.1l.144.54c.024.108.072.132.2.084l.564-.2c.156-.06.192-.108.144-.24a13.473,13.473,0,0,0-.876-2.148c-.06-.108-.084-.132-.228-.072Zm-3.624,5.7a3.209,3.209,0,0,1,.612.3A.592.592,0,0,0-17.4.132c.06,0,.108-.072.168-.252a12.618,12.618,0,0,0,.54-2.208,2.177,2.177,0,0,1,.1-.432.342.342,0,0,0,.072-.168c0-.06-.06-.108-.2-.144a8.574,8.574,0,0,0-.924-.156,3.059,3.059,0,0,1-.048.672A9.69,9.69,0,0,1-18.288-.312ZM-14.6-3.18c-.144.036-.192.06-.144.192a8.082,8.082,0,0,1,.384,1.932c.012.12.036.12.216.072l.588-.156c.156-.036.168-.084.156-.216a10.69,10.69,0,0,0-.444-1.872c-.036-.132-.06-.144-.2-.108ZM2.52-5.268a19.138,19.138,0,0,0,.336,3.06l.084.42A7.743,7.743,0,0,1,2-.84c-.012-.252-.012-.708-.012-1.524v-1.08c0-.768.024-1.1.024-1.176,0-.12-.012-.132-.132-.132-.072,0-.3.024-1.008.024H-.072c-.72,0-.948-.024-1.032-.024-.12,0-.132.012-.132.132,0,.084.024.432.024,1.476V-2.2c0,1.752-.024,2.076-.024,2.148,0,.12.012.132.132.132h.732c.12,0,.132-.012.132-.132V-.732H1.02v.144c0,.12.012.132.132.132H1.5A10.067,10.067,0,0,1,.624.12a2.457,2.457,0,0,1,.552.612c.084.132.132.192.192.192A.535.535,0,0,0,1.644.792,10.93,10.93,0,0,0,3.3-.672C3.7.288,4.176.744,4.632.744c.576,0,.912-.5,1.068-1.932.024-.24.036-.288-.18-.4a3.737,3.737,0,0,1-.612-.432C4.86-.9,4.752-.612,4.62-.612S4.3-.96,4.1-1.692A11.27,11.27,0,0,0,5-3.3a3.474,3.474,0,0,1,.312-.588c.084-.1.132-.144.132-.24,0-.072-.036-.132-.144-.2a6.458,6.458,0,0,0-.912-.456,6.5,6.5,0,0,1-.276.96,6.553,6.553,0,0,1-.324.72C3.7-3.72,3.648-4.44,3.6-5.268h.168c1.164,0,1.572.024,1.632.024.132,0,.144-.012.144-.132v-.792c0-.132-.012-.144-.144-.144-.06,0-.468.024-1.632.024h-.2C3.54-6.912,3.54-7.6,3.54-8.34a3.391,3.391,0,0,1,.072-1.176.873.873,0,0,0,.072-.252c0-.06-.1-.12-.2-.132-.432-.048-.684-.06-1.128-.072A14.5,14.5,0,0,1,2.436-8.3l.036,2.016H1.56l.216-.636A.511.511,0,0,1,1.9-7.14a.169.169,0,0,0,.072-.144c0-.072-.06-.1-.132-.132A6.085,6.085,0,0,0,.9-7.668a4.4,4.4,0,0,1-.06.516c-.048.264-.12.576-.2.864h-.5A8.138,8.138,0,0,0-.252-7.536c-.048-.12-.072-.132-.2-.1l-.552.156c-.156.048-.18.06-.132.18A6.665,6.665,0,0,1-.828-6.288c-.528,0-.756-.024-.8-.024-.12,0-.132.012-.132.144v.792c0,.12.012.132.132.132.072,0,.48-.024,1.644-.024ZM-.24-1.584v-.732H1.02v.732Zm0-2.292H1.02v.732H-.24ZM.888-7.812c.828,0,1.068.024,1.14.024.12,0,.132-.012.132-.144v-.78c0-.108-.012-.12-.132-.12-.072,0-.312.024-1.1.024v-.348a1.524,1.524,0,0,1,.048-.492.588.588,0,0,0,.084-.228c0-.048-.072-.1-.2-.108a11.045,11.045,0,0,0-1.128-.06A4.1,4.1,0,0,1-.2-9.156v.348c-.8,0-1.056-.024-1.128-.024-.12,0-.132.012-.132.12v.4a.67.67,0,0,0-.1-.06,5.983,5.983,0,0,0-.924-.432,3.974,3.974,0,0,1-.336.732c-.228.408-.444.816-.7,1.224l-.432-.528c.348-.54.636-1.068.984-1.692a.557.557,0,0,1,.2-.288.185.185,0,0,0,.108-.156c0-.072-.036-.132-.156-.192-.288-.144-.612-.264-.936-.4a4.689,4.689,0,0,1-.24.684,9.059,9.059,0,0,1-.66,1.284l-.18-.192c-.084-.1-.1-.1-.192.012l-.492.576c-.108.132-.12.168-.024.24A17.459,17.459,0,0,1-4.14-5.88c-.216.336-.456.66-.7.984-.24,0-.48,0-.768-.012.048.348.108.7.18,1.008.036.132.084.2.132.2a.332.332,0,0,0,.192-.06,1.077,1.077,0,0,1,.456-.1c.252-.012.492-.036.72-.06V-.756c0,1.1-.024,1.5-.024,1.572,0,.12.012.132.132.132h.864c.12,0,.132-.012.132-.132,0-.06-.024-.468-.024-1.572V-4.02c.144-.012.3-.036.456-.06l.072.408c.012.12.06.144.216.1l.5-.144c.144-.036.156-.072.132-.192a12.872,12.872,0,0,0-.624-2.064c-.036-.1-.072-.1-.216-.06L-2.76-5.9c-.168.048-.168.084-.132.216.1.228.18.456.264.684-.348.036-.684.06-1.032.072.576-.768,1.152-1.62,1.776-2.628.168-.288.228-.384.348-.456l.072-.048v.132c0,.132.012.144.132.144.072,0,.324-.024,1.14-.024Zm-6.5,7.56A3.41,3.41,0,0,1-5.064.06.592.592,0,0,0-4.788.2c.06,0,.1-.084.156-.276A10.382,10.382,0,0,0-4.212-2.3a1.42,1.42,0,0,1,.06-.42A.273.273,0,0,0-4.1-2.9c0-.06-.036-.108-.18-.144C-4.476-3.1-4.8-3.156-5.136-3.2a7.13,7.13,0,0,1-.012.732A7.307,7.307,0,0,1-5.616-.252ZM-2.5-3.18c-.144.036-.168.048-.144.18A14.748,14.748,0,0,1-2.316-.8c.012.144.024.156.216.1l.468-.144c.144-.048.18-.06.168-.192a13.9,13.9,0,0,0-.36-2.136c-.036-.12-.06-.144-.2-.108Zm7.7-4.32c.12-.048.144-.12.108-.24a6.581,6.581,0,0,0-.648-1.584c-.072-.108-.084-.1-.228-.036l-.54.216c-.144.06-.156.108-.1.216A6.744,6.744,0,0,1,4.392-7.32c.036.144.084.144.228.084Zm2.1,1.56a6.977,6.977,0,0,0,.768,1.248c.132.18.228.252.348.252.06,0,.156-.036.324-.18a7.639,7.639,0,0,1,.828-.432,11.712,11.712,0,0,1,4.332-1.236c1.332,0,2.064.7,2.064,1.824a2.618,2.618,0,0,1-1.656,2.388,11.273,11.273,0,0,1-3.252.888,2.227,2.227,0,0,1,.84.948c.084.228.18.24.42.192a10.21,10.21,0,0,0,3.048-1A3.481,3.481,0,0,0,17.484-4.38c0-1.884-1.38-3.18-3.528-3.18a15.562,15.562,0,0,0-4.32,1A10.646,10.646,0,0,1,7.308-5.94Zm8.208-2.724a5.954,5.954,0,0,1,1.212,1.392.125.125,0,0,0,.2.036l.5-.372a.121.121,0,0,0,.036-.192,5.523,5.523,0,0,0-1.14-1.284c-.072-.06-.12-.072-.18-.024Zm1.1-.792a5.677,5.677,0,0,1,1.2,1.38.123.123,0,0,0,.2.036l.48-.372a.139.139,0,0,0,.036-.216A5.011,5.011,0,0,0,17.4-9.864c-.072-.06-.108-.072-.18-.024Zm9.768-.288a3.463,3.463,0,0,1-.648.9c-1.032,1.128-2.028,2.124-3.048,3.228-.372.4-.588.66-.588,1.056s.18.66.636,1.008A30.29,30.29,0,0,1,27.108.5c.06.072.1.108.144.108s.1-.036.168-.1c.2-.18.552-.528.828-.828.06-.06.084-.1.084-.144a.288.288,0,0,0-.084-.156,33.294,33.294,0,0,0-4.464-3.78c-.108-.084-.156-.144-.156-.216s.048-.132.156-.264c.924-.96,2.244-2.2,3.276-3.12a2.273,2.273,0,0,1,.576-.42A.241.241,0,0,0,27.8-8.64a.294.294,0,0,0-.1-.192A9.554,9.554,0,0,0,26.388-9.744Zm9.084.144a11.1,11.1,0,0,1-.1,1.368,25.365,25.365,0,0,0-.288,2.988,7.677,7.677,0,0,0,.36,2.436c.024.084.084.168.168.156.3-.036.816-.108.96-.144a.168.168,0,0,0,.156-.192,1.5,1.5,0,0,1,.06-.36A9.824,9.824,0,0,1,37.5-4.884a.565.565,0,0,0,.12-.3.276.276,0,0,0-.072-.192,2.488,2.488,0,0,1-.372-.78c-.324.612-.576,1.068-.84,1.536a12.123,12.123,0,0,1,.036-1.32c.072-.624.168-1.476.336-2.292a1.385,1.385,0,0,1,.216-.564.275.275,0,0,0,.084-.192c0-.108-.072-.18-.228-.24A6.289,6.289,0,0,0,35.472-9.6Zm3.84.024a5.749,5.749,0,0,1,.252,1.308c.084.768.144,2.016.144,2.868A5.778,5.778,0,0,1,38.7-1.572,5.939,5.939,0,0,1,36.66.036a2.784,2.784,0,0,1,1.02.552.348.348,0,0,0,.252.132.416.416,0,0,0,.24-.084A6.613,6.613,0,0,0,40.152-1.3a7.883,7.883,0,0,0,.912-4.164c0-.864-.084-1.956-.168-3.1a4.248,4.248,0,0,1,.024-.552c.024-.2,0-.264-.24-.324A6.93,6.93,0,0,0,39.312-9.576ZM51.7-7.356a2.726,2.726,0,0,1,2.688,2.784c0,2.268-1.6,3.108-3.624,3.588a2.545,2.545,0,0,1,.84.756c.156.24.264.288.516.216,2.436-.732,3.7-2.136,3.7-4.368,0-2.388-1.692-4.164-4.572-4.164a5.251,5.251,0,0,0-3.9,1.536,4.421,4.421,0,0,0-1.356,3.12c0,1.956,1.068,3.084,2.124,3.084a2.279,2.279,0,0,0,2.04-1.38,15.026,15.026,0,0,0,1.5-5.172Zm-1.44.072a13.711,13.711,0,0,1-1.272,4.3c-.324.576-.588.732-.9.732-.372,0-.816-.612-.816-1.716a3.455,3.455,0,0,1,.936-2.22A3.614,3.614,0,0,1,50.256-7.284Zm13.608-.684c.084-.252.168-.5.24-.756a2.615,2.615,0,0,1,.288-.708.351.351,0,0,0,.132-.264c0-.084-.084-.144-.216-.18-.36-.06-.828-.132-1.272-.18a5.413,5.413,0,0,1-.216,1.3q-.108.4-.252.792h-1.98c-1.176,0-1.572-.024-1.644-.024-.12,0-.132.012-.132.132v.84c0,.12.012.132.132.132.072,0,.468-.024,1.644-.024h1.536a11.048,11.048,0,0,1-4.116,4.56,3.129,3.129,0,0,1,.576.684c.108.168.168.24.252.24.06,0,.144-.06.288-.156a13.005,13.005,0,0,0,1.44-1.236h6.984A8.322,8.322,0,0,1,67.236-.6a.435.435,0,0,1-.492.324,6.307,6.307,0,0,1-1.044-.1,2.665,2.665,0,0,1,.252.852c.048.36.072.372.36.384.264.012.42.012.672.012A1.274,1.274,0,0,0,68.16.336a8.765,8.765,0,0,0,.624-3c.024-.372.036-.732.072-1.08.012-.12-.024-.156-.144-.156-.06,0-.4.024-1.236.024.072-.372.132-.78.18-1.128.048-.264.084-.552.132-.8.024-.12-.024-.144-.156-.144-.048,0-.288.024-.852.024.072-.36.144-.732.192-1.068.048-.288.084-.588.132-.84.024-.132-.024-.156-.144-.156-.084,0-.5.024-1.68.024Zm2.6,3.1a9.645,9.645,0,0,1-.18,1h-4.74a11.933,11.933,0,0,0,.744-1Zm-.684-2.04a9.488,9.488,0,0,1-.192.984h-2.64c.18-.312.336-.648.492-.984ZM60.636-2.244c-.156-.06-.18-.06-.228.072A6.208,6.208,0,0,1,59.172.048c-.084.1-.084.144.072.24l.72.444c.12.072.168.06.24-.024a7.452,7.452,0,0,0,1.224-2.472c.036-.12.036-.144-.108-.2ZM62-2.064c-.168.036-.192.048-.168.192a14.567,14.567,0,0,1,.288,2.22c.012.144.024.156.216.12l.732-.156c.168-.036.18-.06.168-.192a13.5,13.5,0,0,0-.4-2.208c-.024-.12-.048-.144-.2-.108Zm1.752-.168c-.156.036-.2.072-.156.192a10.375,10.375,0,0,1,.528,1.872c.024.132.06.132.228.084l.672-.2c.168-.048.168-.084.144-.192a9.508,9.508,0,0,0-.624-1.812c-.048-.108-.084-.132-.216-.1ZM60.216-9.6c-.168.084-.192.108-.108.216a5.69,5.69,0,0,1,.684,1.176c.06.144.084.156.264.072l.8-.372c.144-.06.156-.084.1-.192a6.668,6.668,0,0,0-.78-1.2c-.072-.084-.12-.1-.252-.036Zm5.136,7.212c-.132.048-.144.1-.1.192a8.389,8.389,0,0,1,.66,1.356c.048.12.072.132.24.06l.576-.24c.132-.06.132-.108.1-.216a8.058,8.058,0,0,0-.7-1.32c-.06-.1-.1-.108-.216-.06ZM77.136-7.356a2.726,2.726,0,0,1,2.688,2.784c0,2.268-1.6,3.108-3.624,3.588a2.545,2.545,0,0,1,.84.756c.156.24.264.288.516.216,2.436-.732,3.7-2.136,3.7-4.368,0-2.388-1.692-4.164-4.572-4.164a5.251,5.251,0,0,0-3.9,1.536,4.421,4.421,0,0,0-1.356,3.12c0,1.956,1.068,3.084,2.124,3.084a2.279,2.279,0,0,0,2.04-1.38,15.026,15.026,0,0,0,1.5-5.172Zm-1.44.072a13.711,13.711,0,0,1-1.272,4.3c-.324.576-.588.732-.9.732-.372,0-.816-.612-.816-1.716a3.455,3.455,0,0,1,.936-2.22A3.614,3.614,0,0,1,75.7-7.284ZM-48.552,17.6v.636c0,.168.012.192.156.192.36.012.744.012,1.1,0,.168,0,.228-.036.228-.2-.024-.648-.06-1.236-.06-2.28V13.072c0-.708.012-1.356.012-1.944.012-.18-.024-.24-.156-.24-.564.024-1.476.024-2.256.024H-52.38c-.8,0-1.512,0-2.148-.036-.084,0-.132.048-.132.168.036.7.024,1.344.024,1.992v2.94c0,.912-.024,1.764-.036,2.388-.012.144.048.168.252.18.3.012.648.012.948,0,.216-.012.264-.036.264-.24V17.6Zm0-1.272H-53.22v-4.14h4.668Zm12.192-1.032c.888,0,1.776.012,2.676.024.168.012.216-.036.216-.18a8.844,8.844,0,0,0,0-1.128c0-.144-.036-.18-.216-.168-.924.012-1.848.036-2.76.036h-3.864a15.417,15.417,0,0,1-2.592-.144,13.025,13.025,0,0,0,.18,1.452c.036.18.132.252.276.252a9.6,9.6,0,0,1,1.764-.144Zm10.26-4.176a3.125,3.125,0,0,1,.084-1.128.631.631,0,0,0,.1-.276c0-.1-.06-.168-.228-.2a8.858,8.858,0,0,0-1.5-.192,9.157,9.157,0,0,1,.12,1.776V17c0,.768-.012,1.476-.048,2.364,0,.144.06.18.228.18a7.931,7.931,0,0,0,1.068,0c.168,0,.228-.036.216-.18-.024-.864-.048-1.572-.048-2.352V14.356a13.291,13.291,0,0,1,3.156,1.536.184.184,0,0,0,.132.06c.06,0,.108-.048.156-.132a7.053,7.053,0,0,0,.516-1.044c.06-.156,0-.24-.132-.312A16.927,16.927,0,0,0-26.1,12.832Zm2.16-.792a5.954,5.954,0,0,1,1.212,1.392.125.125,0,0,0,.2.036l.5-.372a.121.121,0,0,0,.036-.192A5.523,5.523,0,0,0-23.124,9.9c-.072-.06-.12-.072-.18-.024Zm1.1-.792a5.677,5.677,0,0,1,1.2,1.38.123.123,0,0,0,.2.036l.48-.372a.139.139,0,0,0,.036-.216,5.011,5.011,0,0,0-1.14-1.236c-.072-.06-.108-.072-.18-.024Zm7.848,1.872c-.828,0-1.8,0-2.616-.084A11.054,11.054,0,0,0-17.46,12.6c.024.144.06.216.216.216.648-.06,1.536-.084,2.232-.084l5.052-.024a26.9,26.9,0,0,1-2.772,2.832,18.748,18.748,0,0,0-1.7-1.344.361.361,0,0,0-.168-.084.253.253,0,0,0-.132.06c-.216.192-.624.576-.864.8a17.988,17.988,0,0,1,3.852,3.732q.072.108.144.108a.32.32,0,0,0,.156-.06,8.821,8.821,0,0,0,.78-.708.289.289,0,0,0,.108-.192.271.271,0,0,0-.084-.18,12.788,12.788,0,0,0-1.056-1.2,42.9,42.9,0,0,0,3.228-3.216,3.569,3.569,0,0,1,.576-.456.3.3,0,0,0,.156-.252.509.509,0,0,0-.1-.264,5.535,5.535,0,0,0-.864-.96.3.3,0,0,0-.2-.1.357.357,0,0,0-.168.06,2.207,2.207,0,0,1-1,.108ZM-3.8,13.348A7.093,7.093,0,0,1-2.676,15.28c.06.168.132.228.3.168a4.981,4.981,0,0,0,.768-.372c.1-.06.144-.1.144-.168a.812.812,0,0,0-.048-.18,6.426,6.426,0,0,0-1.032-1.776.215.215,0,0,0-.312-.084C-3.108,12.988-3.4,13.12-3.8,13.348Zm2.412-.612a8.164,8.164,0,0,1,1.008,1.92c.06.168.108.228.24.18a4.956,4.956,0,0,0,.828-.372c.156-.084.18-.144.12-.324A6.93,6.93,0,0,0-.12,12.388a.211.211,0,0,0-.312-.1C-.636,12.376-.912,12.508-1.392,12.736Zm3.78-.288a4.323,4.323,0,0,1-.276,1.272,12.425,12.425,0,0,1-1.62,2.892,10.434,10.434,0,0,1-2.88,2.5,2.709,2.709,0,0,1,1.02.5.275.275,0,0,0,.192.084.521.521,0,0,0,.288-.132,9.61,9.61,0,0,0,2.472-2.316A14.633,14.633,0,0,0,3.4,14.056a1.653,1.653,0,0,1,.36-.612c.1-.084.132-.144.132-.216s-.06-.132-.156-.2A5.706,5.706,0,0,0,2.388,12.448Zm12.324-.276a10.1,10.1,0,0,1-2.028,3.42,11.6,11.6,0,0,1-3.924,3,3.568,3.568,0,0,1,1.116.66.421.421,0,0,0,.3.132.581.581,0,0,0,.324-.108,13.456,13.456,0,0,0,3.408-2.856,14.131,14.131,0,0,0,2.328-3.9,1.445,1.445,0,0,1,.276-.468.329.329,0,0,0,.12-.228.409.409,0,0,0-.1-.24,4.423,4.423,0,0,0-.816-.828.281.281,0,0,0-.2-.084.382.382,0,0,0-.2.072,1.148,1.148,0,0,1-.66.12H10.368a21,21,0,0,1-2.3-.084c.024.348.072.972.108,1.212.024.168.072.252.228.24.516-.024,1.2-.06,1.98-.06Zm2.664-3.588a1.266,1.266,0,0,0-1.3,1.284,1.3,1.3,0,1,0,1.3-1.284Zm0,.576a.708.708,0,1,1-.708.708A.687.687,0,0,1,17.376,9.16Zm9.36,6.18c1.02-.42,1.8-.684,2.58-.96a3.837,3.837,0,0,1,.732-.18c.12-.024.18-.072.18-.168a.474.474,0,0,0-.1-.264,7.392,7.392,0,0,0-.84-1.056,3.609,3.609,0,0,1-.912.648c-.612.312-1.3.624-1.764.84a1.325,1.325,0,0,0-1.464-1.3,2.388,2.388,0,0,0-1.2.372l-.012-.024a12.383,12.383,0,0,0,.9-1.332c.876-.1,1.908-.228,2.808-.36.168-.024.216-.072.2-.192a4.046,4.046,0,0,0-.12-.864c-.024-.108-.06-.144-.192-.12a19.3,19.3,0,0,1-2.184.372c.144-.324.2-.48.276-.648a.935.935,0,0,1,.2-.288.232.232,0,0,0,.084-.18.215.215,0,0,0-.144-.2A7.577,7.577,0,0,0,24.408,9.1a2.921,2.921,0,0,1-.084.732,9.246,9.246,0,0,1-.36,1.032,26.469,26.469,0,0,1-2.76.012c.036.36.084.8.12,1,.024.132.06.192.168.192.708,0,1.356-.012,1.92-.036A12.262,12.262,0,0,1,20.9,15c-.06.048-.084.084-.084.132a.2.2,0,0,0,.048.108,5.708,5.708,0,0,0,.684.792.239.239,0,0,0,.132.084c.048,0,.084-.036.144-.108a16.171,16.171,0,0,1,1.2-1.308,2.9,2.9,0,0,1,1.656-.864c.54-.024.684.216.72.828-1.812.936-2.532,1.776-2.532,2.928,0,1.392,1.044,1.98,3.012,1.98a21.344,21.344,0,0,0,2.976-.156c.1,0,.144-.084.132-.228a5.37,5.37,0,0,0-.108-.984c-.012-.108-.06-.144-.168-.132a20.508,20.508,0,0,1-2.988.24c-1.26,0-1.668-.324-1.668-.828,0-.576.384-1.044,1.452-1.6-.012.432-.012,1.032-.012,1.464,0,.12.048.192.156.192a6.491,6.491,0,0,0,.852-.06c.156-.024.228-.084.228-.216Zm12.588-.216v3.048a2.765,2.765,0,0,1-1.2-1.152c.06-.192.108-.4.168-.6a.92.92,0,0,1,.12-.312.3.3,0,0,0,.1-.2c0-.1-.072-.132-.228-.18-.336-.1-.6-.156-.984-.24a4.044,4.044,0,0,1-.1.684,4.714,4.714,0,0,1-1.74,2.9,2.374,2.374,0,0,1,.624.552c.12.144.192.216.276.216.06,0,.132-.06.24-.168a5.829,5.829,0,0,0,1.14-1.632c.936,1.32,2.388,1.692,4.632,1.728h.816c.348,0,.4-.012.444-.408a2.936,2.936,0,0,1,.216-.768c-.552.036-1.056.048-1.608.048a12.246,12.246,0,0,1-1.74-.12V17.26h1.068c.84,0,1.14.024,1.224.024.12,0,.132-.012.132-.132v-.78c0-.12-.012-.132-.132-.132-.084,0-.384.024-1.224.024H40.5v-1.14h1.3c1.152,0,1.548.024,1.62.024.132,0,.144-.012.144-.12v-.816c0-.132-.012-.144-.144-.144-.072,0-.468.024-1.62.024H38.268c-1.14,0-1.548-.024-1.62-.024-.12,0-.132.012-.132.144v.816c0,.108.012.12.132.12.072,0,.48-.024,1.62-.024Zm-.6-5.772c-1.056,0-1.4-.024-1.476-.024-.12,0-.132.012-.132.144,0,.072.024.372.024,1.092v1.668c0,.708-.024,1.008-.024,1.092,0,.12.012.132.132.132.072,0,.42-.024,1.476-.024h2.34c1.044,0,1.392.024,1.464.024.12,0,.132-.012.132-.132,0-.072-.024-.384-.024-1.092V10.564c0-.72.024-1.02.024-1.092,0-.132-.012-.144-.132-.144-.072,0-.42.024-1.464.024Zm2.736,3.18H38.3v-.708H41.46Zm0-2.256v.7H38.3v-.7Zm-6.192,5.148.624-.276c.348-.156.36-.132.36-.528.012-.276.024-.54.048-.78-.348.168-.7.3-1.032.432v-1.86c.708,0,.948.024,1.02.024.12,0,.132-.012.132-.132v-.876c0-.12-.012-.132-.132-.132-.072,0-.312.024-1.02.024v-.66a3.682,3.682,0,0,1,.072-1.212.627.627,0,0,0,.084-.252c0-.072-.084-.12-.192-.132-.42-.048-.78-.072-1.224-.084a11.667,11.667,0,0,1,.084,1.7v.636h-.156c-.816,0-1.056-.024-1.128-.024-.12,0-.132.012-.132.132V12.3c0,.12.012.132.132.132.072,0,.312-.024,1.128-.024h.156v2.244l-.384.108a7.425,7.425,0,0,1-1.092.228,9.1,9.1,0,0,0,.2,1.152q.036.144.144.144a.319.319,0,0,0,.192-.072,1.34,1.34,0,0,1,.42-.2c.168-.048.336-.108.516-.168v2.364c0,.348-.072.456-.372.456a6.938,6.938,0,0,1-.876-.036,3.821,3.821,0,0,1,.288.864c.1.372.1.372.468.36a2.133,2.133,0,0,0,1.32-.264c.288-.2.384-.528.384-1.188,0-.6-.036-1.248-.036-2.4Zm14.988-1.632v4.236c0,.3-.132.444-.54.444a10.047,10.047,0,0,1-1.152-.072,4.128,4.128,0,0,1,.36.972c.1.384.1.4.468.384,1.128,0,1.56-.1,1.824-.312a1.166,1.166,0,0,0,.384-1.056c0-.444-.036-1.1-.036-1.668V13.792h2.964c1.068,0,1.44.024,1.512.024.12,0,.132-.012.132-.132v-1c0-.12-.012-.132-.132-.132-.072,0-.444.024-1.512.024H47.256c-1.068,0-1.44-.024-1.512-.024-.12,0-.132.012-.132.132v1c0,.12.012.132.132.132.072,0,.444-.024,1.512-.024Zm2.952-2.868c1.176,0,1.584.024,1.656.024.12,0,.132-.012.132-.132v-1c0-.12-.012-.132-.132-.132-.072,0-.48.024-1.656.024H48.6c-1.176,0-1.584-.024-1.656-.024-.12,0-.132.012-.132.132v1c0,.12.012.132.132.132.072,0,.48-.024,1.656-.024Zm-7.872,7.032a3.918,3.918,0,0,1,.768.564c.144.144.228.2.3.2s.156-.06.288-.192A10.6,10.6,0,0,0,48.492,16a2.291,2.291,0,0,1,.276-.468c.072-.072.144-.144.144-.228s-.072-.156-.18-.2a10.114,10.114,0,0,0-1.164-.4,3.308,3.308,0,0,1-.312.96A7.075,7.075,0,0,1,45.336,17.956Zm7.764-2.9c-.156.072-.18.1-.132.216a11.978,11.978,0,0,0,2.208,3.2c.12.132.192.192.252.192s.132-.072.276-.24a4.982,4.982,0,0,1,.744-.708A8.606,8.606,0,0,1,54.072,14.8c-.06-.12-.084-.132-.228-.06Z" transform="translate(110.476 183)"/>
    <g transform="matrix(1, 0, 0, 1, 0.48, 0)" filter="url(#長方形_2125)">
      <rect id="長方形_2125-2" data-name="長方形 2125" width="93" height="93" rx="46.5" transform="translate(62 52)" fill="#2f3f59"/>
    </g>
    <path id="パス_1823" data-name="パス 1823" d="M347.5,503.86" transform="translate(-247.11 -407.203)" fill="none" stroke="#f2f2f2" stroke-miterlimit="10" stroke-width="2"/>
    <path id="パス_1824" data-name="パス 1824" d="M333.5,502.86" transform="translate(-234.221 -406.297)" fill="none" stroke="#f2f2f2" stroke-miterlimit="10" stroke-width="2"/>
    <g id="グループ_465" data-name="グループ 465" transform="translate(83.019 83.019)">
      <ellipse id="楕円形_260" data-name="楕円形 260" cx="26.966" cy="1.333" rx="26.966" ry="1.333" transform="translate(0 28.048)" fill="#c9c9c9"/>
      <path id="長方形_2158" data-name="長方形 2158" d="M3,0H38.363a3,3,0,0,1,3,3V28.566a0,0,0,0,1,0,0H0a0,0,0,0,1,0,0V3A3,3,0,0,1,3,0Z" transform="translate(6.697 0)" fill="#f2f2f2"/>
      <g id="グループ_460" data-name="グループ 460" transform="translate(7.922 4.201)">
        <rect id="長方形_2127" data-name="長方形 2127" width="3.763" height="0.738" transform="translate(3.052 7.96)" fill="#d2b600"/>
        <rect id="長方形_2128" data-name="長方形 2128" width="3.763" height="0.738" transform="translate(0 11.012)" fill="#d2b600"/>
        <rect id="長方形_2129" data-name="長方形 2129" width="1.894" height="0.738" transform="translate(6.987 16.544)" fill="#3f3d56"/>
        <rect id="長方形_2130" data-name="長方形 2130" width="1.894" height="0.738" transform="translate(13.505 16.544)" fill="#3f3d56"/>
        <rect id="長方形_2131" data-name="長方形 2131" width="1.894" height="0.738" transform="translate(16.924 16.544)" fill="#3f3d56"/>
        <rect id="長方形_2132" data-name="長方形 2132" width="1.894" height="0.738" transform="translate(15.202 22.152)" fill="#3f3d56"/>
        <rect id="長方形_2133" data-name="長方形 2133" width="1.894" height="0.738" transform="translate(22.04 22.152)" fill="#3f3d56"/>
        <rect id="長方形_2134" data-name="長方形 2134" width="1.894" height="0.738" transform="translate(20.343 16.544)" fill="#3f3d56"/>
        <rect id="長方形_2135" data-name="長方形 2135" width="1.894" height="0.738" transform="translate(23.762 16.544)" fill="#3f3d56"/>
        <path id="パス_1800" data-name="パス 1800" d="M517.674,206.45h-22.48v-3.173h.049V206.4h22.431Z" transform="translate(-490.297 -193.89)" fill="#3f3d56"/>
        <path id="パス_1801" data-name="パス 1801" d="M633.133,272.279H618.589v-5.685h.049v5.635h14.495Z" transform="translate(-607.539 -254.05)" fill="#3f3d56"/>
        <rect id="長方形_2136" data-name="長方形 2136" width="0.049" height="3.17" transform="translate(7.91 12.548)" fill="#3f3d56"/>
        <rect id="長方形_2137" data-name="長方形 2137" width="0.049" height="3.17" transform="translate(14.428 12.548)" fill="#3f3d56"/>
        <rect id="長方形_2138" data-name="長方形 2138" width="0.049" height="3.17" transform="translate(17.846 12.548)" fill="#3f3d56"/>
        <rect id="長方形_2139" data-name="長方形 2139" width="0.049" height="3.17" transform="translate(21.265 12.548)" fill="#3f3d56"/>
        <rect id="長方形_2140" data-name="長方形 2140" width="0.049" height="3.17" transform="translate(24.684 12.548)" fill="#3f3d56"/>
        <rect id="長方形_2141" data-name="長方形 2141" width="0.049" height="3.17" transform="translate(16.125 18.205)" fill="#3f3d56"/>
        <rect id="長方形_2142" data-name="長方形 2142" width="0.049" height="3.17" transform="translate(22.962 18.205)" fill="#3f3d56"/>
        <rect id="長方形_2143" data-name="長方形 2143" width="3.763" height="0.738" transform="translate(3.052 14.192)" fill="#d2b600"/>
        <rect id="長方形_2144" data-name="長方形 2144" width="1.894" height="0.738" transform="translate(6.987 5.608)" fill="#3f3d56"/>
        <rect id="長方形_2145" data-name="長方形 2145" width="1.894" height="0.738" transform="translate(13.505 5.608)" fill="#3f3d56"/>
        <rect id="長方形_2146" data-name="長方形 2146" width="1.894" height="0.738" transform="translate(16.924 5.608)" fill="#3f3d56"/>
        <rect id="長方形_2147" data-name="長方形 2147" width="1.894" height="0.738" transform="translate(15.202)" fill="#3f3d56"/>
        <rect id="長方形_2148" data-name="長方形 2148" width="1.894" height="0.738" transform="translate(22.04)" fill="#3f3d56"/>
        <rect id="長方形_2149" data-name="長方形 2149" width="1.894" height="0.738" transform="translate(20.343 5.608)" fill="#3f3d56"/>
        <rect id="長方形_2150" data-name="長方形 2150" width="1.894" height="0.738" transform="translate(23.762 5.608)" fill="#3f3d56"/>
        <path id="パス_1802" data-name="パス 1802" d="M517.674,222.191h-22.48v3.173h.049V222.24h22.431Z" transform="translate(-490.297 -211.861)" fill="#3f3d56"/>
        <path id="パス_1803" data-name="パス 1803" d="M633.133,108.5H618.589v5.685h.049v-5.635h14.495Z" transform="translate(-607.539 -103.842)" fill="#3f3d56"/>
        <rect id="長方形_2151" data-name="長方形 2151" width="0.049" height="3.17" transform="translate(7.91 7.173)" fill="#3f3d56"/>
        <rect id="長方形_2152" data-name="長方形 2152" width="0.049" height="3.17" transform="translate(14.428 7.173)" fill="#3f3d56"/>
        <rect id="長方形_2153" data-name="長方形 2153" width="0.049" height="3.17" transform="translate(17.846 7.173)" fill="#3f3d56"/>
        <rect id="長方形_2154" data-name="長方形 2154" width="0.049" height="3.17" transform="translate(21.265 7.173)" fill="#3f3d56"/>
        <rect id="長方形_2155" data-name="長方形 2155" width="0.049" height="3.17" transform="translate(24.684 7.173)" fill="#3f3d56"/>
        <rect id="長方形_2156" data-name="長方形 2156" width="0.049" height="3.17" transform="translate(16.125 1.516)" fill="#3f3d56"/>
        <rect id="長方形_2157" data-name="長方形 2157" width="0.049" height="3.17" transform="translate(22.962 1.516)" fill="#3f3d56"/>
      </g>
      <path id="パス_1822" data-name="パス 1822" d="M224.363,285.656v.735H183v-.735a1.181,1.181,0,0,1,1.013-1.3H223.35A1.181,1.181,0,0,1,224.363,285.656Z" transform="translate(-176.303 -284.36)" fill="#c9c9c9"/>
      <circle id="楕円形_261" data-name="楕円形 261" cx="0.381" cy="0.381" r="0.381" transform="translate(7.681 0.667)" fill="#d2b600"/>
      <circle id="楕円形_262" data-name="楕円形 262" cx="0.381" cy="0.381" r="0.381" transform="translate(8.633 0.667)" fill="#d2b600"/>
      <circle id="楕円形_263" data-name="楕円形 263" cx="0.381" cy="0.381" r="0.381" transform="translate(9.586 0.667)" fill="#d2b600"/>
      <rect id="長方形_2160" data-name="長方形 2160" width="6.094" height="4.951" rx="1" transform="translate(37.365 13.839)" fill="#d2b600" opacity="0.511"/>
      <rect id="長方形_2163" data-name="長方形 2163" width="6.094" height="4.951" rx="1" transform="translate(37.365 5.46)" fill="#d2b600"/>
      <rect id="長方形_2172" data-name="長方形 2172" width="6.094" height="4.951" rx="1" transform="translate(37.102 21.901)" fill="#d2b600" opacity="0.196"/>
      <path id="パス_1825" data-name="パス 1825" d="M480.532,349.489l-.321-.323a.17.17,0,0,0-.242,0l-2.016,2-.853-.86a.169.169,0,0,0-.24,0l-.324.321a.173.173,0,0,0,0,.242l1.294,1.3a.173.173,0,0,0,.242,0l2.459-2.441a.17.17,0,0,0,0-.242Z" transform="translate(-435.991 -336.561)" fill="#3acc6c"/>
      <path id="パス_1826" data-name="パス 1826" d="M820.532,349.489l-.321-.323a.17.17,0,0,0-.242,0l-2.016,2-.853-.86a.169.169,0,0,0-.24,0l-.324.321a.173.173,0,0,0,0,.242l1.294,1.3a.173.173,0,0,0,.242,0l2.459-2.441a.17.17,0,0,0,0-.242Z" transform="translate(-775.779 -344.941)" fill="#3acc6c"/>
      <path id="パス_1828" data-name="パス 1828" d="M703.532,615.489l-.321-.323a.17.17,0,0,0-.242,0l-2.016,2-.853-.86a.169.169,0,0,0-.24,0l-.324.317a.173.173,0,0,0,0,.242l1.294,1.3a.173.173,0,0,0,.242,0l2.459-2.441A.17.17,0,0,0,703.532,615.489Z" transform="translate(-659.309 -594.245)" fill="#3acc6c"/>
    </g>
    <path id="パス_1858" data-name="パス 1858" d="M910.826,601.24a5.781,5.781,0,0,0-.776.455.632.632,0,0,0-.1.084.767.767,0,0,0-.063.083,1.551,1.551,0,0,0-.265.528" transform="translate(-764.746 -495.434)" fill="none" stroke="#000" stroke-miterlimit="10" stroke-width="1" opacity="0.1"/>
  </g>
</svg>
