<svg xmlns="http://www.w3.org/2000/svg" xmlns:xlink="http://www.w3.org/1999/xlink" width="218" height="255" viewBox="0 0 218 255">
  <defs>
    <filter id="長方形_2173" x="6" y="7" width="212" height="248" filterUnits="userSpaceOnUse">
      <feOffset dx="3" dy="3" input="SourceAlpha"/>
      <feGaussianBlur stdDeviation="3" result="blur"/>
      <feFlood flood-opacity="0.161"/>
      <feComposite operator="in" in2="blur"/>
      <feComposite in="SourceGraphic"/>
    </filter>
    <filter id="長方形_2124" x="52" y="50" width="111" height="111" filterUnits="userSpaceOnUse">
      <feOffset dy="3" input="SourceAlpha"/>
      <feGaussianBlur stdDeviation="3" result="blur-2"/>
      <feFlood flood-opacity="0.161"/>
      <feComposite operator="in" in2="blur-2"/>
      <feComposite in="SourceGraphic"/>
    </filter>
    <linearGradient id="linear-gradient" x1="3.891" y1="1.236" x2="3.891" y2="0.236" gradientUnits="objectBoundingBox">
      <stop offset="0" stop-color="gray" stop-opacity="0.251"/>
      <stop offset="0.54" stop-color="gray" stop-opacity="0.122"/>
      <stop offset="1" stop-color="gray" stop-opacity="0.102"/>
    </linearGradient>
    <linearGradient id="linear-gradient-2" x1="0.5" y1="1" x2="0.5" y2="0" xlink:href="#linear-gradient"/>
  </defs>
  <g id="グループ_490" data-name="グループ 490" transform="translate(-86 -6132)">
    <g transform="matrix(1, 0, 0, 1, 86, 6132)" filter="url(#長方形_2173)">
      <g id="長方形_2173-2" data-name="長方形 2173" transform="translate(12 13)" fill="#fff" stroke="#707070" stroke-width="0.2">
        <rect width="194" height="230" stroke="none"/>
        <rect x="0.1" y="0.1" width="193.8" height="229.8" fill="none"/>
      </g>
    </g>
    <g transform="matrix(1, 0, 0, 1, 86, 6132)" filter="url(#長方形_2124)">
      <rect id="長方形_2124-2" data-name="長方形 2124" width="93" height="93" rx="46.5" transform="translate(61 56)" fill="#2f3f59"/>
    </g>
    <path id="パス_1793" data-name="パス 1793" d="M0,0H34.084V24.7H12.413l-2.342,4.207L7.612,24.7H0Z" transform="translate(168.881 6218.199)" fill="url(#linear-gradient)"/>
    <path id="パス_1794" data-name="パス 1794" d="M7.57,8.33H40.682V32.207H19.19L17.2,36.495l-2.236-4.288H7.57Z" transform="translate(161.741 6210.343)" fill="#f5f5f5"/>
    <rect id="長方形_2117" data-name="長方形 2117" width="24.669" height="1.056" transform="translate(198.169 6226.885) rotate(180)" fill="#d2b600" opacity="0.701"/>
    <rect id="長方形_2118" data-name="長方形 2118" width="24.669" height="1.056" transform="translate(198.169 6229.193) rotate(180)" fill="#d2b600" opacity="0.695"/>
    <rect id="長方形_2119" data-name="長方形 2119" width="24.669" height="1.056" transform="translate(198.169 6231.502) rotate(180)" fill="#d2b600" opacity="0.695"/>
    <rect id="長方形_2120" data-name="長方形 2120" width="24.669" height="1.056" transform="translate(198.169 6233.811) rotate(180)" fill="#d2b600" opacity="0.695"/>
    <path id="パス_1795" data-name="パス 1795" d="M326.686,150H293v24.65l21.737-.012,2.048,4.211,2.378-4.2h7.523Z" transform="translate(-107.447 6076.734)" fill="url(#linear-gradient-2)"/>
    <path id="パス_1796" data-name="パス 1796" d="M331.632,156.7H298.52v23.877h21.491l1.99,4.288,2.236-4.288h7.394Z" transform="translate(-112.653 6070.415)" fill="#fff"/>
    <circle id="楕円形_253" data-name="楕円形 253" cx="2.408" cy="2.408" r="2.408" transform="translate(194.013 6236.646)" fill="url(#linear-gradient-2)"/>
    <circle id="楕円形_254" data-name="楕円形 254" cx="2.408" cy="2.408" r="2.408" transform="translate(200.016 6236.646)" fill="url(#linear-gradient-2)"/>
    <circle id="楕円形_255" data-name="楕円形 255" cx="2.408" cy="2.408" r="2.408" transform="translate(206.018 6236.646)" fill="url(#linear-gradient-2)"/>
    <circle id="楕円形_256" data-name="楕円形 256" cx="2.176" cy="2.176" r="2.176" transform="translate(194.244 6236.877)" fill="#d2b600"/>
    <circle id="楕円形_257" data-name="楕円形 257" cx="2.176" cy="2.176" r="2.176" transform="translate(200.247 6236.877)" fill="#d2b600" opacity="0.6"/>
    <circle id="楕円形_258" data-name="楕円形 258" cx="2.176" cy="2.176" r="2.176" transform="translate(206.249 6236.877)" fill="#d2b600" opacity="0.3"/>
    <path id="パス_1939" data-name="パス 1939" d="M-21.792-1.152c1.08,0,1.452.024,1.524.024.12,0,.132-.012.132-.132v-.732c0-.132-.012-.144-.132-.144-.072,0-.444.024-1.524.024h-.78V-2.6c.684-.012,1.4-.024,2.148-.048.384-.012.384-.012.456-.4a2.8,2.8,0,0,1,.2-.684c-1.644.12-3.324.156-5.016.156a8.376,8.376,0,0,1-2.208-.18,1.591,1.591,0,0,1-.912-.8V-5.988c0-.528.024-.756.024-.828,0-.12-.012-.132-.144-.132-.072,0-.24.024-.876.024h-.78c-.636,0-.792-.024-.876-.024-.108,0-.12.012-.12.132V-6c0,.12.012.132.12.132.084,0,.24-.024.876-.024h.636v1.26a5.833,5.833,0,0,1-1.1.684,4.814,4.814,0,0,1-.684.264c.168.42.288.708.444,1.032.06.108.108.144.18.144a.194.194,0,0,0,.168-.108.879.879,0,0,1,.24-.228,9.93,9.93,0,0,0,1.236-.9,2.218,2.218,0,0,0,1.14.84,10.272,10.272,0,0,0,2.808.312h.84v.48h-5.256c-1.08,0-1.44-.024-1.512-.024-.108,0-.12.012-.12.144v.732c0,.12.012.132.12.132.072,0,.432-.024,1.512-.024h5.256v.684c0,.276-.156.384-.5.384-.24,0-.66-.012-1.092-.048a2.785,2.785,0,0,1,.336.792c.084.288.084.288.444.288a3.456,3.456,0,0,0,1.6-.216.885.885,0,0,0,.444-.876c0-.348-.024-.648-.024-1.008ZM-24.672-8.2a2.644,2.644,0,0,1-.156.432h-.4c-1.056,0-1.428-.024-1.512-.024-.12,0-.132.012-.132.132,0,.072.024.336.024,1V-5.2c0,.66-.024.924-.024,1.008,0,.12.012.132.132.132.084,0,.456-.024,1.512-.024h2.484c1.056,0,1.428.024,1.512.024.108,0,.12-.012.12-.132,0-.072-.024-.348-.024-1.008V-6.66c0-.66.024-.924.024-1,0-.12-.012-.132-.12-.132-.084,0-.456.024-1.512.024h-.888a3.938,3.938,0,0,0,.18-.432h1.464c1.176,0,1.584.024,1.656.024.12,0,.132-.012.132-.132v-.588c0-.12-.012-.132-.132-.132-.072,0-.48.024-1.656.024h-.252l.228-.336a1.032,1.032,0,0,1,.216-.24.242.242,0,0,0,.132-.192c0-.06-.06-.1-.156-.12-.312-.072-.7-.156-1.092-.216a1.919,1.919,0,0,1-.216.576c-.1.18-.2.348-.324.528H-25.3l.444-.192c.132-.06.144-.108.084-.216a3.756,3.756,0,0,0-.5-.648c-.1-.1-.132-.108-.252-.06l-.648.264c-.144.06-.192.084-.108.192a3.181,3.181,0,0,1,.444.66C-27-9-27.4-9.024-27.468-9.024c-.12,0-.132.012-.132.132v.6c0,.12.012.12.132.12.072,0,.468-.024,1.632-.024Zm2.424,1.08v.444H-25.74v-.444Zm0,2.376H-25.74v-.444h3.492Zm-3.492-.972v-.432h3.492v.432ZM-30.252-9.18c-.072.06-.108.1-.108.132s.036.06.084.1a8.251,8.251,0,0,1,1.332,1.44c.036.048.072.084.1.084s.084-.036.156-.1l.648-.564c.06-.06.084-.1.084-.144a.224.224,0,0,0-.06-.12,8.893,8.893,0,0,0-1.428-1.356c-.1-.072-.144-.048-.24.036Zm2,8.508c-.084.036-.12.072-.12.108s.024.048.072.1A6.293,6.293,0,0,1-27.288.708c.072.108.108.1.24.024l.828-.48c.132-.072.144-.108.072-.2a7.52,7.52,0,0,0-1.044-1.092c-.108-.084-.132-.084-.276-.012ZM-14.832-9.36c-.864,0-1.128-.024-1.2-.024-.132,0-.144.012-.144.132v1.008c0,.12.012.132.144.132.072,0,.336-.024,1.2-.024h1.488A8.753,8.753,0,0,1-18.168-.372,2.872,2.872,0,0,1-17.46.42c.12.192.168.288.252.288.06,0,.132-.06.276-.144a10.1,10.1,0,0,0,4.416-5.976A10.316,10.316,0,0,0-8.4.54c.132.1.216.156.276.156S-8,.612-7.908.42A3.537,3.537,0,0,1-7.2-.492a9.4,9.4,0,0,1-4.668-7.416A6.7,6.7,0,0,1-11.94-9.24c0-.12-.048-.144-.156-.144-.072,0-.336.024-1.2.024ZM-.276-7.836l-.18.8c-1.08,0-1.452-.024-1.524-.024-.132,0-.144.012-.144.132,0,.072.024.456.024,1.3V-2.88c0,.852-.024,1.224-.024,1.284,0,.132.012.144.144.144.072,0,.444-.024,1.536-.024h2.7c1.08,0,1.464.024,1.548.024.12,0,.132-.012.132-.144,0-.06-.024-.432-.024-1.284V-5.628c0-.84.024-1.224.024-1.3,0-.12-.012-.132-.132-.132-.084,0-.468.024-1.548.024H.78c.072-.264.132-.528.192-.8H3.624c1.092,0,1.464.024,1.536.024.12,0,.132-.012.132-.132V-8.82c0-.12-.012-.132-.132-.132-.072,0-.444.024-1.536.024H1.188l.06-.276A.775.775,0,0,1,1.4-9.636a.322.322,0,0,0,.1-.192c0-.072-.06-.132-.168-.144a12.743,12.743,0,0,0-1.3-.132,7.31,7.31,0,0,1-.072.984l-.036.192h-3.36c-1.092,0-1.464-.024-1.536-.024-.12,0-.132.012-.132.132v.876c0,.12.012.132.132.132.072,0,.444-.024,1.536-.024Zm2.988,5.46h-3.6V-3.06h3.6Zm-3.6-1.548v-.684h3.6v.684Zm0-2.208h3.6v.684h-3.6ZM-4.5-.54C-4.5.3-4.524.672-4.524.744c0,.12.012.132.132.132h1c.132,0,.144-.012.144-.132V.324h6.72c1.188,0,1.6.024,1.668.024.12,0,.132-.012.132-.132V-.66c0-.12-.012-.132-.132-.132-.072,0-.48.024-1.668.024h-6.72V-5.436A3.1,3.1,0,0,1-3.18-6.42a.734.734,0,0,0,.072-.252c0-.06-.072-.12-.192-.132-.42-.048-.84-.072-1.3-.084a8.326,8.326,0,0,1,.1,1.476ZM15.648-6.708c-.132.072-.156.12-.072.216.18.228.36.456.528.684-.744.072-1.5.12-2.268.168a26.917,26.917,0,0,0,2.1-2.292c.216-.264.312-.372.42-.42a.214.214,0,0,0,.156-.192c0-.084-.048-.132-.18-.2-.276-.132-.636-.288-1.032-.444a2.866,2.866,0,0,1-.408.672c-.408.54-.852,1.08-1.344,1.644A9.054,9.054,0,0,0,12.84-7.5c.384-.456.744-.936,1.116-1.428a1.01,1.01,0,0,1,.348-.348.249.249,0,0,0,.144-.192c0-.084-.048-.144-.156-.2a7.583,7.583,0,0,0-1.044-.444,3.62,3.62,0,0,1-.312.648c-.336.528-.636.936-.912,1.3-.156-.108-.312-.216-.456-.336-.1-.072-.12-.084-.216.036l-.48.564c-.06.072-.084.108-.084.144a.145.145,0,0,0,.072.108,19.529,19.529,0,0,1,1.908,1.62l-.456.468c-.348.012-.684.024-1.02.024a8.476,8.476,0,0,1-.948-.024c.036.372.084.744.144,1.092.024.12.072.216.18.216a.666.666,0,0,0,.228-.084,2.5,2.5,0,0,1,.648-.108c.288-.012.612-.036.96-.072a2.716,2.716,0,0,1-.384.684,6.345,6.345,0,0,1-2.28,1.8,2.784,2.784,0,0,1,.48.576c.108.192.156.276.24.276.06,0,.132-.048.276-.132a7.9,7.9,0,0,0,1.26-.924,6.932,6.932,0,0,0,1.056,1.08,10.093,10.093,0,0,1-3.24,1.02,2.564,2.564,0,0,1,.42.7c.144.348.156.348.516.276a9.615,9.615,0,0,0,3.288-1.3A11.166,11.166,0,0,0,17.424.756c.372.072.372.072.492-.288a2.532,2.532,0,0,1,.408-.8,11.814,11.814,0,0,1-3.24-.864,8.1,8.1,0,0,0,1.152-1.308,1.185,1.185,0,0,1,.36-.4.23.23,0,0,0,.132-.216c0-.108-.048-.2-.312-.48-.3-.288-.384-.348-.48-.348a.391.391,0,0,0-.168.048.658.658,0,0,1-.252.036H13.428a.705.705,0,0,1,.192-.192q.144-.072.144-.18c0-.084-.072-.132-.2-.168-.2-.048-.408-.1-.66-.144,1.176-.1,2.556-.216,3.756-.36.132.252.252.5.372.756.06.132.084.132.228.048l.72-.4c.12-.072.144-.108.084-.228a10.913,10.913,0,0,0-1.572-2.3c-.072-.084-.1-.1-.228-.012Zm-.492,3.8a6.082,6.082,0,0,1-1.08,1.14A5.358,5.358,0,0,1,12.888-2.9ZM8.484-.672C8.484.288,8.46.732,8.46.8c0,.12.012.132.12.132h.984C9.684.936,9.7.924,9.7.8c0-.06-.024-.516-.024-1.476V-5.1c.276-.36.54-.744.78-1.128a.9.9,0,0,1,.264-.288.14.14,0,0,0,.084-.132c0-.084-.048-.132-.156-.216a7,7,0,0,0-.888-.552,2.615,2.615,0,0,1-.312.636A11.515,11.515,0,0,1,7.02-4.116a2.762,2.762,0,0,1,.408.864c.048.168.1.24.156.24s.144-.06.276-.156c.216-.18.432-.384.648-.6-.012.444-.024.96-.024,1.332Zm1.152-9.384a2.726,2.726,0,0,1-.348.552,8.189,8.189,0,0,1-2.148,1.9,2.208,2.208,0,0,1,.516.708c.084.2.144.288.228.288a.592.592,0,0,0,.276-.144,10.93,10.93,0,0,0,2.064-1.992,1.139,1.139,0,0,1,.324-.324c.12-.072.192-.12.192-.2s-.06-.144-.168-.216A4.621,4.621,0,0,0,9.636-10.056Zm12.012.912a9.682,9.682,0,0,1-.216,1.788,22.908,22.908,0,0,0-.408,3.936A11.249,11.249,0,0,0,21.576.156c.024.084.072.144.156.132A5.956,5.956,0,0,0,22.716.1c.108-.024.156-.072.156-.156s-.024-.192-.024-.336a1.363,1.363,0,0,1,.036-.372,11.731,11.731,0,0,1,.684-1.812.332.332,0,0,0,.06-.192.478.478,0,0,0-.084-.18,3.115,3.115,0,0,1-.42-.756c-.348.84-.564,1.236-.816,1.788a11.572,11.572,0,0,1-.072-1.4,19.444,19.444,0,0,1,.5-3.876,2.835,2.835,0,0,1,.288-.852c.156-.24.18-.276.18-.36,0-.108-.072-.18-.276-.288A5.311,5.311,0,0,0,21.648-9.144Zm2.76,6.192a2.644,2.644,0,0,0,.42,1.56c.516.708,1.344,1,3.12,1A16.112,16.112,0,0,0,29.9-.528c.2-.024.2-.036.2-.18a8.891,8.891,0,0,0-.072-1.032c-.024-.156-.048-.168-.168-.156a17.2,17.2,0,0,1-2.292.156c-1.308,0-1.884-.3-1.956-1.128,0-.132-.024-.192-.12-.18Zm.384-3.408a14.67,14.67,0,0,1,2.724-.276c.612,0,1.236.024,1.956.072.108.012.144-.036.156-.144.024-.336.024-.66.024-1.02,0-.12-.024-.144-.276-.156-.5-.048-1.056-.072-1.776-.072A19.159,19.159,0,0,0,25-7.74c-.12.024-.156.06-.168.2C24.8-7.332,24.8-7.032,24.792-6.36Zm-66.78,24.32c.12,0,.132-.012.132-.132,0-.24-.048-1.56-.06-3.06a8.037,8.037,0,0,0,2.2,2.268c.144.1.216.156.264.156.072,0,.108-.072.2-.252a3.742,3.742,0,0,1,.54-.78,7.354,7.354,0,0,1-2.544-2.028h.528c1.152,0,1.548.024,1.62.024.12,0,.132-.012.132-.132v-.84c0-.12-.012-.132-.132-.132-.072,0-.468.024-1.62.024h-1.164v-.852h.672c1.056,0,1.416.024,1.5.024.12,0,.132-.012.132-.132,0-.06-.024-.408-.024-1.2V8.732c0-.792.024-1.128.024-1.2,0-.132-.012-.144-.132-.144-.084,0-.444.024-1.5.024h-2.4c-1.056,0-1.4-.024-1.488-.024-.12,0-.132.012-.132.144,0,.072.024.408.024,1.2v2.184c0,.792-.024,1.128-.024,1.2,0,.12.012.132.132.132.084,0,.432-.024,1.488-.024h.6v.852h-1.02c-1.14,0-1.536-.024-1.608-.024-.12,0-.132.012-.132.132v.84c0,.12.012.132.132.132.072,0,.468-.024,1.608-.024h.4A7.834,7.834,0,0,1-46.1,16.34V15.056c0-.564.012-.852.012-.924,0-.12-.012-.132-.12-.132-.084,0-.336.024-1.1.024h-.924c-.768,0-1.02-.024-1.092-.024-.132,0-.144.012-.144.132,0,.084.024.372.024,1.128v.768c0,1.452-.024,1.728-.024,1.812,0,.12.012.132.144.132h.852c.12,0,.132-.012.132-.132v-.552h1.14v.324c0,.12.012.132.132.132h.864c.108,0,.12-.012.12-.132,0-.06-.012-.312-.012-1.1a5.374,5.374,0,0,1,.456.54c.12.18.168.252.24.252s.132-.048.264-.156a9.165,9.165,0,0,0,2.16-2.3c-.012,1.464-.06,2.76-.06,2.988,0,.12.012.132.132.132Zm-5.22-2.94v1.272h-1.14V15.02ZM-40.7,8.4V9.4h-1.212V8.4Zm0,2.88h-1.212v-.984H-40.7ZM-44.124,9.4V8.4h1.14V9.4Zm0,1.872v-.984h1.14v.984Zm-4.4-2.208c-.924,0-1.212-.024-1.284-.024-.12,0-.132.012-.132.132v.852c0,.132.012.144.132.144.072,0,.36-.024,1.284-.024h1.26c.924,0,1.212.024,1.284.024.12,0,.132-.012.132-.144V9.176c0-.12-.012-.132-.132-.132-.072,0-.36.024-1.284.024Zm.312-1.644c-.78,0-1.02-.024-1.092-.024-.12,0-.132.012-.132.132v.8c0,.12.012.132.132.132.072,0,.312-.024,1.092-.024h.888c.768,0,1.008.024,1.08.024.132,0,.144-.012.144-.132v-.8c0-.12-.012-.132-.144-.132-.072,0-.312.024-1.08.024Zm.048,3.36c-.732,0-.948-.024-1.02-.024-.12,0-.132.012-.132.132v.768c0,.12.012.132.132.132.072,0,.288-.024,1.02-.024h.8c.72,0,.936.024,1.008.024.132,0,.144-.012.144-.132v-.768c0-.12-.012-.132-.144-.132-.072,0-.288.024-1.008.024Zm0,1.608c-.732,0-.948-.024-1.02-.024-.12,0-.132.012-.132.132v.768c0,.12.012.132.132.132.072,0,.288-.024,1.02-.024h.8c.72,0,.936.024,1.008.024.132,0,.144-.012.144-.132V12.5c0-.12-.012-.132-.144-.132-.072,0-.288.024-1.008.024ZM-29.8,8.456a6.6,6.6,0,0,1-.264.78c-.852,0-1.14-.024-1.212-.024-.12,0-.132.012-.132.132,0,.072.024.42.024,1.26v2.472c0,.828-.024,1.188-.024,1.26,0,.12.012.132.132.132.072,0,.372-.024,1.284-.024h1.632c.912,0,1.212.024,1.3.024.12,0,.132-.012.132-.132,0-.072-.024-.432-.024-1.26V10.6c0-.84.024-1.188.024-1.26,0-.12-.012-.132-.132-.132-.084,0-.384.024-1.3.024h-.54a6.271,6.271,0,0,0,.3-.78h.66c1.032,0,1.38.024,1.452.024.12,0,.132-.012.132-.12V7.532c0-.12-.012-.132-.132-.132-.072,0-.42.024-1.452.024h-2.3c-1.032,0-1.38-.024-1.452-.024-.132,0-.144.012-.144.132V8.36c0,.108.012.12.144.12.072,0,.42-.024,1.452-.024Zm1.74,5.136H-30.3V12.92h2.244ZM-30.3,12.14V11.5h2.244v.636Zm0-2.04h2.244v.624H-30.3Zm1.428,4.8c-.12.1-.144.132-.048.228A6.6,6.6,0,0,0-27.252,16.3a.945.945,0,0,0,.276.1,33.015,33.015,0,0,1-3.624.18,10.556,10.556,0,0,1-3-.312v-1.38h.528c.648,0,.816.024.888.024.12,0,.132-.012.132-.132V14c0-.12-.012-.132-.132-.132-.072,0-.24.024-.888.024H-33.6v-1.02h.252c1.032,0,1.38.024,1.452.024.12,0,.132-.012.132-.132v-.816c0-.12-.012-.132-.132-.132-.072,0-.42.024-1.452.024h-2.28c-1.032,0-1.38-.024-1.452-.024-.108,0-.12.012-.12.132v.816c0,.12.012.132.12.132.072,0,.42-.024,1.452-.024h.9v2.82a3.222,3.222,0,0,1-.78-.876l.084-.648a.931.931,0,0,1,.084-.336.387.387,0,0,0,.072-.216c0-.06-.06-.108-.2-.132-.324-.06-.672-.132-1-.168a5.985,5.985,0,0,1-.012.672A5.684,5.684,0,0,1-37.488,17.1a3.626,3.626,0,0,1,.708.492c.12.12.18.168.24.168s.108-.072.2-.228a6.667,6.667,0,0,0,.612-1.584,3.569,3.569,0,0,0,1.116,1.02,8.044,8.044,0,0,0,4.044.744c1.332,0,2.5-.024,3.72-.132.384-.024.384-.024.456-.42a3.92,3.92,0,0,1,.336-.864c-.3.048-.612.084-.888.108.072-.036.1-.06.24-.312a2.461,2.461,0,0,1,.42-.528,5.188,5.188,0,0,1-1.872-1.044c-.048-.036-.072-.06-.108-.06s-.084.024-.156.084Zm-6.36-7.476c-.9,0-1.212-.024-1.3-.024-.12,0-.132.012-.132.132,0,.072.024.36.024,1.044v1.476c0,.7-.024.972-.024,1.056,0,.12.012.132.132.132.084,0,.4-.024,1.3-.024h1.584c.9,0,1.212.024,1.284.024.108,0,.12-.012.12-.132,0-.072-.024-.36-.024-1.056V8.576c0-.684.024-.972.024-1.044,0-.12-.012-.132-.12-.132-.072,0-.384.024-1.284.024ZM-33.4,10.4H-35.52V9.716H-33.4ZM-35.52,8.912V8.264H-33.4v.648Zm5.088,5.544a2.428,2.428,0,0,1-.384.4A5.746,5.746,0,0,1-32.4,15.7a2.774,2.774,0,0,1,.444.552c.1.144.132.216.216.216a.865.865,0,0,0,.288-.1,7.491,7.491,0,0,0,1.464-.888,1,1,0,0,1,.252-.192c.084-.036.144-.072.144-.156s-.048-.108-.132-.18A6.7,6.7,0,0,0-30.432,14.456Zm12.168-4.812a2.726,2.726,0,0,1,2.688,2.784c0,2.268-1.6,3.108-3.624,3.588a2.545,2.545,0,0,1,.84.756c.156.24.264.288.516.216,2.436-.732,3.7-2.136,3.7-4.368,0-2.388-1.692-4.164-4.572-4.164a5.251,5.251,0,0,0-3.9,1.536,4.421,4.421,0,0,0-1.356,3.12c0,1.956,1.068,3.084,2.124,3.084a2.279,2.279,0,0,0,2.04-1.38,15.026,15.026,0,0,0,1.5-5.172Zm-1.44.072a13.711,13.711,0,0,1-1.272,4.3c-.324.576-.588.732-.9.732-.372,0-.816-.612-.816-1.716a3.455,3.455,0,0,1,.936-2.22A3.614,3.614,0,0,1-19.7,9.716Zm11.436.024a2.735,2.735,0,0,1,.12-1.08c.108-.18.156-.384-.108-.444a10.273,10.273,0,0,0-1.512-.24,12.464,12.464,0,0,1,.12,2.2V14.6c0,.984.252,1.548.852,1.8a5.909,5.909,0,0,0,2.28.324,24,24,0,0,0,3.564-.216c.18-.012.252-.06.252-.216,0-.252-.036-.708-.072-1.044-.012-.144-.036-.192-.216-.168a21.173,21.173,0,0,1-3.384.276,6.149,6.149,0,0,1-1.512-.132c-.312-.1-.4-.288-.4-.852v-1.6A30.83,30.83,0,0,0-4.1,11.288a6.373,6.373,0,0,1,1-.4c.24-.06.252-.264.108-.432A6.884,6.884,0,0,0-4,9.38a3.725,3.725,0,0,1-1.284.864,25.322,25.322,0,0,1-2.988,1.164Zm17.676-.1a8.536,8.536,0,0,1-2.148,2.1,2.767,2.767,0,0,1,1,.492.469.469,0,0,0,.288.12.345.345,0,0,0,.252-.108,10.2,10.2,0,0,0,2.112-2.316,1.491,1.491,0,0,1,.324-.348.313.313,0,0,0,.168-.252.348.348,0,0,0-.1-.216,6.151,6.151,0,0,0-.72-.756.408.408,0,0,0-.276-.168.878.878,0,0,0-.228.084,2.528,2.528,0,0,1-.828.072H4.1c-.96,0-1.62-.024-2.436-.084a11.227,11.227,0,0,0,.216,1.3c.024.108.072.192.216.18.708-.048,1.44-.1,2.124-.1Zm-7.02,6.972a3.377,3.377,0,0,1,1.092.612.339.339,0,0,0,.24.108.6.6,0,0,0,.336-.12A6.246,6.246,0,0,0,6.24,14.828a7.336,7.336,0,0,0,.708-3.3,1.1,1.1,0,0,1,.108-.492.489.489,0,0,0,.06-.216c0-.108-.048-.192-.2-.228a13.321,13.321,0,0,0-1.548-.228,4.338,4.338,0,0,1,.12,1.128A5.548,5.548,0,0,1,4.9,14.324,5.314,5.314,0,0,1,2.388,16.616Zm13.86-4.776c0,.516-.036,1.212-.036,1.632-.012.144.06.2.228.2h.96c.192,0,.264-.06.264-.24-.012-.42-.036-.888-.036-1.512V9.5a2.762,2.762,0,0,1,.132-1.14.5.5,0,0,0,.048-.18c0-.084-.06-.156-.2-.192a8.881,8.881,0,0,0-1.488-.252,8.216,8.216,0,0,1,.132,1.752ZM21.9,9.5a3.615,3.615,0,0,1,.108-1.308A.38.38,0,0,0,22.056,8a.2.2,0,0,0-.168-.2,7.509,7.509,0,0,0-1.56-.264,8.811,8.811,0,0,1,.132,1.956v2.268a4.944,4.944,0,0,1-.8,3.2,5.863,5.863,0,0,1-2.928,1.752,3.9,3.9,0,0,1,1.02.732.389.389,0,0,0,.288.144.758.758,0,0,0,.252-.06,6.191,6.191,0,0,0,2.64-1.884,6.194,6.194,0,0,0,.972-3.912Zm5.508.024a12.7,12.7,0,0,1,2.448,1.956c.06.06.108.1.156.1s.084-.036.144-.1c.168-.18.564-.66.744-.9a.258.258,0,0,0,.072-.156c0-.048-.036-.1-.108-.168a12.513,12.513,0,0,0-2.292-1.7.32.32,0,0,0-.156-.06.225.225,0,0,0-.168.1C28.02,8.828,27.672,9.2,27.408,9.524Zm.264,5.988a8.315,8.315,0,0,0,.96,1.332.311.311,0,0,0,.2.132.332.332,0,0,0,.216-.12,4.142,4.142,0,0,1,.8-.552,25.8,25.8,0,0,0,3.624-2.352,19.614,19.614,0,0,0,2.76-2.544c.132-.156.192-.252.192-.36a.587.587,0,0,0-.06-.228,5.356,5.356,0,0,1-.336-1.4,18.028,18.028,0,0,1-3.288,3.264,17.787,17.787,0,0,1-3.456,2.232A7.229,7.229,0,0,1,27.672,15.512ZM44.292,9.44c.144-.216.264-.4.4-.6a1.3,1.3,0,0,1,.3-.324.239.239,0,0,0,.132-.2.25.25,0,0,0-.12-.2,5.9,5.9,0,0,0-1.4-.636,5.125,5.125,0,0,1-.708,1.62,14.234,14.234,0,0,1-3.228,3.564,3.255,3.255,0,0,1,1.152.516.288.288,0,0,0,.18.072.373.373,0,0,0,.252-.132,16.712,16.712,0,0,0,2.268-2.46l2.9-.084a12.225,12.225,0,0,1-2.22,3.408,13.824,13.824,0,0,1-4,3.06,3.158,3.158,0,0,1,1.14.552.423.423,0,0,0,.276.132.324.324,0,0,0,.192-.06,15.242,15.242,0,0,0,3.648-2.988,16.54,16.54,0,0,0,2.376-3.708,1.445,1.445,0,0,1,.4-.516.346.346,0,0,0,.144-.252.389.389,0,0,0-.156-.276,5.536,5.536,0,0,0-.816-.648.348.348,0,0,0-.192-.072.241.241,0,0,0-.156.048,1.114,1.114,0,0,1-.6.144ZM47.3,8.216a5.954,5.954,0,0,1,1.212,1.392.125.125,0,0,0,.2.036l.5-.372a.121.121,0,0,0,.036-.192A5.523,5.523,0,0,0,48.12,7.8c-.072-.06-.12-.072-.18-.024Zm1.1-.792a5.677,5.677,0,0,1,1.2,1.38.123.123,0,0,0,.2.036l.48-.372a.139.139,0,0,0,.036-.216,5.011,5.011,0,0,0-1.14-1.236c-.072-.06-.108-.072-.18-.024Z" transform="translate(194 6316)"/>
    <g id="グループ_462" data-name="グループ 462" transform="translate(86 6132)">
      <ellipse id="楕円形_205" data-name="楕円形 205" cx="20" cy="21" rx="20" ry="21" fill="#d2b600"/>
    </g>
    <path id="パス_1943" data-name="パス 1943" d="M1.813-19.15H-.737a14.09,14.09,0,0,1-4.45,2.25l.5,2.625a14.02,14.02,0,0,0,3.525-1.7v13.6h-3.75V.05h10.3V-2.375H1.813Z" transform="translate(106 6163)" fill="#fff"/>
  </g>
</svg>
