<svg xmlns="http://www.w3.org/2000/svg" width="528.007" height="387.307" viewBox="0 0 528.007 387.307">
  <g id="グループ_450" data-name="グループ 450" transform="translate(-10281 3412)">
    <g id="グループ_444" data-name="グループ 444" transform="translate(-100.84 -84.904)">
      <path id="パス_1354" data-name="パス 1354" d="M938.427,731.715c.179,18.716-117.76,20.431-120.006,0C818.241,713,936.18,711.286,938.427,731.715Z" transform="translate(9971.42 -3686.191)" fill="#e6e6e6"/>
      <path id="パス_1355" data-name="パス 1355" d="M621.629,507.569l-8.765,4.781,5.578,18.327,8.764.8,4.781-10.359Z" transform="translate(10195.943 -3527.017)" fill="#9f616a"/>
      <path id="パス_1356" data-name="パス 1356" d="M658.28,553.994v8.764l13.546-.8-.189-7.219Z" transform="translate(10186.384 -3536.789)" fill="#9f616a"/>
      <path id="パス_1357" data-name="パス 1357" d="M619.929,374.348l4.78,59.762,15.14,87.649,23.9-3.187-7.968-69.323,3.187-63.745Z" transform="translate(10194.456 -3498.977)" fill="#2f2e41"/>
      <path id="パス_1358" data-name="パス 1358" d="M913.254,463.6l-57.371.8-6.375,43.825,39.044,18.327,9.562,35.06L849.509,613.4l19.124,23.9s27.092-36.654,47.012-57.371S926,496.268,926,496.268Z" transform="translate(9964.877 -3632.848)" fill="#2f2e41"/>
      <circle id="楕円形_201" data-name="楕円形 201" cx="17.53" cy="17.53" r="17.53" transform="translate(10826.337 -3317.458)" fill="#9f616a"/>
      <path id="パス_1359" data-name="パス 1359" d="M878.777,311.1v17.53l11.952,19.124s18.327-13.546,14.343-16.733-4.781-27.889-4.781-27.889Z" transform="translate(9958.716 -3599.072)" fill="#9f616a"/>
      <path id="パス_1360" data-name="パス 1360" d="M646.01,184.7l-11.953,14.342,4.781,99.6,37.45-.8,6.375-86.853L674.7,188.683l-5.466-7.436-9.674,14.608Z" transform="translate(10191.483 -3458.332)" fill="#d0cde1"/>
      <path id="パス_1361" data-name="パス 1361" d="M847.332,387.429,838.567,420.9l8.765,33.466L832.99,473.485l-12.749-60.558s9.562-49.4,10.359-54.98,2.39-6.375,2.39-6.375l6.375.8Z" transform="translate(9971.037 -3609.268)" fill="#2f2e41"/>
      <path id="パス_1362" data-name="パス 1362" d="M705.714,254.41l5.578,10.359,1.594,17.53-3.187,19.92,11.155,18.327,11.155-50.2L720.057,205.8h-4.781Z" transform="translate(10176.4 -3463.501)" fill="#2f2e41"/>
      <path id="パス_1363" data-name="パス 1363" d="M845.123,652.327s-11.155,3.187-15.139,3.984,2.391,15.936,2.391,15.936,3.984,20.717,4.781,24.7,6.375,17.53,13.546,19.124,2.39-27.889,2.39-27.889,3.187-9.562,3.187-12.749-4.781-1.594-4.781-1.594C838.749,672.247,845.123,652.327,845.123,652.327Z" transform="translate(9969.263 -3672.572)" fill="#2f2e41"/>
      <path id="パス_1364" data-name="パス 1364" d="M882.786,724.919c.8,4.781-.8,4.781,11.952,6.375s9.562-8.765,9.562-8.765a66.971,66.971,0,0,0-3.187-14.343c-2.39-6.375-15.14,1.594-15.14,1.594S881.989,720.138,882.786,724.919Z" transform="translate(9957.895 -3683.809)" fill="#2f2e41"/>
      <path id="パス_1365" data-name="パス 1365" d="M896.488,295.38l.415,7.086s5.142-11.627,5.938-23.579-12.749-14.343-20.717-15.14S860.61,268.528,860.61,274.9s14.343,4.781,19.92,3.187,7.968,11.952,7.968,11.952l3.187.8Z" transform="translate(9962.539 -3590.767)" fill="#2f2e41"/>
      <path id="パス_1366" data-name="パス 1366" d="M643.24,191.263l4.7-5.643,13.546,11.155-13.546,9.562Z" transform="translate(10189.55 -3459.253)" fill="#d0cde1"/>
      <path id="パス_1367" data-name="パス 1367" d="M681.494,188.754l-5.578-7.171-9.562,14.342,11.952,8.765Z" transform="translate(10184.685 -3458.403)" fill="#d0cde1"/>
      <path id="パス_1368" data-name="パス 1368" d="M848.553,394.017,851.74,424.3l-6.375,18.327-3.984,17.53s0,16.733,15.936,17.53,29.482-50.2,29.482-50.2,2.39,11.155,3.984,17.53,28.685,31.873,28.685,31.873,6.375-.8,11.952-13.546-11.155-24.7-11.155-24.7l-4.781-16.733,1.594-20.717L928.235,347l-33.068-17.132,3.586,45.817L886.8,411.547l-17.928-79.283-5.976,4.382L837.4,347Z" transform="translate(9967.426 -3604.701)" fill="#2f2e41"/>
    </g>
    <path id="パス_1369" data-name="パス 1369" d="M403.97,466.444c-1.479-.012-2.975-.022-4.444-.067l.046-1.481c1.454.045,2.941.065,4.4.067s2.957-.024,4.437-.072l.048,1.481C406.959,466.42,405.45,466.444,403.97,466.444Zm-13.354-.626c-2.951-.279-5.931-.658-8.857-1.125l.234-1.463c2.895.462,5.843.837,8.763,1.113Zm26.748-.016-.141-1.475c2.918-.279,5.866-.658,8.761-1.124l.236,1.463c-2.926.471-5.906.853-8.856,1.136ZM372.993,463c-2.889-.655-5.8-1.413-8.64-2.254l.42-1.421c2.813.832,5.689,1.581,8.547,2.229Zm61.992-.037-.329-1.445c2.865-.654,5.74-1.407,8.545-2.24l.422,1.421c-2.835.842-5.741,1.6-8.637,2.263Zm-79.109-5.022c-2.788-1.024-5.577-2.152-8.29-3.352l.6-1.355c2.684,1.187,5.443,2.3,8.2,3.316Zm96.22-.058-.512-1.391c2.741-1.01,5.491-2.125,8.173-3.315l.6,1.355C457.646,455.738,454.866,456.865,452.1,457.886Zm-112.564-7.174c-2.624-1.369-5.243-2.846-7.786-4.387l.769-1.268c2.516,1.526,5.108,2.986,7.7,4.341Zm128.858-.054-.686-1.314c2.59-1.354,5.175-2.814,7.685-4.339l.77,1.267C473.621,447.813,471.007,449.288,468.389,450.658Zm-144.131-9.21c-2.43-1.7-4.838-3.494-7.159-5.344l.924-1.159c2.3,1.831,4.679,3.61,7.082,5.288Zm159.374-.053-.85-1.214c2.4-1.68,4.783-3.459,7.073-5.288l.925,1.158C488.466,437.9,486.061,439.7,483.632,441.4ZM310.3,430.313c-2.2-1.994-4.356-4.083-6.418-6.209l1.064-1.032c2.04,2.1,4.177,4.17,6.35,6.144Zm187.278-.051-1-1.1c2.168-1.969,4.3-4.038,6.346-6.146l1.064,1.031C501.925,426.181,499.767,428.271,497.576,430.262ZM297.871,417.5c-1.923-2.255-3.8-4.6-5.574-6.972l1.187-.889c1.757,2.346,3.612,4.667,5.515,6.9ZM510,417.44l-1.128-.961c1.9-2.233,3.758-4.557,5.515-6.906l1.187.887c-1.775,2.375-3.651,4.723-5.574,6.98ZM287.18,403.217c-1.622-2.483-3.182-5.047-4.638-7.622l1.29-.73c1.44,2.547,2.984,5.084,4.589,7.541Zm233.509-.08-1.242-.809c1.605-2.461,3.149-5,4.59-7.556l1.291.728c-1.456,2.581-3.017,5.15-4.639,7.637ZM278.4,387.693c-1.29-2.668-2.508-5.409-3.621-8.149l1.373-.557c1.1,2.71,2.307,5.422,3.583,8.061Zm251.066-.116-1.334-.644c1.275-2.643,2.481-5.363,3.584-8.086l1.374.556C531.977,382.156,530.758,384.906,529.469,387.578ZM271.687,371.168c-.938-2.815-1.794-5.7-2.546-8.56l1.434-.376c.744,2.833,1.591,5.683,2.519,8.467Zm264.492-.157-1.407-.466c.922-2.781,1.767-5.631,2.509-8.471l1.434.375C537.965,365.32,537.112,368.2,536.18,371.011ZM267.153,353.905c-.566-2.908-1.045-5.873-1.424-8.814l1.47-.19c.375,2.909.849,5.843,1.409,8.72Zm273.541-.163-1.455-.281c.556-2.876,1.027-5.811,1.4-8.722l1.471.188C541.732,347.87,541.256,350.836,540.694,353.742ZM264.872,336.205c-.19-2.954-.288-5.957-.291-8.925h1.482c0,2.937.1,5.908.288,8.831Zm278.083-.166-1.479-.094c.185-2.92.278-5.891.278-8.829v-.325h1.482v.32c0,2.974-.095,5.976-.281,8.928ZM266.33,318.449l-1.479-.091c.184-2.96.465-5.951.836-8.889l1.471.185C266.79,312.562,266.512,315.521,266.33,318.449Zm275.125-.486c-.193-2.93-.481-5.888-.858-8.791l1.469-.191c.381,2.935.674,5.924.869,8.885ZM268.546,300.932l-1.455-.28c.559-2.909,1.221-5.839,1.967-8.709l1.434.373C269.754,295.155,269.1,298.054,268.546,300.932Zm270.63-.478c-.565-2.88-1.23-5.776-1.977-8.609l1.433-.378c.756,2.863,1.428,5.791,2,8.7ZM272.991,283.843l-1.408-.465c.93-2.816,1.966-5.642,3.079-8.4l1.374.555C274.936,278.262,273.911,281.057,272.991,283.843Zm261.68-.462c-.931-2.782-1.964-5.569-3.07-8.283l1.372-.559c1.119,2.744,2.163,5.561,3.1,8.372ZM279.612,267.445l-1.336-.643c1.286-2.673,2.676-5.34,4.132-7.926l1.292.727C282.259,262.162,280.884,264.8,279.612,267.445Zm248.4-.4c-1.277-2.632-2.657-5.26-4.1-7.813l1.29-.731c1.463,2.579,2.858,5.237,4.148,7.9Zm-239.729-15-1.243-.808c1.616-2.485,3.336-4.951,5.11-7.329l1.188.886C291.581,247.143,289.88,249.583,288.281,252.042Zm231.026-.349c-1.6-2.449-3.31-4.882-5.071-7.229l1.185-.889c1.78,2.372,3.505,4.831,5.126,7.306ZM298.843,237.878l-1.129-.96c1.92-2.258,3.938-4.485,6-6.616l1.066,1.03C302.74,233.441,300.743,235.644,298.843,237.878Zm209.87-.305c-1.906-2.228-3.909-4.424-5.953-6.527l1.062-1.033c2.066,2.125,4.091,4.345,6.016,6.6Zm-197.6-12.4-1-1.1c2.193-2,4.477-3.949,6.788-5.8l.926,1.157C315.547,221.27,313.287,223.2,311.117,225.177Zm185.285-.269c-2.173-1.967-4.439-3.892-6.736-5.719l.923-1.16c2.321,1.847,4.612,3.792,6.807,5.781ZM324.9,214.145l-.85-1.214c2.425-1.7,4.938-3.343,7.469-4.884l.771,1.266C329.787,210.838,327.3,212.464,324.9,214.145Zm157.676-.236c-2.413-1.679-4.907-3.3-7.413-4.816l.767-1.268c2.533,1.533,5.055,3.17,7.493,4.868ZM339.97,204.964l-.688-1.313c2.62-1.374,5.321-2.682,8.027-3.887l.6,1.354C345.235,202.31,342.563,203.6,339.97,204.964Zm127.485-.2c-2.6-1.355-5.285-2.643-7.973-3.828l.6-1.356c2.716,1.2,5.428,2.5,8.059,3.869Zm-111.374-6.967-.515-1.39c2.779-1.028,5.629-1.979,8.47-2.826L364.46,195C361.649,195.836,358.83,196.777,356.081,197.794Zm95.2-.168c-2.755-1.008-5.577-1.939-8.389-2.766l.418-1.422c2.842.836,5.7,1.777,8.48,2.8ZM373,192.749l-.331-1.445c2.884-.661,5.832-1.236,8.763-1.712l.237,1.463C378.772,191.526,375.855,192.1,373,192.749Zm61.336-.108c-2.858-.644-5.777-1.2-8.675-1.663l.232-1.464c2.93.465,5.88,1.03,8.769,1.681Zm-43.906-2.72-.143-1.475c2.943-.286,5.94-.481,8.908-.579l.049,1.481C396.309,189.446,393.343,189.639,390.431,189.921Zm26.467-.046c-2.916-.272-5.883-.455-8.816-.542l.044-1.481c2.965.088,5.963.272,8.91.548Z" transform="translate(10042.358 -3545.453)" fill="#d0cde1"/>
    <g id="グループ_445" data-name="グループ 445">
      <circle id="楕円形_202" data-name="楕円形 202" cx="40" cy="40" r="40" transform="translate(10406 -3389)" fill="#d2b600"/>
      <path id="パス_1370" data-name="パス 1370" d="M455.171,187.485h-12.15c-2.3,0-4.166-2.345-4.166-5.237V166.973a.4.4,0,0,0-.347-.436h-7.984c-3.067,0-5.554,3.126-5.554,6.983v34.913c0,3.856,2.487,6.983,5.554,6.983h19.439c3.067,0,5.554-3.126,5.554-6.983V187.921A.4.4,0,0,0,455.171,187.485Zm-7.984,17.457H433.3a1.792,1.792,0,0,1,0-3.491h13.885a1.792,1.792,0,0,1,0,3.491Zm0-8.728H433.3a1.792,1.792,0,0,1,0-3.491h13.885a1.792,1.792,0,0,1,0,3.491Z" transform="translate(10005.855 -3539.935)" fill="#fff"/>
      <path id="パス_1371" data-name="パス 1371" d="M460.23,180.5l-12.48-12.48a.174.174,0,0,0-.3.122V179.4a1.388,1.388,0,0,0,1.389,1.389h11.265a.174.174,0,0,0,.122-.3Z" transform="translate(10001.392 -3537.39)" fill="#fff"/>
    </g>
    <g id="グループ_449" data-name="グループ 449">
      <circle id="楕円形_204" data-name="楕円形 204" cx="40" cy="40" r="40" transform="translate(10499 -3148)" fill="#d2b600"/>
      <path id="パス_1372" data-name="パス 1372" d="M576.733,507.508a1.846,1.846,0,1,0,1.306.54,1.846,1.846,0,0,0-1.306-.54Z" transform="translate(9968.406 -3623.613)" fill="#fff"/>
      <path id="パス_1373" data-name="パス 1373" d="M580.483,497.112v-.006a1.411,1.411,0,0,0-1.046-1.058c-2.061-.5-5.3.033-8.9,1.472a28.613,28.613,0,0,0-9.308,5.894,22.175,22.175,0,0,0-2.044,2.34,9.065,9.065,0,0,0-4.051.651c-3.993,1.758-5.134,6.255-5.438,8.1a1.729,1.729,0,0,0,1.881,2.006h.009l4.448-.486c.005.057.012.109.017.156a2.376,2.376,0,0,0,.685,1.433l2.171,2.172a2.37,2.37,0,0,0,1.432.685l.149.016-.484,4.443v.009a1.729,1.729,0,0,0,1.542,1.9q.08.008.16.009a1.738,1.738,0,0,0,.287-.023c1.857-.3,6.353-1.425,8.105-5.44a9.146,9.146,0,0,0,.654-4.035A21.766,21.766,0,0,0,573.1,515.3a28.4,28.4,0,0,0,5.9-9.235C580.435,502.518,580.973,499.252,580.483,497.112Zm-7.4,12.1a4.065,4.065,0,1,1,0-5.748l0,0a4.032,4.032,0,0,1,.043,5.7Z" transform="translate(9974.111 -3619.794)" fill="#fff"/>
      <path id="パス_1374" data-name="パス 1374" d="M559.048,527.721a1.106,1.106,0,0,0-.761.185c-.442.3-.886.6-1.334.892a1.032,1.032,0,0,1-1.452-1.383l.84-1.452a1.107,1.107,0,0,0-1.049-1.723,4.237,4.237,0,0,0-2.464,1.208c-.253.254-1.023,1.024-1.437,3.96a24.729,24.729,0,0,0-.223,2.543,1.106,1.106,0,0,0,1.078,1.134h.056a24.906,24.906,0,0,0,2.545-.221c2.937-.415,3.708-1.185,3.961-1.439a4.184,4.184,0,0,0,1.2-2.472A1.107,1.107,0,0,0,559.048,527.721Z" transform="translate(9971.88 -3625.281)" fill="#fff"/>
    </g>
    <g id="グループ_448" data-name="グループ 448">
      <circle id="楕円形_205" data-name="楕円形 205" cx="40" cy="40" r="40" transform="translate(10331 -3143)" fill="#d2b600"/>
      <path id="パス_1375" data-name="パス 1375" d="M326.862,545.017h-2.524a1.893,1.893,0,0,1-1.893-1.893V531.768a1.893,1.893,0,0,1,1.893-1.893h2.524a1.893,1.893,0,0,1,1.893,1.893v11.357A1.893,1.893,0,0,1,326.862,545.017Z" transform="translate(10030.332 -3626.915)" fill="#fff"/>
      <path id="パス_1376" data-name="パス 1376" d="M350.7,542.372h-2.524a1.893,1.893,0,0,1-1.893-1.893V521.552a1.893,1.893,0,0,1,1.893-1.893H350.7a1.893,1.893,0,0,1,1.893,1.893V540.48A1.893,1.893,0,0,1,350.7,542.372Z" transform="translate(10026.936 -3624.736)" fill="#fff"/>
      <path id="パス_1377" data-name="パス 1377" d="M362.618,539.287h-2.524a1.893,1.893,0,0,1-1.893-1.893V509.633a1.893,1.893,0,0,1,1.893-1.893h2.524a1.893,1.893,0,0,1,1.893,1.893v27.761a1.893,1.893,0,0,1-1.893,1.893Z" transform="translate(10025.236 -3622.427)" fill="#fff"/>
      <path id="パス_1378" data-name="パス 1378" d="M338.78,547.083h-2.524a2.187,2.187,0,0,1-1.893-2.393V501.62a2.187,2.187,0,0,1,1.893-2.393h2.524a2.187,2.187,0,0,1,1.893,2.393v43.07a2.187,2.187,0,0,1-1.893,2.393Z" transform="translate(10028.634 -3626.066)" fill="#fff"/>
    </g>
    <g id="グループ_446" data-name="グループ 446">
      <circle id="楕円形_203" data-name="楕円形 203" cx="40" cy="40" r="40" transform="translate(10541 -3294)" fill="#d2b600"/>
      <path id="パス_1379" data-name="パス 1379" d="M623.459,318.68l-1.8-1.8a2.21,2.21,0,0,0-3.117-.008L606,328.437a2.341,2.341,0,0,0-.784,1.592,2.217,2.217,0,0,0,.636,1.653l2.693,2.723,0,0a2.23,2.23,0,0,0,1.567.65h.082a2.319,2.319,0,0,0,1.6-.771l11.65-12.478a2.21,2.21,0,0,0,.013-3.125Z" transform="translate(9957.767 -3571.773)" fill="#fff"/>
      <path id="パス_1380" data-name="パス 1380" d="M641.8,310.806l-.021-.021-2.367-2.342a1.482,1.482,0,0,0-1.055-.432,1.512,1.512,0,0,0-.883.286c0-.03,0-.059.006-.084a2.525,2.525,0,0,0-.359-1.742,17.807,17.807,0,0,0-1.713-1.985l-.006-.006a18.692,18.692,0,0,0-5.989-3.863,9.637,9.637,0,0,0-3.665-.722,6.985,6.985,0,0,0-4.471,1.566,8.277,8.277,0,0,0-.979,1.12,1.1,1.1,0,0,0,1.288,1.681,5.13,5.13,0,0,1,.593-.182,4.381,4.381,0,0,1,1.274-.079,5.357,5.357,0,0,1,2.465.9,3.55,3.55,0,0,1,1.261,2.837,7.366,7.366,0,0,1-1.381,2.381,1.1,1.1,0,0,0,.1,1.45l2.376,2.376a1.1,1.1,0,0,0,1.519.043c.672-.6,1.7-1.5,2.053-1.726a2.571,2.571,0,0,1,1.015-.4,1.324,1.324,0,0,1,.78.164.086.086,0,0,1-.021.066l-.126.119-.021.019a1.486,1.486,0,0,0,0,2.1l.007.007,2.366,2.342a1.481,1.481,0,0,0,1.055.432,1.5,1.5,0,0,0,1.051-.428l3.833-3.786.039-.041a1.51,1.51,0,0,0-.019-2.057Z" transform="translate(9956.462 -3570.332)" fill="#fff"/>
    </g>
    <g id="グループ_447" data-name="グループ 447">
      <circle id="楕円形_206" data-name="楕円形 206" cx="40" cy="40" r="40" transform="translate(10281 -3294)" fill="#d2b600"/>
      <path id="パス_1381" data-name="パス 1381" d="M283.559,314.1a1.383,1.383,0,0,1-.978-2.36l3.17-3.17-3.17-3.17a1.383,1.383,0,0,1,1.955-1.955l4.148,4.148a1.382,1.382,0,0,1,0,1.955l-4.148,4.148a1.378,1.378,0,0,1-.978.4Z" transform="translate(10043.981 -3571.143)" fill="#fff"/>
      <path id="パス_1382" data-name="パス 1382" d="M253.71,319.7a1.383,1.383,0,0,1-1.383-1.383v-1.383a8.337,8.337,0,0,1,8.291-8.3H278.6a1.383,1.383,0,1,1,0,2.765H260.623a5.563,5.563,0,0,0-5.53,5.535v1.378a1.383,1.383,0,0,1-1.383,1.383Z" transform="translate(10049.512 -3571.804)" fill="#fff"/>
      <path id="パス_1383" data-name="パス 1383" d="M267.186,334.626a1.378,1.378,0,0,1-.978-.4l-4.148-4.148a1.382,1.382,0,0,1,0-1.955l4.148-4.148a1.383,1.383,0,1,1,1.955,1.955l-3.17,3.17,3.17,3.17a1.383,1.383,0,0,1-.978,2.36Z" transform="translate(10046.884 -3573.568)" fill="#fff"/>
      <path id="パス_1384" data-name="パス 1384" d="M264.9,329.03a1.383,1.383,0,1,1,0-2.765h17.974a5.563,5.563,0,0,0,5.53-5.535v-1.378a1.383,1.383,0,1,1,2.765,0v1.383a8.337,8.337,0,0,1-8.291,8.3Z" transform="translate(10048.572 -3572.907)" fill="#fff"/>
    </g>
  </g>
</svg>
