<svg xmlns="http://www.w3.org/2000/svg" width="346.367" height="254.069" viewBox="0 0 346.367 254.069">
  <g id="グループ_473" data-name="グループ 473" transform="translate(-762 -5118.238)">
    <g id="グループ_444" data-name="グループ 444" transform="translate(1029.644 5118.238)">
      <path id="パス_1354" data-name="パス 1354" d="M897.143,726.663c.117,12.278-77.249,13.4-78.723,0C818.3,714.387,895.67,713.262,897.143,726.663Z" transform="translate(-818.42 -482.228)" fill="#e6e6e6"/>
      <path id="パス_1355" data-name="パス 1355" d="M618.614,507.569l-5.75,3.136,3.659,12.022,5.749.523,3.137-6.8Z" transform="translate(-600.422 -305.756)" fill="#9f616a"/>
      <path id="パス_1356" data-name="パス 1356" d="M658.28,553.994v5.749l8.886-.523-.124-4.735Z" transform="translate(-622.316 -328.137)" fill="#9f616a"/>
      <path id="パス_1357" data-name="パス 1357" d="M619.929,374.348l3.136,39.2,9.932,57.5,15.681-2.091-5.227-45.475,2.091-41.816Z" transform="translate(-603.828 -241.532)" fill="#2f2e41"/>
      <path id="パス_1358" data-name="パス 1358" d="M891.325,463.6l-37.635.523-4.182,28.749,25.612,12.022,6.272,23-31.885,33.976,12.545,15.681s17.772-24.044,30.84-37.635,6.8-54.884,6.8-54.884Z" transform="translate(-833.407 -360.053)" fill="#2f2e41"/>
      <circle id="楕円形_201" data-name="楕円形 201" cx="11.499" cy="11.499" r="11.499" transform="translate(23.942 6.322)" fill="#9f616a"/>
      <path id="パス_1359" data-name="パス 1359" d="M878.777,308.355v11.5l7.841,12.545s12.022-8.886,9.409-10.977-3.136-18.295-3.136-18.295Z" transform="translate(-847.517 -282.693)" fill="#9f616a"/>
      <path id="パス_1360" data-name="パス 1360" d="M641.9,183.512l-7.841,9.408,3.137,65.338,24.567-.523,4.182-56.974-5.227-14.636-3.586-4.878-6.346,9.582Z" transform="translate(-610.638 -148.441)" fill="#d0cde1"/>
      <path id="パス_1361" data-name="パス 1361" d="M838.013,375.094l-5.75,21.954L838.013,419,828.6,431.546l-8.363-39.725s6.273-32.408,6.8-36.067,1.568-4.182,1.568-4.182l4.182.523Z" transform="translate(-819.297 -306.047)" fill="#2f2e41"/>
      <path id="パス_1362" data-name="パス 1362" d="M705.714,237.689l3.659,6.8,1.046,11.5-2.091,13.068,7.318,12.022,7.318-32.931-7.84-42.339h-3.136Z" transform="translate(-645.183 -160.279)" fill="#2f2e41"/>
      <path id="パス_1363" data-name="パス 1363" d="M839.464,652.327s-7.318,2.091-9.931,2.614,1.568,10.454,1.568,10.454,2.613,13.59,3.136,16.2,4.182,11.5,8.886,12.545,1.568-18.295,1.568-18.295,2.091-6.272,2.091-8.363-3.136-1.045-3.136-1.045C835.283,665.394,839.464,652.327,839.464,652.327Z" transform="translate(-823.363 -451.036)" fill="#2f2e41"/>
      <path id="パス_1364" data-name="パス 1364" d="M882.75,718.312c.523,3.136-.523,3.136,7.841,4.182s6.272-5.75,6.272-5.75a43.923,43.923,0,0,0-2.091-9.409c-1.568-4.182-9.931,1.045-9.931,1.045S882.227,715.176,882.75,718.312Z" transform="translate(-849.399 -476.773)" fill="#2f2e41"/>
      <path id="パス_1365" data-name="パス 1365" d="M884.146,284.472l.272,4.649a52.617,52.617,0,0,0,3.9-15.468c.523-7.84-8.363-9.409-13.59-9.931s-14.113,3.136-14.113,7.318,9.409,3.136,13.068,2.091,5.227,7.841,5.227,7.841l2.091.523Z" transform="translate(-838.76 -263.671)" fill="#2f2e41"/>
      <path id="パス_1366" data-name="パス 1366" d="M643.24,189.322l3.085-3.7,8.886,7.318-8.886,6.272Z" transform="translate(-615.065 -150.549)" fill="#d0cde1"/>
      <path id="パス_1367" data-name="パス 1367" d="M676.286,186.287l-3.659-4.7-6.272,9.408,7.841,5.75Z" transform="translate(-626.208 -148.603)" fill="#d0cde1"/>
      <path id="パス_1368" data-name="パス 1368" d="M844.716,371.951l2.091,19.863-4.182,12.022-2.614,11.5s0,10.977,10.454,11.5,19.34-32.93,19.34-32.93,1.568,7.318,2.614,11.5,18.817,20.908,18.817,20.908,4.182-.523,7.841-8.886-7.318-16.2-7.318-16.2l-3.136-10.977,1.045-13.59,7.318-35.544-21.692-11.238,2.352,30.055-7.841,23.522-11.761-52.009-3.92,2.875-16.726,6.8Z" transform="translate(-827.569 -295.586)" fill="#2f2e41"/>
    </g>
    <path id="パス_1369" data-name="パス 1369" d="M356.019,370.606c-.97-.008-1.951-.014-2.915-.044l.03-.972c.954.029,1.929.043,2.886.044s1.94-.016,2.911-.047l.031.971C357.979,370.59,356.99,370.606,356.019,370.606Zm-8.76-.411c-1.936-.183-3.89-.432-5.81-.738l.153-.96c1.9.3,3.833.549,5.748.73Zm17.547-.01-.093-.968c1.914-.183,3.848-.432,5.747-.737l.155.96C368.695,369.749,366.74,370,364.805,370.185ZM335.7,368.348c-1.9-.43-3.8-.927-5.667-1.478l.276-.932c1.845.545,3.732,1.037,5.607,1.462Zm40.666-.024-.216-.948c1.879-.429,3.765-.923,5.605-1.469l.277.932c-1.86.552-3.766,1.052-5.666,1.485Zm-51.895-3.294c-1.829-.672-3.659-1.411-5.438-2.2l.394-.889c1.761.779,3.571,1.511,5.38,2.175Zm63.119-.038-.336-.913c1.8-.662,3.6-1.394,5.361-2.174l.395.889C391.229,363.582,389.406,364.322,387.588,364.991Zm-73.841-4.706c-1.721-.9-3.44-1.867-5.108-2.878l.5-.832c1.65,1,3.351,1.959,5.053,2.848Zm84.529-.036-.45-.862c1.7-.888,3.4-1.846,5.041-2.846l.505.831C401.709,358.384,399.994,359.351,398.277,360.25Zm-94.549-6.041c-1.594-1.112-3.174-2.292-4.7-3.506l.606-.761c1.506,1.2,3.069,2.368,4.646,3.469Zm104.548-.035-.557-.8c1.577-1.1,3.138-2.269,4.64-3.469l.607.76C411.447,351.881,409.869,353.06,408.276,354.174ZM294.57,346.9c-1.441-1.308-2.858-2.679-4.21-4.073l.7-.677c1.338,1.38,2.74,2.736,4.166,4.03Zm122.853-.034-.654-.72c1.422-1.292,2.823-2.649,4.163-4.032l.7.676C420.276,344.193,418.86,345.564,417.423,346.87Zm-131-8.371c-1.262-1.479-2.492-3.018-3.657-4.573l.778-.583c1.152,1.539,2.37,3.062,3.618,4.525Zm139.152-.04-.74-.63c1.248-1.465,2.465-2.989,3.618-4.53l.779.582c-1.165,1.558-2.395,3.1-3.657,4.579Zm-146.165-9.33c-1.064-1.629-2.087-3.311-3.043-5l.847-.479c.945,1.671,1.958,3.335,3.01,4.947Zm153.18-.053-.815-.531c1.053-1.615,2.066-3.282,3.011-4.957l.847.478c-.955,1.693-1.979,3.378-3.043,5.01Zm-158.937-10.13c-.846-1.75-1.645-3.548-2.375-5.346l.9-.366c.723,1.778,1.513,3.557,2.35,5.288Zm164.7-.076-.875-.423c.837-1.734,1.627-3.518,2.351-5.3l.9.365C439.99,315.313,439.19,317.117,438.344,318.87Zm-169.1-10.764c-.615-1.847-1.177-3.736-1.67-5.615l.94-.247c.488,1.859,1.044,3.728,1.652,5.554Zm173.5-.1-.923-.306c.6-1.825,1.159-3.694,1.646-5.557l.941.246C443.918,304.269,443.358,306.158,442.747,308ZM266.268,296.781c-.371-1.908-.686-3.853-.934-5.782l.964-.124c.246,1.909.557,3.833.924,5.72Zm179.44-.107-.954-.184c.365-1.887.674-3.812.917-5.722l.965.123C446.389,292.822,446.077,294.768,445.708,296.674Zm-180.936-11.5c-.125-1.938-.189-3.908-.191-5.855h.972c0,1.927.066,3.875.189,5.793Zm182.42-.109-.97-.062c.121-1.916.182-3.865.182-5.792v-.213h.972v.21c0,1.951-.062,3.92-.184,5.857ZM265.728,273.522l-.97-.06c.121-1.942.305-3.9.548-5.831l.965.122C266.03,269.661,265.848,271.6,265.728,273.522Zm180.479-.319c-.126-1.922-.316-3.862-.563-5.767l.964-.125c.25,1.925.442,3.886.57,5.829ZM267.182,262.031l-.955-.184c.367-1.908.8-3.83,1.291-5.713l.941.245C267.974,258.242,267.545,260.143,267.182,262.031Zm177.531-.314c-.37-1.889-.807-3.789-1.3-5.648l.94-.248c.5,1.878.937,3.8,1.311,5.708ZM270.1,250.821l-.923-.3c.61-1.848,1.29-3.7,2.02-5.508l.9.364C271.374,247.16,270.7,248.993,270.1,250.821Zm171.659-.3c-.611-1.825-1.288-3.653-2.014-5.434l.9-.367c.734,1.8,1.419,3.648,2.036,5.492ZM274.441,240.064l-.876-.422c.843-1.753,1.755-3.5,2.71-5.2l.847.477C276.177,236.6,275.275,238.329,274.441,240.064Zm162.946-.265c-.837-1.726-1.743-3.451-2.692-5.125l.846-.48c.959,1.692,1.875,3.435,2.721,5.181ZM280.128,229.96l-.815-.53c1.06-1.63,2.188-3.248,3.352-4.808l.78.581C282.293,226.746,281.177,228.347,280.128,229.96Zm151.551-.229c-1.052-1.607-2.171-3.2-3.327-4.742l.778-.583c1.168,1.556,2.3,3.169,3.363,4.793Zm-144.622-9.063-.741-.63c1.259-1.481,2.583-2.942,3.935-4.34l.7.676C289.613,217.758,288.3,219.2,287.056,220.668Zm137.672-.2c-1.25-1.462-2.564-2.9-3.9-4.282l.7-.677c1.355,1.394,2.683,2.85,3.947,4.327Zm-129.62-8.131-.655-.719c1.439-1.311,2.937-2.59,4.453-3.8l.608.759C298.014,209.774,296.532,211.04,295.108,212.337Zm121.545-.176c-1.426-1.291-2.912-2.553-4.419-3.752l.606-.761c1.523,1.212,3.025,2.488,4.466,3.792ZM304.15,205.1l-.558-.8c1.591-1.115,3.239-2.193,4.9-3.2l.506.83C307.355,202.93,305.724,204,304.15,205.1Zm103.434-.155c-1.583-1.1-3.219-2.165-4.863-3.16l.5-.832c1.662,1.005,3.316,2.08,4.915,3.193Zm-93.548-5.868-.452-.861c1.719-.9,3.491-1.759,5.266-2.55l.4.888C317.489,197.336,315.736,198.185,314.036,199.077Zm83.629-.133c-1.707-.889-3.467-1.734-5.23-2.511l.393-.89c1.782.786,3.56,1.64,5.286,2.538Zm-73.06-4.57-.338-.912c1.823-.674,3.692-1.3,5.556-1.854l.278.932C328.257,193.089,326.407,193.706,324.6,194.374Zm62.448-.11c-1.807-.661-3.659-1.272-5.5-1.814l.274-.933c1.864.549,3.736,1.166,5.563,1.834Zm-51.348-3.2-.217-.948c1.892-.433,3.826-.811,5.748-1.123l.156.96C339.489,190.262,337.575,190.636,335.7,191.064Zm40.236-.071c-1.875-.423-3.79-.79-5.691-1.091l.152-.96c1.922.3,3.857.676,5.752,1.1Zm-28.8-1.784-.094-.968c1.93-.187,3.9-.315,5.844-.38l.032.972C350.993,188.9,349.047,189.024,347.137,189.209Zm17.362-.03c-1.913-.179-3.859-.3-5.783-.356l.029-.972c1.945.058,3.912.179,5.845.359Z" transform="translate(514.435 4966.072)" fill="#d0cde1"/>
    <g id="グループ_445" data-name="グループ 445" transform="translate(844 5134)">
      <circle id="楕円形_202" data-name="楕円形 202" cx="26" cy="26" r="26" transform="translate(0 0)" fill="#2f3f59"/>
      <path id="パス_1370" data-name="パス 1370" d="M444.782,180.279h-7.97c-1.509,0-2.733-1.538-2.733-3.435v-10.02a.262.262,0,0,0-.228-.286h-5.237c-2.012,0-3.643,2.051-3.643,4.581v22.9c0,2.53,1.631,4.581,3.643,4.581h12.752c2.012,0,3.643-2.051,3.643-4.581V180.565A.262.262,0,0,0,444.782,180.279Zm-5.237,11.451h-9.109a1.175,1.175,0,0,1,0-2.29h9.109a1.175,1.175,0,0,1,0,2.29Zm0-5.726h-9.109a1.175,1.175,0,0,1,0-2.29h9.109a1.175,1.175,0,0,1,0,2.29Z" transform="translate(-408.687 -156.977)" fill="#fff"/>
      <path id="パス_1371" data-name="パス 1371" d="M455.834,176.185,447.648,168a.114.114,0,0,0-.194.08v7.39a.911.911,0,0,0,.911.911h7.39a.114.114,0,0,0,.08-.194Z" transform="translate(-419.35 -155.799)" fill="#fff"/>
    </g>
    <g id="グループ_449" data-name="グループ 449" transform="translate(905 5291)">
      <ellipse id="楕円形_204" data-name="楕円形 204" cx="26" cy="26.5" rx="26" ry="26.5" transform="translate(0 0)" fill="#2f3f59"/>
      <path id="パス_1372" data-name="パス 1372" d="M576.1,507.508a1.211,1.211,0,1,0,.857.354,1.211,1.211,0,0,0-.857-.354Z" transform="translate(-545.826 -486.166)" fill="#fff"/>
      <path id="パス_1373" data-name="パス 1373" d="M569.885,496.682v0a.926.926,0,0,0-.686-.694,10.644,10.644,0,0,0-5.836.965,18.77,18.77,0,0,0-6.106,3.866,14.545,14.545,0,0,0-1.341,1.535,5.948,5.948,0,0,0-2.657.427c-2.62,1.153-3.368,4.1-3.567,5.315a1.134,1.134,0,0,0,1.234,1.316h.006l2.918-.319c0,.037.008.071.011.1a1.559,1.559,0,0,0,.449.94l1.424,1.425a1.555,1.555,0,0,0,.94.45l.1.01-.318,2.915v.006a1.134,1.134,0,0,0,1.012,1.245c.035,0,.07.006.1.006a1.144,1.144,0,0,0,.188-.015c1.218-.2,4.167-.935,5.317-3.569a6,6,0,0,0,.429-2.647,14.274,14.274,0,0,0,1.54-1.341,18.634,18.634,0,0,0,3.87-6.058A10.823,10.823,0,0,0,569.885,496.682Zm-4.857,7.934a2.666,2.666,0,1,1,0-3.771l0,0a2.645,2.645,0,0,1,.028,3.741Z" transform="translate(-533.41 -479.655)" fill="#fff"/>
      <path id="パス_1374" data-name="パス 1374" d="M556.337,526.52a.725.725,0,0,0-.5.121c-.29.2-.581.394-.875.585a.677.677,0,0,1-.953-.907l.551-.953a.726.726,0,0,0-.688-1.13,2.779,2.779,0,0,0-1.617.792c-.166.167-.671.672-.943,2.6a16.21,16.21,0,0,0-.146,1.668.726.726,0,0,0,.707.744h.037a16.338,16.338,0,0,0,1.67-.145c1.927-.272,2.432-.778,2.6-.944a2.745,2.745,0,0,0,.789-1.621A.726.726,0,0,0,556.337,526.52Z" transform="translate(-535.387 -493.013)" fill="#fff"/>
    </g>
    <g id="グループ_448" data-name="グループ 448" transform="translate(795 5294)">
      <ellipse id="楕円形_205" data-name="楕円形 205" cx="26" cy="27" rx="26" ry="27" transform="translate(0 0)" fill="#2f3f59"/>
      <path id="パス_1375" data-name="パス 1375" d="M325.343,539.808h-1.656a1.242,1.242,0,0,1-1.242-1.242v-7.45a1.242,1.242,0,0,1,1.242-1.242h1.656a1.242,1.242,0,0,1,1.242,1.242v7.45A1.242,1.242,0,0,1,325.343,539.808Z" transform="translate(-308.36 -499.027)" fill="#fff"/>
      <path id="パス_1376" data-name="パス 1376" d="M349.18,534.559h-1.656a1.242,1.242,0,0,1-1.242-1.242V520.9a1.242,1.242,0,0,1,1.242-1.242h1.655a1.242,1.242,0,0,1,1.242,1.242v12.416A1.242,1.242,0,0,1,349.18,534.559Z" transform="translate(-318.788 -494.083)" fill="#fff"/>
      <path id="パス_1377" data-name="パス 1377" d="M361.1,528.435h-1.655a1.242,1.242,0,0,1-1.242-1.242V508.982a1.242,1.242,0,0,1,1.242-1.242H361.1a1.242,1.242,0,0,1,1.242,1.242v18.211A1.242,1.242,0,0,1,361.1,528.435Z" transform="translate(-324.003 -488.468)" fill="#fff"/>
      <path id="パス_1378" data-name="パス 1378" d="M337.261,530.62h-1.655a1.435,1.435,0,0,1-1.242-1.57V500.8a1.435,1.435,0,0,1,1.242-1.57h1.655a1.435,1.435,0,0,1,1.242,1.57V529.05A1.435,1.435,0,0,1,337.261,530.62Z" transform="translate(-313.574 -487.927)" fill="#fff"/>
    </g>
    <g id="グループ_446" data-name="グループ 446" transform="translate(933 5196)">
      <circle id="楕円形_203" data-name="楕円形 203" cx="26" cy="26" r="26" transform="translate(0 0)" fill="#2f3f59"/>
      <path id="パス_1379" data-name="パス 1379" d="M617.184,317.837,616,316.654a1.45,1.45,0,0,0-2.045-.005l-8.223,7.589a1.536,1.536,0,0,0-.514,1.045,1.455,1.455,0,0,0,.417,1.085l1.767,1.786,0,0a1.463,1.463,0,0,0,1.028.427h.053a1.521,1.521,0,0,0,1.05-.506l7.642-8.186a1.45,1.45,0,0,0,.009-2.05Z" transform="translate(-591.239 -291.358)" fill="#fff"/>
      <path id="パス_1380" data-name="パス 1380" d="M634.33,307.052l-.014-.014-1.552-1.537a.972.972,0,0,0-.692-.284.991.991,0,0,0-.579.188c0-.02,0-.039,0-.055a1.657,1.657,0,0,0-.236-1.143,11.678,11.678,0,0,0-1.123-1.3l0,0a12.261,12.261,0,0,0-3.928-2.534,6.321,6.321,0,0,0-2.4-.473,4.582,4.582,0,0,0-2.933,1.027,5.422,5.422,0,0,0-.642.735.725.725,0,0,0,.845,1.1,3.362,3.362,0,0,1,.389-.119,2.875,2.875,0,0,1,.836-.052,3.515,3.515,0,0,1,1.617.593,2.329,2.329,0,0,1,.827,1.861,4.833,4.833,0,0,1-.906,1.562.725.725,0,0,0,.066.951l1.559,1.559a.725.725,0,0,0,1,.028c.441-.394,1.112-.987,1.347-1.133a1.687,1.687,0,0,1,.666-.263.869.869,0,0,1,.511.108.056.056,0,0,1-.014.043l-.082.078-.014.013a.975.975,0,0,0,0,1.379l0,0,1.552,1.536a.971.971,0,0,0,.692.283.983.983,0,0,0,.69-.281l2.514-2.483.025-.027a.991.991,0,0,0-.013-1.349Z" transform="translate(-597.21 -284.793)" fill="#fff"/>
    </g>
    <g id="グループ_447" data-name="グループ 447" transform="translate(762 5196)">
      <circle id="楕円形_206" data-name="楕円形 206" cx="26" cy="26" r="26" transform="translate(0 0)" fill="#2f3f59"/>
      <path id="パス_1381" data-name="パス 1381" d="M283.084,310.3a.907.907,0,0,1-.641-1.548l2.08-2.08-2.08-2.08a.907.907,0,0,1,1.283-1.283l2.721,2.721a.907.907,0,0,1,0,1.283l-2.721,2.721A.9.9,0,0,1,283.084,310.3Z" transform="translate(-252.553 -286.409)" fill="#fff"/>
      <path id="パス_1382" data-name="パス 1382" d="M253.234,315.9a.907.907,0,0,1-.907-.907v-.907a5.469,5.469,0,0,1,5.439-5.442H269.56a.907.907,0,0,1,0,1.814H257.769a3.65,3.65,0,0,0-3.628,3.631v.9a.907.907,0,0,1-.907.907Z" transform="translate(-238.657 -288.768)" fill="#fff"/>
      <path id="パス_1383" data-name="パス 1383" d="M265.283,330.821a.9.9,0,0,1-.641-.266l-2.721-2.721a.907.907,0,0,1,0-1.283l2.721-2.721a.907.907,0,1,1,1.283,1.283l-2.08,2.08,2.08,2.08a.907.907,0,0,1-.641,1.548Z" transform="translate(-243.59 -295.059)" fill="#fff"/>
      <path id="パス_1384" data-name="パス 1384" d="M264.428,325.225a.907.907,0,0,1,0-1.814h11.791a3.65,3.65,0,0,0,3.628-3.631v-.9a.907.907,0,1,1,1.814,0v.907a5.469,5.469,0,0,1-5.439,5.442Z" transform="translate(-243.124 -292.7)" fill="#fff"/>
    </g>
  </g>
</svg>
